<?xml version="1.0" standalone="no"?>
<!DOCTYPE svg PUBLIC "-//W3C//DTD SVG 20010904//EN"
 "http://www.w3.org/TR/2001/REC-SVG-20010904/DTD/svg10.dtd">
<svg version="1.0" xmlns="http://www.w3.org/2000/svg"
 width="512.000000pt" height="512.000000pt" viewBox="0 0 512.000000 512.000000"
 preserveAspectRatio="xMidYMid meet">

<g transform="translate(0.000000,512.000000) scale(0.100000,-0.100000)"
fill="#000000" stroke="none">
<path d="M1778 4538 c-3 -456 -4 -496 -22 -533 -31 -67 -77 -123 -130 -160
-92 -62 -116 -65 -633 -65 l-463 0 0 -1395 0 -1395 916 0 917 0 122 -70 c67
-38 125 -70 129 -70 3 0 6 65 6 145 l0 145 -816 2 -816 3 -19 24 c-26 32 -25
82 4 109 l23 22 812 0 812 0 0 145 0 145 -816 2 -816 3 -19 24 c-26 32 -25 82
4 109 l23 22 812 0 812 0 0 185 0 185 -85 0 c-89 0 -137 15 -149 45 -3 9 -6
310 -6 669 l0 653 23 21 c22 21 33 22 171 22 81 0 156 -4 166 -10 34 -18 40
-65 40 -328 0 -238 1 -254 18 -247 74 33 125 44 195 45 l77 0 0 426 0 426 30
29 30 30 151 -3 c145 -3 152 -4 170 -27 18 -22 19 -45 19 -452 l0 -429 230 0
230 0 0 938 0 938 -25 51 c-16 32 -41 61 -67 79 l-41 29 -1008 3 -1008 2 -3
-492z m1150 -7 c105 -21 198 -43 206 -50 32 -27 28 -60 -35 -248 -34 -102 -70
-194 -80 -204 -26 -26 -83 -25 -109 1 -26 26 -26 74 1 145 12 31 19 58 17 60
-2 2 -386 -217 -853 -487 -486 -281 -864 -493 -882 -496 -25 -3 -38 2 -59 23
-22 22 -25 32 -21 62 4 20 10 40 14 44 8 8 154 93 1053 611 305 176 582 337
615 356 l60 36 -65 13 c-108 21 -110 22 -127 58 -13 28 -14 39 -4 63 11 27 41
50 67 51 5 1 96 -16 202 -38z m-895 -1372 c14 -6 30 -22 36 -36 8 -16 11 -168
11 -483 l0 -459 -24 -28 -24 -28 -152 0 -152 0 -24 28 -24 28 0 459 c0 479 2
498 44 518 29 14 279 15 309 1z m-676 -381 l23 -21 0 -294 c0 -371 15 -347
-219 -341 -188 4 -175 -19 -179 311 -4 284 -1 318 29 348 17 17 34 19 171 19
142 0 153 -1 175 -22z"/>
<path d="M1073 4487 c-288 -287 -523 -528 -523 -535 0 -16 875 -18 932 -2 50
14 97 55 119 105 17 37 19 75 19 498 0 357 -3 457 -12 457 -7 0 -248 -235
-535 -523z"/>
<path d="M2905 2819 c-36 -10 -79 -48 -102 -92 -17 -30 -18 -109 -21 -1250 -1
-822 1 -1231 8 -1257 13 -47 51 -94 94 -118 29 -16 104 -17 1006 -17 936 0
977 1 1013 19 21 10 50 35 65 54 l27 35 3 1236 c1 680 0 1250 -3 1268 -8 43
-50 92 -100 114 -38 18 -89 19 -1000 18 -528 0 -973 -5 -990 -10z m1775 -328
c6 -11 10 -89 10 -182 0 -137 -3 -165 -17 -181 -15 -17 -53 -18 -779 -18 -680
0 -764 2 -778 16 -13 13 -16 44 -16 188 0 120 4 176 12 184 9 9 197 12 785 12
753 0 773 0 783 -19z m-1242 -633 c8 -8 12 -59 12 -164 0 -193 8 -184 -175
-184 -184 0 -175 -9 -175 185 0 136 2 155 18 164 25 15 305 14 320 -1z m616
-4 c13 -13 16 -42 16 -164 0 -188 8 -180 -175 -180 -183 0 -175 -9 -175 184 0
105 4 156 12 164 8 8 58 12 159 12 121 0 150 -3 163 -16z m620 0 c24 -24 23
-305 -1 -325 -12 -11 -54 -14 -165 -14 -137 0 -151 2 -164 19 -10 15 -14 54
-14 156 0 189 -9 180 180 180 122 0 151 -3 164 -16z m-1236 -566 c17 -17 17
-309 0 -326 -17 -17 -309 -17 -326 0 -17 17 -17 309 0 326 8 8 59 12 163 12
104 0 155 -4 163 -12z m620 0 c8 -8 12 -59 12 -165 0 -140 -2 -153 -19 -163
-28 -15 -304 -13 -319 2 -17 17 -17 309 0 326 8 8 59 12 163 12 104 0 155 -4
163 -12z m620 0 c9 -9 12 -121 12 -444 l0 -433 -22 -15 c-18 -13 -52 -16 -160
-16 -125 0 -140 2 -158 20 -19 19 -20 33 -20 441 0 271 4 427 10 440 10 18 23
19 168 19 110 0 162 -4 170 -12z m-1247 -558 c17 -10 19 -23 19 -163 0 -84 -5
-159 -10 -167 -7 -12 -38 -16 -150 -18 -199 -5 -190 -13 -190 178 0 122 3 151
16 164 13 13 41 16 155 16 78 0 149 -5 160 -10z m623 -6 c13 -13 16 -42 16
-164 0 -189 8 -180 -178 -180 -73 0 -142 5 -153 10 -18 10 -19 23 -19 170 0
141 2 160 18 169 9 6 81 11 159 11 116 0 144 -3 157 -16z"/>
<path d="M183 815 c-56 -24 -63 -53 -63 -250 0 -198 6 -221 64 -249 25 -12 63
-16 140 -16 l106 0 0 265 0 265 -107 0 c-69 -1 -119 -6 -140 -15z"/>
<path d="M590 565 l0 -265 825 0 825 0 0 265 0 265 -825 0 -825 0 0 -265z"/>
<path d="M2400 565 c0 -118 2 -215 4 -215 11 0 254 144 274 163 14 13 22 32
22 52 0 20 -8 39 -22 52 -20 19 -263 163 -274 163 -2 0 -4 -97 -4 -215z"/>
</g>
</svg>
