<?xml version="1.0" standalone="no"?>
<!DOCTYPE svg PUBLIC "-//W3C//DTD SVG 20010904//EN"
 "http://www.w3.org/TR/2001/REC-SVG-20010904/DTD/svg10.dtd">
<svg version="1.0" xmlns="http://www.w3.org/2000/svg"
 width="512.000000pt" height="512.000000pt" viewBox="0 0 512.000000 512.000000"
 preserveAspectRatio="xMidYMid meet">

<g transform="translate(0.000000,512.000000) scale(0.100000,-0.100000)"
fill="#000000" stroke="none">
<path d="M1301 5105 c-177 -39 -347 -171 -429 -335 -77 -153 -72 4 -72 -2210
0 -2214 -5 -2057 72 -2210 73 -145 203 -257 370 -318 l73 -27 1212 -3 c1359
-3 1291 -6 1442 70 146 73 259 204 319 370 l27 73 0 2040 0 2040 -22 70 c-52
163 -175 309 -323 383 -150 75 -84 72 -1415 71 -976 0 -1202 -3 -1254 -14z
m834 -250 c50 -49 15 -135 -55 -135 -41 0 -80 39 -80 80 0 41 39 80 80 80 19
0 40 -9 55 -25z m960 0 c16 -15 25 -36 25 -55 0 -19 -9 -40 -25 -55 l-24 -25
-351 0 -351 0 -24 25 c-16 15 -25 36 -25 55 0 19 9 40 25 55 l24 25 351 0 351
0 24 -25z m659 -387 c55 -16 138 -99 154 -154 18 -60 18 -3688 0 -3748 -16
-55 -99 -138 -154 -154 -60 -17 -2328 -17 -2388 0 -55 16 -138 99 -154 154
-18 60 -18 3688 0 3748 15 51 99 137 148 153 53 17 2338 17 2394 1z"/>
<path d="M1385 4295 l-25 -24 0 -1831 0 -1831 25 -24 24 -25 1151 0 1151 0 24
25 25 24 0 1831 0 1831 -25 24 -24 25 -1151 0 -1151 0 -24 -25z m1313 -164
c113 -58 177 -158 177 -277 l0 -72 76 -37 c295 -143 489 -458 489 -792 l0 -73
55 0 c46 0 60 -4 80 -25 25 -24 25 -26 25 -215 0 -189 0 -191 -25 -215 l-24
-25 -991 0 -991 0 -24 25 c-25 24 -25 26 -25 215 0 189 0 191 25 215 20 21 34
25 80 25 l55 0 0 73 c0 318 169 610 445 768 33 19 74 40 90 47 28 12 30 15 27
61 -8 106 48 216 142 279 66 44 97 52 191 48 59 -2 91 -8 123 -25z m47 -1915
c33 -9 98 -35 145 -58 121 -60 249 -188 308 -308 62 -128 77 -193 76 -340 -1
-107 -5 -137 -27 -205 -38 -115 -90 -198 -182 -290 -92 -92 -175 -144 -290
-182 -68 -22 -98 -26 -205 -27 -147 -1 -213 14 -337 75 -145 72 -287 228 -343
377 -77 204 -59 439 47 622 47 80 178 213 256 259 67 40 169 78 241 91 70 12
238 5 311 -14z"/>
<path d="M2495 3986 c-52 -23 -95 -85 -95 -134 0 -15 17 -17 161 -17 l161 0
-6 35 c-15 95 -133 157 -221 116z"/>
<path d="M2435 3670 c-145 -27 -271 -94 -381 -204 -136 -137 -201 -282 -211
-478 l-6 -108 723 0 723 0 -6 108 c-10 196 -75 341 -211 478 -138 137 -286
202 -476 209 -58 2 -127 0 -155 -5z"/>
<path d="M1680 2640 l0 -80 880 0 880 0 0 80 0 80 -880 0 -880 0 0 -80z"/>
<path d="M2445 2069 c-90 -18 -208 -83 -277 -152 -112 -112 -163 -235 -163
-397 0 -160 51 -285 161 -394 109 -110 234 -161 394 -161 160 0 285 51 394
161 110 109 161 234 161 394 0 115 -14 170 -68 272 -35 67 -130 167 -194 205
-117 68 -282 97 -408 72z m410 -334 c16 -16 25 -35 25 -57 0 -29 -20 -53 -183
-215 -229 -230 -209 -225 -354 -80 -88 88 -103 108 -103 135 0 43 38 82 80 82
25 0 45 -13 96 -62 l64 -62 144 142 c124 124 147 142 175 142 21 0 41 -9 56
-25z"/>
</g>
</svg>
