<?xml version="1.0" standalone="no"?>
<!DOCTYPE svg PUBLIC "-//W3C//DTD SVG 20010904//EN"
 "http://www.w3.org/TR/2001/REC-SVG-20010904/DTD/svg10.dtd">
<svg version="1.0" xmlns="http://www.w3.org/2000/svg"
 width="512.000000pt" height="512.000000pt" viewBox="0 0 512.000000 512.000000"
 preserveAspectRatio="xMidYMid meet">

<g transform="translate(0.000000,512.000000) scale(0.100000,-0.100000)"
fill="#000000" stroke="none">
<path d="M907 5026 c-49 -18 -64 -32 -88 -77 -19 -37 -19 -88 -19 -2391 l0
-2353 23 -39 c12 -22 37 -49 56 -60 57 -33 109 -26 263 37 l137 55 138 -55
c180 -71 191 -71 367 0 l138 56 137 -55 c178 -72 188 -72 365 -1 l138 56 137
-55 c177 -72 188 -72 364 -1 76 31 144 54 152 51 11 -5 11 1 0 33 -11 29 -14
118 -15 386 l0 347 -492 0 c-477 0 -493 1 -534 21 -57 27 -84 72 -84 139 0 67
27 112 84 139 41 20 57 21 534 21 l492 0 0 160 0 160 -492 0 c-477 0 -493 1
-534 21 -57 27 -84 72 -84 139 0 67 27 112 84 139 42 21 51 21 1094 21 l1052
0 0 1493 0 1493 -22 44 c-14 26 -37 53 -57 64 -57 33 -110 26 -263 -37 l-137
-55 -138 55 c-180 71 -191 71 -366 0 l-139 -56 -136 55 c-178 72 -189 72 -365
1 l-139 -56 -136 55 c-178 72 -189 72 -364 1 l-138 -55 -137 55 c-97 39 -152
56 -183 56 -31 0 -86 -17 -182 -56 l-138 -55 -133 53 c-155 62 -189 70 -240
51z m1741 -733 c40 -30 63 -66 69 -109 l5 -40 77 -17 c87 -20 239 -89 315
-144 229 -166 377 -425 401 -700 l7 -79 43 -12 c140 -37 153 -242 18 -298 -48
-21 -1998 -21 -2046 0 -135 56 -122 261 19 298 42 12 44 14 44 49 0 55 27 196
49 262 106 306 375 556 674 624 67 16 77 21 77 40 0 54 41 115 95 139 40 19
119 12 153 -13z m-802 -1759 c53 -39 69 -71 69 -134 0 -63 -16 -95 -69 -134
-23 -18 -45 -22 -144 -24 -137 -4 -179 6 -221 53 -52 59 -54 147 -4 206 44 52
73 59 215 57 110 -3 130 -6 154 -24z m1760 0 c53 -39 69 -71 69 -134 0 -63
-16 -95 -69 -134 -27 -21 -38 -21 -708 -24 -673 -2 -681 -2 -724 19 -57 27
-84 72 -84 139 0 67 26 111 83 139 42 21 48 21 724 19 671 -3 682 -3 709 -24z
m-1760 -640 c53 -39 69 -71 69 -134 0 -63 -16 -95 -69 -134 -23 -18 -45 -22
-144 -24 -137 -4 -179 6 -221 53 -52 59 -54 147 -4 206 44 52 73 59 215 57
110 -3 130 -6 154 -24z m0 -640 c53 -39 69 -71 69 -134 0 -63 -16 -95 -69
-134 -23 -18 -45 -22 -144 -24 -137 -4 -179 6 -221 53 -52 59 -54 147 -4 206
44 52 73 59 215 57 110 -3 130 -6 154 -24z"/>
<path d="M2421 3825 c-177 -39 -347 -171 -429 -335 -41 -82 -71 -191 -72 -257
l0 -33 640 0 640 0 0 33 c-1 66 -31 175 -72 257 -128 256 -424 396 -707 335z"/>
<path d="M3612 1583 c-18 -9 -45 -32 -60 -51 l-27 -35 0 -537 0 -537 29 -37
c52 -68 38 -67 621 -64 511 3 524 3 551 24 15 11 37 33 48 48 21 27 21 40 24
551 3 583 4 569 -64 621 l-37 29 -526 2 c-472 3 -529 1 -559 -14z m445 -314
c15 -5 45 -26 65 -46 l37 -36 45 41 c74 68 161 69 227 3 66 -66 65 -153 -3
-227 l-41 -44 41 -44 c68 -74 69 -161 3 -227 -66 -66 -153 -65 -227 3 l-44 41
-44 -41 c-74 -68 -161 -69 -227 -3 -66 66 -65 153 3 227 l41 44 -41 44 c-25
27 -43 58 -47 80 -24 127 93 230 212 185z"/>
</g>
</svg>
