<?xml version="1.0" standalone="no"?>
<!DOCTYPE svg PUBLIC "-//W3C//DTD SVG 20010904//EN"
 "http://www.w3.org/TR/2001/REC-SVG-20010904/DTD/svg10.dtd">
<svg version="1.0" xmlns="http://www.w3.org/2000/svg"
 width="512.000000pt" height="512.000000pt" viewBox="0 0 512.000000 512.000000"
 preserveAspectRatio="xMidYMid meet">

<g transform="translate(0.000000,512.000000) scale(0.100000,-0.100000)"
fill="#000000" stroke="none">
<path d="M1602 3758 l3 -1123 60 -7 c96 -12 231 -55 325 -103 l86 -45 1122 0
1122 0 0 -80 0 -80 -1026 0 -1026 0 35 -40 c20 -21 48 -57 63 -80 l27 -40 963
0 964 0 0 -80 0 -80 -918 -2 -918 -3 24 -78 24 -77 894 0 894 0 0 -80 0 -80
-880 0 -880 0 0 -80 0 -80 880 0 880 0 0 -80 0 -80 -894 0 -894 0 -24 -77 -24
-78 918 -3 918 -2 0 -80 0 -80 -963 0 -964 0 -37 -54 c-47 -69 -183 -199 -259
-249 -124 -82 -296 -148 -433 -165 l-59 -7 -3 -163 -2 -162 1120 0 1120 0 0
295 0 296 25 24 24 25 296 0 295 0 0 2000 0 2000 -1440 0 -1440 0 2 -1122z
m2533 937 c25 -24 25 -26 25 -215 0 -189 0 -191 -25 -215 l-24 -25 -1071 0
-1071 0 -24 25 c-25 24 -25 26 -25 215 0 189 0 191 25 215 l24 25 1071 0 1071
0 24 -25z m-1735 -699 l0 -85 53 -24 c96 -44 166 -138 183 -244 l7 -43 -80 0
-79 0 -12 44 c-31 116 -177 154 -263 67 -59 -59 -65 -149 -13 -211 36 -42 57
-51 140 -61 127 -14 223 -78 274 -184 35 -74 35 -189 -1 -266 -33 -70 -87
-125 -156 -156 l-53 -24 0 -85 0 -84 -80 0 -80 0 0 84 0 85 -53 24 c-95 43
-167 138 -182 240 l-7 47 79 0 79 0 12 -44 c31 -117 175 -153 262 -66 61 61
66 147 14 210 -36 42 -57 51 -140 61 -127 14 -223 78 -274 184 -35 74 -35 189
1 266 33 70 87 125 156 156 l53 24 0 85 0 84 80 0 80 0 0 -84z m1920 -156 l0
-80 -720 0 -720 0 0 80 0 80 720 0 720 0 0 -80z m0 -320 l0 -80 -720 0 -720 0
0 80 0 80 720 0 720 0 0 -80z m0 -320 l0 -80 -720 0 -720 0 0 80 0 80 720 0
720 0 0 -80z m0 -320 l0 -80 -720 0 -720 0 0 80 0 80 720 0 720 0 0 -80z"/>
<path d="M2080 4480 l0 -80 960 0 960 0 0 80 0 80 -960 0 -960 0 0 -80z"/>
<path d="M1365 2466 c-367 -71 -647 -354 -711 -718 -59 -339 96 -696 384 -882
509 -330 1175 -70 1335 519 29 107 30 316 3 419 -87 328 -316 559 -641 648
-92 25 -276 32 -370 14z m51 -408 l104 -102 104 102 c142 141 130 142 313 -41
183 -183 182 -171 41 -313 l-102 -104 102 -104 c141 -142 142 -130 -41 -313
-183 -183 -171 -182 -313 -41 l-104 102 -104 -102 c-142 -141 -130 -142 -313
41 -183 183 -182 171 -41 313 l102 104 -102 104 c-141 142 -142 130 41 313
183 183 171 182 313 41z"/>
<path d="M1215 1900 l-59 -60 102 -103 c136 -139 136 -135 0 -274 l-102 -104
62 -61 61 -62 104 102 c90 88 109 102 137 102 28 0 47 -14 137 -102 l104 -102
61 62 62 61 -102 104 c-136 139 -136 135 0 274 l102 104 -62 61 -61 62 -104
-102 c-138 -136 -136 -136 -272 -2 -55 55 -103 100 -106 100 -2 0 -31 -27 -64
-60z"/>
<path d="M4000 538 l0 -183 180 180 c99 99 180 181 180 182 0 2 -81 3 -180 3
l-180 0 0 -182z"/>
</g>
</svg>
