<?xml version="1.0" standalone="no"?>
<!DOCTYPE svg PUBLIC "-//W3C//DTD SVG 20010904//EN"
 "http://www.w3.org/TR/2001/REC-SVG-20010904/DTD/svg10.dtd">
<svg version="1.0" xmlns="http://www.w3.org/2000/svg"
 width="512.000000pt" height="512.000000pt" viewBox="0 0 512.000000 512.000000"
 preserveAspectRatio="xMidYMid meet">

<g transform="translate(0.000000,512.000000) scale(0.100000,-0.100000)"
fill="#000000" stroke="none">
<path d="M818 4687 l-3 -244 -27 -41 c-48 -71 -66 -76 -293 -82 l-200 -5 0
-1763 0 -1764 24 -19 c23 -18 57 -19 1267 -19 684 0 1244 2 1244 5 0 2 -7 22
-15 42 -36 92 -56 202 -62 335 l-6 138 -206 2 -205 3 -15 26 c-13 24 -13 29 2
53 l17 26 214 0 213 0 18 68 c10 37 31 99 47 137 15 39 28 71 28 72 0 2 -477
4 -1061 5 -1037 3 -1061 3 -1075 22 -19 27 -18 52 6 76 20 20 34 20 1113 20
l1092 1 45 60 c120 162 320 303 523 370 l67 22 0 1333 0 1333 -22 15 c-20 14
-167 16 -1375 16 l-1352 0 -3 -243z m854 -480 c416 -304 568 -420 573 -437 3
-11 1 -28 -4 -39 -9 -16 -595 -456 -668 -502 -16 -10 -29 -11 -50 -3 -28 9
-28 10 -33 119 l-5 110 -313 5 c-263 4 -314 7 -322 20 -6 8 -10 129 -10 274 0
228 2 262 17 278 15 17 38 18 325 18 l308 0 0 102 c0 107 11 138 51 138 9 0
68 -37 131 -83z m692 -713 c13 -12 16 -38 16 -120 l0 -104 307 0 c271 0 309
-2 325 -17 17 -15 18 -37 18 -276 0 -228 -2 -263 -17 -279 -15 -17 -38 -18
-325 -18 l-308 0 0 -102 c0 -108 -11 -138 -52 -138 -11 0 -144 92 -296 204
-440 324 -407 297 -407 331 0 27 13 40 115 116 368 276 567 419 587 419 12 0
29 -7 37 -16z m-1186 -1336 c17 -17 15 -58 -5 -80 -15 -16 -35 -18 -220 -18
-190 0 -204 1 -223 20 -24 24 -26 53 -4 74 13 14 48 16 228 16 151 0 215 -3
224 -12z m1914 -5 c24 -21 23 -48 -2 -73 -20 -20 -33 -20 -875 -20 -842 0
-855 0 -875 20 -24 24 -25 47 -3 72 15 17 56 18 876 18 787 0 862 -1 879 -17z
m-930 -790 c22 -20 23 -56 2 -77 -14 -14 -92 -16 -716 -16 -639 0 -703 1 -720
17 -22 20 -23 42 -2 71 l15 22 701 0 c639 0 703 -1 720 -17z"/>
<path d="M1600 4046 c0 -112 20 -106 -343 -106 l-307 0 0 -185 0 -185 308 0
c361 0 339 7 344 -108 l3 -72 65 49 c36 26 145 108 244 180 149 111 176 135
165 146 -8 7 -119 90 -246 184 l-233 171 0 -74z"/>
<path d="M2026 3162 c-132 -97 -240 -181 -239 -187 1 -5 108 -89 239 -187
l239 -176 5 79 c3 56 10 83 20 89 9 6 147 10 323 10 l307 0 0 185 0 185 -308
0 c-361 0 -339 -7 -344 107 l-3 72 -239 -177z"/>
<path d="M526 4625 l-166 -195 150 0 c202 0 190 -14 190 215 0 96 -2 175 -4
175 -2 0 -78 -88 -170 -195z"/>
<path d="M3690 3421 l0 -1159 145 0 145 1 0 1134 0 1134 -25 24 c-23 24 -30
25 -145 25 l-120 0 0 -1159z"/>
<path d="M3665 2136 c-200 -39 -372 -131 -515 -275 -330 -333 -380 -834 -123
-1231 131 -200 332 -343 581 -412 111 -31 363 -31 474 0 385 106 649 388 729
777 7 33 12 112 12 175 0 163 -30 292 -99 433 -131 264 -343 436 -639 519 -92
25 -321 33 -420 14z m212 -291 c18 -13 23 -27 25 -76 l3 -60 52 -18 c128 -43
203 -140 203 -260 0 -53 -13 -71 -49 -71 -33 0 -61 27 -61 61 0 97 -85 170
-200 171 -72 1 -119 -15 -158 -55 -79 -82 -68 -212 24 -264 21 -12 88 -34 147
-48 59 -14 124 -32 144 -40 104 -43 153 -122 153 -244 0 -107 -15 -147 -81
-213 -46 -46 -68 -60 -118 -75 l-61 -18 0 -62 c0 -53 -3 -64 -22 -77 -54 -38
-88 -7 -88 79 l0 63 -37 7 c-90 16 -185 100 -211 185 -25 83 -24 108 2 135 30
30 36 31 70 4 17 -13 26 -30 26 -49 0 -99 85 -170 202 -170 140 1 222 85 205
210 -6 50 -37 93 -80 113 -18 9 -87 30 -152 47 -179 45 -228 75 -265 162 -25
58 -30 182 -10 233 31 82 99 144 193 176 l52 18 3 60 c2 49 7 63 25 76 12 8
26 15 32 15 6 0 20 -7 32 -15z"/>
<path d="M700 540 c0 -158 -157 -140 1200 -140 l1161 0 -49 59 c-27 32 -67 86
-88 120 l-39 61 -1092 0 -1093 0 0 -100z"/>
</g>
</svg>
