<?xml version="1.0" standalone="no"?>
<!DOCTYPE svg PUBLIC "-//W3C//DTD SVG 20010904//EN"
 "http://www.w3.org/TR/2001/REC-SVG-20010904/DTD/svg10.dtd">
<svg version="1.0" xmlns="http://www.w3.org/2000/svg"
 width="512.000000pt" height="512.000000pt" viewBox="0 0 512.000000 512.000000"
 preserveAspectRatio="xMidYMid meet">

<g transform="translate(0.000000,512.000000) scale(0.100000,-0.100000)"
fill="#000000" stroke="none">
<path d="M1400 4680 c-19 -19 -20 -33 -20 -540 0 -507 1 -521 20 -540 19 -19
33 -20 440 -20 407 0 421 1 440 20 19 19 20 33 20 540 0 507 -1 521 -20 540
-19 19 -33 20 -440 20 -407 0 -421 -1 -440 -20z m640 -360 c11 -11 20 -29 20
-40 0 -11 -9 -29 -20 -40 -19 -19 -33 -20 -200 -20 -167 0 -181 1 -200 20 -11
11 -20 29 -20 40 0 11 9 29 20 40 19 19 33 20 200 20 167 0 181 -1 200 -20z
m0 -400 c11 -11 20 -29 20 -40 0 -11 -9 -29 -20 -40 -19 -19 -33 -20 -200 -20
-167 0 -181 1 -200 20 -11 11 -20 29 -20 40 0 11 9 29 20 40 19 19 33 20 200
20 167 0 181 -1 200 -20z"/>
<path d="M865 4123 c-45 -23 -96 -74 -113 -113 -13 -29 -22 -218 -52 -1085
-21 -577 -35 -1053 -33 -1057 2 -5 281 -8 618 -8 l615 0 4 23 c2 12 11 69 20
126 36 229 157 496 302 668 24 28 44 54 44 57 0 3 -29 6 -65 6 -96 0 -105 12
-105 140 0 136 4 140 140 140 128 0 140 -9 140 -105 0 -36 3 -65 6 -65 3 0 29
20 57 44 158 134 406 251 627 296 199 41 435 37 620 -9 41 -11 76 -18 78 -16
8 7 -20 754 -30 803 -11 62 -58 121 -119 153 -36 18 -65 19 -619 19 l-580 0 0
-280 0 -280 83 0 c69 0 87 -3 100 -18 21 -23 22 -52 3 -78 -14 -19 -34 -19
-766 -19 -732 0 -752 0 -766 19 -19 27 -18 60 4 79 14 13 38 17 100 17 l82 0
0 280 0 280 -182 0 c-147 -1 -189 -4 -213 -17z m535 -1123 c17 -17 20 -33 20
-120 0 -87 -3 -103 -20 -120 -17 -17 -33 -20 -120 -20 -136 0 -140 4 -140 140
0 136 4 140 140 140 87 0 103 -3 120 -20z m480 0 c17 -17 20 -33 20 -120 0
-87 -3 -103 -20 -120 -17 -17 -33 -20 -120 -20 -87 0 -103 3 -120 20 -17 17
-20 33 -20 120 0 136 4 140 140 140 87 0 103 -3 120 -20z m-480 -480 c17 -17
20 -33 20 -120 0 -87 -3 -103 -20 -120 -17 -17 -33 -20 -120 -20 -136 0 -140
4 -140 140 0 136 4 140 140 140 87 0 103 -3 120 -20z m480 0 c17 -17 20 -33
20 -120 0 -87 -3 -103 -20 -120 -17 -17 -33 -20 -120 -20 -87 0 -103 3 -120
20 -17 17 -20 33 -20 120 0 87 3 103 20 120 17 17 33 20 120 20 87 0 103 -3
120 -20z"/>
<path d="M3185 3089 c-296 -40 -561 -173 -775 -388 -190 -191 -306 -411 -367
-692 -25 -117 -25 -381 0 -498 61 -283 178 -503 372 -696 193 -194 414 -312
696 -372 117 -25 381 -25 499 0 277 59 501 179 695 372 194 193 311 413 372
696 25 117 25 381 0 499 -59 277 -179 501 -372 695 -190 191 -420 314 -690
370 -95 20 -332 28 -430 14z m217 -486 c14 -12 18 -31 18 -77 l0 -62 70 -11
c90 -14 165 -52 228 -117 55 -56 102 -135 102 -172 0 -28 -33 -64 -57 -64 -28
1 -48 21 -70 70 -25 56 -82 113 -142 142 -38 19 -66 23 -169 26 -153 5 -200
-2 -251 -36 -86 -58 -124 -150 -101 -250 10 -46 21 -64 64 -106 50 -50 55 -52
290 -131 267 -90 316 -116 377 -204 47 -69 59 -110 59 -199 0 -189 -140 -336
-332 -350 l-68 -5 0 -58 c0 -64 -21 -99 -60 -99 -39 0 -60 35 -60 99 l0 58
-58 7 c-76 9 -170 54 -232 112 -51 47 -110 149 -110 189 0 31 33 57 67 53 23
-2 34 -14 60 -63 42 -79 106 -137 177 -159 45 -14 83 -17 194 -14 134 3 140 4
188 33 30 19 60 49 79 79 26 43 30 59 30 120 0 60 -4 79 -28 119 -15 26 -45
58 -65 72 -20 13 -136 58 -257 98 -122 41 -239 84 -261 95 -57 29 -119 95
-151 160 -24 50 -28 69 -28 147 0 82 3 97 33 157 56 115 164 187 294 196 l68
5 0 58 c0 46 5 64 20 79 24 24 57 26 82 3z"/>
<path d="M501 1722 c-19 -9 -44 -30 -55 -45 -20 -27 -21 -41 -21 -277 0 -236
1 -250 21 -277 11 -15 36 -36 55 -45 31 -17 91 -18 806 -18 l772 0 -44 93
c-71 152 -117 327 -130 500 l-7 87 -682 0 c-629 0 -684 -1 -715 -18z"/>
</g>
</svg>
