<?xml version="1.0" standalone="no"?>
<!DOCTYPE svg PUBLIC "-//W3C//DTD SVG 20010904//EN"
 "http://www.w3.org/TR/2001/REC-SVG-20010904/DTD/svg10.dtd">
<svg version="1.0" xmlns="http://www.w3.org/2000/svg"
 width="512.000000pt" height="512.000000pt" viewBox="0 0 512.000000 512.000000"
 preserveAspectRatio="xMidYMid meet">
<metadata>
Created by potrace 1.16, written by Peter Selinger 2001-2019
</metadata>
<g transform="translate(0.000000,512.000000) scale(0.100000,-0.100000)"
fill="#000000" stroke="none">
<path d="M3642 4923 c-8 -3 -52 -57 -98 -120 -47 -62 -99 -123 -117 -134 -18
-11 -84 -36 -147 -56 -163 -51 -160 -46 -160 -213 0 -170 -6 -189 -105 -324
-100 -138 -100 -141 5 -286 43 -61 84 -128 90 -148 5 -20 10 -96 10 -167 0
-101 3 -136 15 -152 11 -15 55 -35 146 -65 154 -49 176 -66 277 -208 89 -124
90 -124 253 -71 69 23 143 41 165 41 21 0 96 -18 168 -41 79 -25 138 -38 153
-34 15 3 54 46 109 121 47 63 99 124 117 134 18 11 87 38 153 60 67 23 129 49
137 58 12 13 16 51 19 167 5 173 3 170 117 329 39 54 71 107 71 118 0 26 -13
49 -85 148 -99 136 -99 134 -103 307 -4 139 -6 153 -26 171 -11 11 -77 38
-146 61 -69 23 -136 50 -149 60 -13 10 -61 67 -105 127 -53 71 -91 112 -108
118 -23 8 -53 2 -158 -32 -71 -23 -145 -42 -162 -42 -18 0 -89 18 -158 40
-121 39 -150 44 -178 33z m210 -568 c48 -34 98 -119 98 -169 0 -98 -74 -193
-168 -216 -166 -39 -315 140 -243 295 20 43 59 83 106 109 21 12 49 15 97 13
55 -2 75 -8 110 -32z m441 15 c33 -26 41 -53 26 -82 -6 -13 -138 -196 -292
-406 -172 -236 -289 -387 -304 -393 -45 -17 -93 18 -93 66 0 27 50 101 280
416 155 211 290 392 301 402 28 22 50 22 82 -3z m-12 -471 c86 -26 149 -113
149 -205 -1 -154 -158 -258 -295 -195 -140 64 -174 225 -71 337 60 66 134 87
217 63z"/>
<path d="M2238 4647 c-47 -18 -132 -81 -156 -115 l-19 -27 150 -317 150 -318
213 0 214 0 0 60 c0 78 11 103 104 230 l76 104 0 132 0 132 -132 4 -133 4
-150 58 c-166 63 -251 77 -317 53z"/>
<path d="M2259 3705 c-56 -30 -62 -119 -13 -166 l26 -24 349 -3 349 -3 0 49
c0 41 -6 58 -41 105 l-40 57 -302 0 c-241 -1 -307 -4 -328 -15z"/>
<path d="M2400 3337 c-243 -83 -463 -310 -639 -657 -89 -174 -167 -404 -195
-571 l-6 -36 94 -7 c134 -9 270 -46 400 -109 123 -60 165 -89 393 -275 192
-156 232 -183 336 -232 145 -67 178 -72 517 -80 337 -7 350 -9 447 -76 28 -19
63 -53 78 -74 l28 -40 41 23 c69 37 160 135 201 216 54 108 76 204 82 362 12
289 -60 590 -212 894 -93 184 -75 171 -185 140 -101 -30 -134 -28 -208 7 -34
16 -62 45 -126 132 -45 61 -89 116 -97 122 -8 7 -66 28 -129 48 -69 21 -132
48 -157 66 -41 30 -93 115 -93 152 0 17 -16 18 -252 18 -235 0 -258 -2 -318
-23z m515 -507 c11 -13 20 -41 23 -75 3 -39 9 -55 19 -55 26 0 112 -50 149
-86 105 -105 113 -274 14 -274 -39 0 -68 30 -76 79 -14 91 -79 141 -180 141
-136 0 -218 -101 -174 -214 14 -38 45 -53 186 -89 195 -50 271 -101 305 -204
16 -49 7 -170 -16 -218 -29 -59 -106 -130 -167 -153 l-53 -20 -7 -53 c-11 -88
-73 -125 -123 -74 -20 19 -25 34 -25 74 0 48 -1 50 -37 61 -122 38 -221 160
-223 273 -1 101 129 119 145 19 16 -93 56 -135 146 -154 73 -15 131 2 181 52
36 35 38 41 38 100 0 91 -22 108 -187 149 -150 37 -203 60 -255 114 -64 67
-85 182 -51 283 23 68 110 154 183 181 l55 21 5 57 c4 40 11 61 25 71 28 21
79 17 100 -6z"/>
<path d="M80 1055 l0 -865 255 0 255 0 0 865 0 865 -255 0 -255 0 0 -865z"/>
<path d="M1420 1914 c-80 -14 -127 -31 -231 -79 -143 -67 -215 -85 -346 -85
l-103 0 0 -694 0 -693 93 -6 c105 -7 162 -22 297 -79 167 -71 141 -69 725 -75
520 -6 816 3 949 28 68 12 2126 722 2161 745 14 9 37 37 52 61 22 38 25 52 21
112 -4 80 -34 128 -98 161 -75 38 -101 32 -585 -135 -246 -85 -449 -155 -450
-155 -1 0 -5 -29 -7 -65 -13 -150 -126 -279 -283 -319 -86 -23 -1331 -24
-1374 -1 -47 24 -56 78 -18 113 23 21 23 21 693 24 l670 3 48 25 c28 15 61 43
80 68 29 41 31 50 31 126 0 73 -3 87 -27 124 -15 22 -49 54 -75 69 l-48 28
-305 6 c-348 7 -399 15 -568 95 -116 54 -178 97 -398 277 -317 257 -449 316
-734 322 -80 2 -156 2 -170 -1z"/>
<path d="M4359 1578 c-56 -21 -57 -22 -73 -80 -9 -33 -34 -95 -56 -139 -22
-43 -36 -79 -32 -79 5 0 105 33 223 74 l214 74 -1 37 c-2 40 -24 77 -67 109
-40 30 -136 32 -208 4z"/>
</g>
</svg>
