<?xml version="1.0" standalone="no"?>
<!DOCTYPE svg PUBLIC "-//W3C//DTD SVG 20010904//EN"
 "http://www.w3.org/TR/2001/REC-SVG-20010904/DTD/svg10.dtd">
<svg version="1.0" xmlns="http://www.w3.org/2000/svg"
 width="512.000000pt" height="512.000000pt" viewBox="0 0 512.000000 512.000000"
 preserveAspectRatio="xMidYMid meet">

<g transform="translate(0.000000,512.000000) scale(0.100000,-0.100000)"
fill="#000000" stroke="none">
<path d="M197 4776 c-68 -18 -126 -64 -161 -127 l-31 -54 0 -1685 c0 -1655 0
-1686 20 -1725 25 -50 80 -105 130 -130 39 -20 76 -20 2385 -23 2645 -2 2413
-10 2500 77 87 87 81 -72 78 1816 l-3 1670 -22 41 c-30 56 -79 103 -133 128
l-45 21 -2335 2 c-1886 1 -2344 -1 -2383 -11z m4697 -228 c14 -20 16 -164 16
-1345 l0 -1323 -2350 0 -2350 0 0 1323 c0 1181 2 1325 16 1345 l15 22 2319 0
2319 0 15 -22z m-2256 -2932 c135 -70 135 -252 0 -322 -15 -8 -50 -14 -78 -14
-57 0 -93 15 -132 57 -106 112 -26 293 130 293 29 0 65 -6 80 -14z"/>
<path d="M1050 4290 c-19 -19 -20 -31 -20 -313 0 -272 1 -295 18 -310 16 -15
53 -17 315 -17 l297 0 16 25 c14 22 15 35 5 100 -21 143 -67 240 -160 339
-103 108 -236 174 -388 190 -54 6 -65 4 -83 -14z"/>
<path d="M2892 4121 c-494 -473 -505 -485 -497 -512 9 -30 22 -39 55 -38 19 0
99 71 335 299 170 165 313 299 317 298 4 -2 145 -167 314 -368 169 -201 312
-368 318 -372 6 -4 20 -8 31 -8 26 0 697 473 706 497 10 28 -7 62 -35 69 -21
5 -71 -26 -313 -197 -158 -111 -302 -213 -319 -225 l-30 -23 -299 357 c-335
398 -347 412 -370 412 -9 0 -105 -85 -213 -189z"/>
<path d="M811 4239 c-141 -70 -258 -210 -307 -366 -8 -26 -17 -86 -20 -133
-24 -356 274 -657 631 -638 160 9 317 84 421 202 43 49 124 194 124 222 0 12
-50 14 -293 14 -161 0 -307 4 -326 10 -46 13 -99 65 -111 110 -5 19 -10 166
-10 328 0 242 -2 292 -14 292 -7 0 -50 -18 -95 -41z"/>
<path d="M2945 3678 c-11 -6 -28 -20 -37 -32 -16 -19 -18 -73 -18 -728 l0
-706 31 -31 31 -31 153 0 153 0 31 31 31 31 0 699 c0 760 1 742 -55 767 -33
15 -292 16 -320 0z"/>
<path d="M4262 3455 c-62 -27 -62 -23 -62 -650 0 -483 2 -570 15 -595 28 -55
45 -60 208 -60 l149 0 34 34 34 34 0 581 c0 638 1 624 -60 656 -40 21 -270 21
-318 0z"/>
<path d="M2281 3126 c-50 -28 -50 -32 -51 -478 0 -303 3 -424 12 -443 21 -47
53 -55 213 -55 l147 0 29 29 29 29 0 432 c0 277 -4 438 -10 451 -22 40 -61 49
-207 49 -95 -1 -145 -5 -162 -14z"/>
<path d="M3591 3124 c-49 -35 -51 -54 -51 -479 0 -425 2 -444 51 -479 32 -22
295 -24 338 -2 50 26 51 36 51 487 l0 421 -34 34 -34 34 -149 0 c-121 0 -153
-3 -172 -16z"/>
<path d="M496 2864 c-19 -18 -20 -38 -6 -65 10 -18 28 -19 590 -19 l580 0 16
25 c15 23 15 27 0 50 l-16 25 -575 0 c-508 0 -575 -2 -589 -16z"/>
<path d="M502 2554 c-12 -8 -22 -26 -22 -39 0 -55 -5 -55 607 -55 550 0 563 0
583 20 11 11 20 27 20 35 0 8 -9 24 -20 35 -20 20 -33 20 -583 20 -493 0 -565
-2 -585 -16z"/>
<path d="M496 2234 c-9 -8 -16 -24 -16 -34 0 -10 7 -26 16 -34 14 -14 81 -16
589 -16 l575 0 16 25 c15 23 15 27 0 50 l-16 25 -575 0 c-508 0 -575 -2 -589
-16z"/>
<path d="M2516 1509 c-19 -15 -26 -30 -26 -54 0 -36 36 -75 70 -75 34 0 70 39
70 75 0 36 -36 75 -70 75 -10 0 -29 -9 -44 -21z"/>
<path d="M1930 810 l0 -110 -154 0 c-109 0 -165 -4 -195 -15 -107 -37 -194
-137 -194 -221 0 -53 24 -91 74 -116 32 -17 105 -18 1099 -18 994 0 1067 1
1099 18 49 25 74 63 74 114 0 77 -65 162 -159 209 -45 22 -63 24 -216 27
l-168 3 0 110 0 109 -630 0 -630 0 0 -110z"/>
</g>
</svg>
