<?xml version="1.0" standalone="no"?>
<!DOCTYPE svg PUBLIC "-//W3C//DTD SVG 20010904//EN"
 "http://www.w3.org/TR/2001/REC-SVG-20010904/DTD/svg10.dtd">
<svg version="1.0" xmlns="http://www.w3.org/2000/svg"
 width="512.000000pt" height="512.000000pt" viewBox="0 0 512.000000 512.000000"
 preserveAspectRatio="xMidYMid meet">

<g transform="translate(0.000000,512.000000) scale(0.100000,-0.100000)"
fill="#000000" stroke="none">
<path d="M2906 4618 c-90 -20 -150 -103 -145 -201 l3 -52 -85 -11 c-320 -43
-645 -178 -914 -382 -88 -67 -258 -235 -329 -327 -132 -169 -244 -377 -306
-566 -31 -96 -74 -298 -85 -401 l-6 -58 -131 0 -130 0 7 -32 c11 -50 35 -96
68 -129 55 -55 81 -63 231 -69 l139 -5 -44 -24 c-100 -55 -305 -215 -462 -362
l-69 -64 384 -390 385 -390 137 83 138 82 786 0 787 0 535 535 535 534 311 3
311 3 49 30 c54 34 99 98 110 158 l6 37 -130 0 -130 0 -7 63 c-68 647 -459
1204 -1050 1492 -183 90 -388 152 -583 179 l-84 11 -1 72 c-2 63 -5 76 -33
110 -49 61 -123 88 -198 71z m893 -2304 c-133 -89 -309 -223 -496 -376 l-133
-108 -377 0 -378 0 -55 26 c-55 25 -160 100 -235 167 l-40 36 372 1 c364 0
373 1 436 23 36 13 86 36 113 52 63 37 153 128 195 199 l34 56 339 0 340 0
-115 -76z"/>
<path d="M225 1750 l-230 -230 510 -510 c280 -281 514 -510 520 -510 6 0 112
102 238 228 l227 227 -513 513 c-281 281 -514 512 -517 512 -3 0 -109 -104
-235 -230z"/>
</g>
</svg>
