<?xml version="1.0" standalone="no"?>
<!DOCTYPE svg PUBLIC "-//W3C//DTD SVG 20010904//EN"
 "http://www.w3.org/TR/2001/REC-SVG-20010904/DTD/svg10.dtd">
<svg version="1.0" xmlns="http://www.w3.org/2000/svg"
 width="512.000000pt" height="512.000000pt" viewBox="0 0 512.000000 512.000000"
 preserveAspectRatio="xMidYMid meet">

<g transform="translate(0.000000,512.000000) scale(0.100000,-0.100000)"
fill="#000000" stroke="none">
<path d="M3860 4965 c-563 -89 -971 -619 -910 -1181 80 -747 866 -1196 1537
-879 123 58 192 105 287 195 261 247 383 589 335 936 -84 605 -648 1024 -1249
929z m210 -283 c17 -14 23 -32 27 -85 4 -43 10 -67 18 -67 6 0 39 -14 72 -30
111 -55 187 -165 199 -287 6 -57 5 -63 -19 -87 -54 -54 -121 -20 -133 66 -8
59 -39 113 -87 152 -34 27 -47 31 -110 34 -60 2 -78 -1 -112 -20 -138 -80
-140 -281 -3 -358 23 -13 70 -26 114 -31 157 -20 256 -84 316 -207 30 -61 33
-75 33 -157 -1 -71 -5 -100 -23 -139 -44 -96 -131 -176 -223 -205 -37 -12 -37
-12 -41 -78 -4 -57 -8 -69 -32 -89 -35 -31 -71 -30 -101 1 -21 21 -25 33 -25
89 l0 64 -62 30 c-112 52 -185 147 -207 269 -17 90 7 133 72 133 44 0 69 -31
78 -95 15 -109 98 -185 201 -185 123 0 208 84 208 205 0 122 -74 195 -213 209
-108 11 -173 40 -243 110 -78 78 -106 147 -107 258 -1 69 3 84 36 152 48 97
115 154 220 189 14 5 17 18 17 65 0 75 25 112 75 112 18 0 43 -8 55 -18z"/>
<path d="M736 4043 c-3 -60 -9 -741 -12 -1515 l-7 -1408 991 -2 c936 -3 992
-4 1009 -21 16 -16 19 -46 24 -290 6 -290 6 -293 64 -408 39 -75 145 -178 225
-217 97 -48 205 -67 300 -54 42 6 102 21 133 32 114 43 231 153 284 267 53
115 53 107 53 1213 l0 1026 -96 27 c-53 15 -132 43 -176 62 -176 76 -382 243
-492 397 l-47 67 -483 3 c-522 3 -506 2 -527 57 -13 33 5 75 37 90 17 8 156
11 454 11 l429 0 -30 82 c-58 157 -72 239 -73 408 -1 85 3 183 7 218 l9 62
-1035 0 -1035 0 -6 -107z m831 -498 c63 -19 134 -80 162 -140 45 -96 16 -235
-62 -301 -150 -127 -388 -64 -441 117 -26 86 -17 144 32 217 35 53 74 82 136
104 63 22 108 22 173 3z m38 -783 c51 -26 110 -87 130 -134 24 -60 20 -155
-11 -217 -84 -167 -332 -191 -454 -44 -40 49 -64 132 -56 191 13 94 86 183
179 219 47 19 164 10 212 -15z m1674 -176 c32 -29 29 -88 -5 -115 -26 -21 -35
-21 -636 -21 l-610 0 -29 29 c-16 16 -29 38 -29 48 0 25 27 62 54 73 11 5 294
8 627 7 581 -2 608 -3 628 -21z m-1699 -581 c104 -37 170 -130 170 -242 0 -77
-19 -125 -68 -176 -52 -55 -106 -79 -183 -85 -106 -7 -202 44 -252 136 -36 66
-43 125 -24 193 43 146 208 227 357 174z m1700 -195 c27 -27 26 -77 -2 -107
l-21 -23 -613 0 c-337 0 -620 3 -629 6 -24 10 -46 60 -39 89 14 57 -5 55 666
55 605 0 618 0 638 -20z"/>
<path d="M1425 3388 c-35 -19 -55 -52 -55 -91 0 -55 52 -107 106 -107 108 0
161 105 90 176 -28 28 -41 34 -77 34 -24 0 -53 -6 -64 -12z"/>
<path d="M1434 2626 c-69 -31 -87 -115 -35 -166 36 -37 72 -46 122 -31 85 26
105 138 34 185 -34 22 -86 28 -121 12z"/>
<path d="M1423 1850 c-39 -23 -53 -48 -53 -93 0 -108 166 -142 216 -45 28 55
5 120 -51 144 -46 19 -74 18 -112 -6z"/>
<path d="M0 778 c0 -207 12 -276 62 -371 65 -121 176 -215 307 -260 l66 -22
1199 -3 1198 -3 -66 72 c-72 78 -134 190 -162 294 -11 42 -18 122 -21 268 l-5
207 -1289 0 -1289 0 0 -182z"/>
</g>
</svg>
