<?xml version="1.0" standalone="no"?>
<!DOCTYPE svg PUBLIC "-//W3C//DTD SVG 20010904//EN"
 "http://www.w3.org/TR/2001/REC-SVG-20010904/DTD/svg10.dtd">
<svg version="1.0" xmlns="http://www.w3.org/2000/svg"
 width="512.000000pt" height="512.000000pt" viewBox="0 0 512.000000 512.000000"
 preserveAspectRatio="xMidYMid meet">

<g transform="translate(0.000000,512.000000) scale(0.100000,-0.100000)"
fill="#000000" stroke="none">
<path d="M1472 4630 c-100 -61 -96 -204 8 -264 35 -21 44 -21 1080 -21 1036 0
1045 0 1080 21 104 60 108 203 8 264 -32 20 -53 20 -1088 20 -1035 0 -1056 0
-1088 -20z"/>
<path d="M998 4569 c-162 -24 -323 -143 -396 -293 -57 -117 -57 -118 -57 -666
l0 -505 77 -3 77 -3 3 518 3 518 33 67 c38 78 106 144 190 185 52 25 69 28
187 31 l130 4 0 79 0 79 -95 -1 c-52 -1 -121 -5 -152 -10z"/>
<path d="M3875 4502 l0 -80 130 -4 c115 -4 137 -7 188 -31 74 -34 160 -119
195 -194 l27 -58 3 -518 3 -518 77 3 77 3 3 460 c2 279 -1 491 -8 540 -19 150
-111 297 -237 381 -93 62 -176 85 -327 91 l-131 6 0 -81z"/>
<path d="M1190 4010 c-27 -27 -33 -56 -29 -154 6 -129 0 -126 235 -126 l193 0
20 26 c18 23 21 41 21 126 0 92 -2 101 -25 123 -24 25 -26 25 -210 25 -171 0
-187 -2 -205 -20z"/>
<path d="M3260 3955 l0 -75 385 0 385 0 0 75 0 75 -385 0 -385 0 0 -75z"/>
<path d="M2350 3783 c-93 -61 -163 -168 -176 -269 -3 -30 -7 -54 -8 -54 0 0
-23 7 -50 15 -61 19 -125 20 -132 2 -2 -7 3 -33 12 -57 10 -30 18 -93 21 -183
l6 -137 155 2 155 3 12 40 c30 102 108 210 199 276 l39 29 -48 21 c-48 21
-122 23 -182 4 -20 -6 -23 -4 -23 19 0 48 27 92 89 146 51 45 61 58 61 86 0
61 -74 93 -130 57z"/>
<path d="M3220 3650 c-22 -44 -40 -83 -40 -88 0 -4 26 -13 58 -20 73 -16 160
-51 232 -96 l58 -36 326 0 c213 0 326 3 326 10 0 6 -34 78 -75 160 l-75 150
-385 0 -385 0 -40 -80z"/>
<path d="M1048 3532 c-96 -103 -111 -139 -116 -299 l-4 -133 466 0 466 0 0
120 c0 161 -17 206 -115 308 l-72 75 -42 -16 c-56 -23 -404 -24 -466 -2 -22 8
-43 15 -46 15 -4 0 -35 -31 -71 -68z"/>
<path d="M2842 3390 c-133 -35 -255 -116 -314 -209 -55 -88 -97 -81 497 -81
594 0 552 -7 497 81 -63 98 -177 173 -320 210 -100 25 -260 25 -360 -1z"/>
<path d="M3660 3252 c0 -4 4 -12 9 -17 5 -6 18 -37 29 -70 l21 -60 235 -3 236
-2 0 80 0 80 -265 0 c-146 0 -265 -4 -265 -8z"/>
<path d="M330 2941 c-108 -33 -170 -115 -170 -226 0 -94 42 -163 125 -208 l40
-22 2235 0 2235 0 41 22 c80 43 124 116 124 208 0 94 -42 163 -125 208 l-40
22 -2220 2 c-1221 1 -2231 -2 -2245 -6z"/>
<path d="M520 2318 c0 -7 127 -426 282 -930 l282 -918 1476 0 1476 0 282 918
c155 505 282 924 282 930 0 9 -486 12 -2040 12 -1611 0 -2040 -3 -2040 -12z
m1454 -389 c13 -7 30 -25 37 -42 11 -26 10 -34 -7 -62 -10 -18 -158 -207 -329
-419 -212 -265 -317 -389 -334 -393 -55 -14 -111 37 -98 88 8 30 631 809 660
826 28 15 40 16 71 2z m481 -14 c50 -50 49 -52 -281 -466 -168 -211 -319 -396
-335 -411 -36 -34 -74 -36 -106 -6 -52 49 -50 52 301 491 179 223 330 407 338
410 30 12 60 6 83 -18z m463 5 c32 -30 38 -65 16 -98 -29 -44 -614 -775 -636
-794 -44 -38 -112 -11 -124 48 -6 29 16 59 317 435 177 222 330 409 338 416
24 19 65 15 89 -7z m466 -1 c19 -15 26 -30 26 -55 0 -29 -39 -82 -301 -411
-166 -208 -315 -393 -332 -410 -37 -40 -79 -44 -114 -11 -52 49 -50 52 301
491 179 223 330 407 338 410 27 11 56 6 82 -14z m466 1 c26 -26 34 -63 20 -91
-7 -12 -154 -199 -327 -416 -214 -267 -323 -395 -339 -399 -13 -3 -35 -3 -49
0 -30 8 -59 59 -49 89 7 22 625 802 653 824 24 19 69 15 91 -7z"/>
</g>
</svg>
