<?xml version="1.0" standalone="no"?>
<!DOCTYPE svg PUBLIC "-//W3C//DTD SVG 20010904//EN"
 "http://www.w3.org/TR/2001/REC-SVG-20010904/DTD/svg10.dtd">
<svg version="1.0" xmlns="http://www.w3.org/2000/svg"
 width="512.000000pt" height="512.000000pt" viewBox="0 0 512.000000 512.000000"
 preserveAspectRatio="xMidYMid meet">

<g transform="translate(0.000000,512.000000) scale(0.100000,-0.100000)"
fill="#000000" stroke="none">
<path d="M288 4590 c-14 -10 -30 -32 -37 -47 -8 -21 -11 -512 -9 -1911 l3
-1884 33 -29 32 -29 1323 0 1322 0 0 147 c0 111 4 162 17 203 16 51 16 60 2
105 -21 70 -29 235 -15 325 15 98 61 191 127 258 l53 52 -38 63 c-175 291
-194 663 -47 972 58 123 115 205 203 294 l73 73 0 214 0 213 -382 3 -383 3
-57 28 c-62 30 -116 87 -145 153 -16 35 -18 81 -21 427 l-3 387 -1013 0 c-992
0 -1014 0 -1038 -20z m545 -265 c11 -7 24 -29 31 -49 8 -24 28 -45 61 -68 61
-40 106 -106 112 -162 4 -34 1 -46 -21 -68 -46 -51 -122 -32 -151 38 -20 49
-71 70 -119 50 -97 -40 -62 -175 46 -177 89 -1 177 -56 223 -140 26 -47 30
-64 30 -129 0 -58 -6 -85 -23 -117 -26 -51 -82 -107 -122 -123 -22 -9 -30 -19
-30 -37 0 -36 -51 -83 -90 -83 -38 0 -90 47 -90 82 0 17 -11 28 -41 42 -70 34
-129 118 -129 185 0 74 90 112 145 61 14 -13 25 -29 25 -35 0 -7 12 -24 26
-39 39 -38 93 -36 128 5 33 39 33 79 1 117 -20 24 -35 30 -80 36 -75 9 -122
29 -168 74 -132 127 -108 336 48 427 30 18 44 34 48 55 9 44 41 70 85 70 20 0
45 -7 55 -15z m1214 -7 c32 -30 32 -90 -2 -123 l-24 -25 -354 0 c-341 0 -354
1 -375 20 -12 11 -25 32 -28 45 -7 30 12 81 35 95 9 5 166 10 370 10 351 0
355 0 378 -22z m-3 -457 c35 -33 36 -92 1 -126 l-24 -25 -355 0 -354 0 -26 31
c-14 17 -26 39 -26 50 0 37 29 78 63 88 18 6 175 9 364 8 l331 -2 26 -24z
m820 -460 c35 -33 36 -92 1 -126 l-24 -25 -761 0 -762 0 -29 29 c-31 31 -35
53 -19 96 21 55 10 55 822 52 l746 -2 26 -24z m-415 -457 c41 -34 44 -92 6
-129 l-24 -25 -931 0 -932 0 -29 29 c-45 46 -33 118 25 141 11 5 434 9 938 9
l916 1 31 -26z m-300 -375 c52 -18 61 -50 61 -208 0 -135 -1 -140 -26 -170
-48 -57 -136 -33 -151 40 -6 30 -7 29 -168 -130 -130 -130 -167 -161 -189
-161 -17 0 -100 43 -222 116 -108 64 -201 117 -209 118 -7 0 -97 -93 -200
-209 -225 -255 -226 -255 -274 -255 -59 0 -103 59 -82 111 13 33 466 541 497
557 14 8 37 11 49 8 13 -3 113 -60 222 -126 l198 -120 124 127 c121 126 123
128 93 131 -41 4 -82 47 -82 84 0 77 42 97 206 98 67 0 135 -5 153 -11z m-12
-603 l28 -24 3 -406 3 -406 80 0 c74 0 82 -2 104 -26 27 -29 32 -72 14 -106
-26 -48 -20 -48 -926 -48 -787 0 -850 1 -883 18 -57 28 -66 97 -18 142 18 16
35 20 99 20 l78 0 3 170 c3 169 3 170 30 197 38 38 92 37 124 -1 23 -26 24
-33 24 -197 l0 -170 123 3 122 3 2 335 c2 223 7 342 14 356 12 24 49 44 79 44
10 0 32 -12 49 -26 l31 -26 2 -341 3 -342 123 -3 122 -3 0 265 0 264 31 26
c33 28 53 32 94 16 49 -19 55 -55 55 -325 l0 -245 120 0 120 0 0 404 0 403 26
27 c35 34 83 35 121 2z"/>
<path d="M2520 4206 c0 -355 3 -371 65 -400 29 -14 78 -16 349 -14 l316 3
-365 365 -365 365 0 -319z"/>
<path d="M3885 3240 c-325 -49 -603 -280 -704 -586 -76 -227 -60 -456 46 -669
44 -89 131 -203 196 -257 l51 -43 -75 -6 c-117 -10 -199 -63 -243 -159 -18
-39 -21 -64 -21 -180 0 -133 1 -136 31 -190 l31 -55 -31 -55 c-31 -54 -31 -57
-31 -195 0 -136 1 -141 29 -193 34 -61 85 -106 146 -127 64 -23 1325 -22 1391
0 62 21 109 63 144 126 29 53 30 57 30 194 0 138 0 141 -31 194 l-30 54 30 56
c30 55 31 59 31 196 0 138 0 141 -31 195 -50 90 -140 140 -252 140 l-53 0 75
74 c119 117 195 248 239 411 30 113 30 306 -1 421 -102 382 -423 643 -811 659
-53 2 -123 0 -156 -5z m183 -373 c12 -11 22 -30 22 -42 0 -14 16 -32 53 -55
58 -39 117 -125 117 -173 0 -18 -10 -39 -29 -58 -49 -49 -112 -34 -148 34 -34
67 -94 78 -138 25 -47 -55 -17 -122 58 -133 86 -12 128 -29 171 -66 62 -55 90
-117 90 -199 0 -91 -38 -160 -117 -213 -41 -28 -57 -45 -57 -61 0 -34 -44 -70
-87 -70 -26 0 -42 7 -59 28 -13 15 -24 35 -24 45 0 11 -22 33 -54 54 -59 39
-103 102 -113 161 -5 30 -1 40 25 66 50 50 113 36 149 -33 21 -42 41 -56 78
-56 34 0 56 14 73 46 32 60 -5 108 -94 122 -106 16 -184 73 -222 160 -22 52
-20 146 5 202 23 52 80 111 123 129 21 9 30 19 30 35 0 12 9 34 20 48 32 40
86 42 128 4z m-548 -1527 l0 -160 -65 0 c-76 0 -121 19 -135 56 -6 14 -10 66
-10 115 0 87 1 92 29 120 27 27 35 29 105 29 l76 0 0 -160z m398 3 l-3 -158
-105 0 -105 0 -3 158 -3 157 111 0 111 0 -3 -157z m392 -3 l0 -161 -107 3
-108 3 -3 158 -3 157 111 0 110 0 0 -160z m361 131 c28 -28 29 -33 29 -126 0
-53 -5 -105 -10 -116 -18 -32 -64 -49 -135 -49 l-65 0 0 160 0 160 76 0 c70 0
78 -2 105 -29z m-1151 -626 l0 -155 -77 0 c-115 1 -133 22 -133 155 0 86 15
137 42 148 7 3 48 6 91 6 l77 1 0 -155z m400 0 l0 -155 -110 0 -110 0 0 155 0
155 110 0 110 0 0 -155z m390 0 l0 -155 -110 0 -110 0 0 155 0 155 110 0 110
0 0 -155z m345 149 c31 -12 45 -60 45 -149 0 -133 -18 -154 -132 -155 l-78 0
0 155 0 155 74 0 c41 0 82 -3 91 -6z"/>
</g>
</svg>
