<?xml version="1.0" standalone="no"?>
<!DOCTYPE svg PUBLIC "-//W3C//DTD SVG 20010904//EN"
 "http://www.w3.org/TR/2001/REC-SVG-20010904/DTD/svg10.dtd">
<svg version="1.0" xmlns="http://www.w3.org/2000/svg"
 width="512.000000pt" height="512.000000pt" viewBox="0 0 512.000000 512.000000"
 preserveAspectRatio="xMidYMid meet">

<g transform="translate(0.000000,512.000000) scale(0.100000,-0.100000)"
fill="#000000" stroke="none">
<path d="M3120 4465 l0 -175 -160 -80 -160 -80 0 -145 0 -145 720 0 720 0 0
145 0 145 -160 80 -160 80 0 175 0 175 -400 0 -400 0 0 -175z"/>
<path d="M960 4480 l0 -80 -120 0 -120 0 0 -80 0 -80 120 0 120 0 0 -370 c0
-329 -2 -370 -16 -370 -27 0 -119 -101 -132 -146 -26 -90 -6 -174 60 -241 174
-177 468 0 396 239 -14 48 -76 121 -118 138 l-30 12 0 369 0 369 360 0 360 0
0 -164 0 -164 -34 -6 c-67 -13 -171 -74 -228 -134 -187 -196 -182 -491 11
-675 195 -186 491 -180 674 12 182 191 182 472 -1 663 -57 60 -161 121 -228
134 l-34 6 0 164 0 164 200 0 200 0 0 80 0 80 -200 0 -200 0 0 80 0 80 -80 0
-80 0 0 -80 0 -80 -360 0 -360 0 0 80 0 80 -80 0 -80 0 0 -80z"/>
<path d="M3120 2760 l0 -120 -1320 0 -1320 0 0 -80 0 -80 40 0 40 0 0 -1000 0
-1000 2000 0 2000 0 0 1000 0 1000 40 0 40 0 0 80 0 80 -360 0 -360 0 0 120 0
120 -160 0 -160 0 0 -80 0 -80 80 0 80 0 0 -40 0 -40 -240 0 -240 0 0 40 0 40
80 0 80 0 0 80 0 80 -160 0 -160 0 0 -120z m524 -479 c26 -27 31 -39 31 -81 0
-43 -5 -54 -33 -82 -28 -28 -39 -33 -82 -33 -43 0 -54 5 -82 33 -28 28 -33 39
-33 81 0 52 25 92 70 112 37 16 96 3 129 -30z m400 0 c26 -27 31 -39 31 -81 0
-43 -5 -54 -33 -82 -28 -28 -39 -33 -82 -33 -43 0 -54 5 -82 33 -28 28 -33 39
-33 81 0 52 25 92 70 112 37 16 96 3 129 -30z m-1484 -761 l0 -720 -840 0
-840 0 0 720 0 720 840 0 840 0 0 -720z m1680 -120 l0 -520 -720 0 -720 0 0
520 0 520 720 0 720 0 0 -520z"/>
<path d="M1040 1840 l0 -240 680 0 680 0 0 240 0 240 -680 0 -680 0 0 -240z
m800 0 l0 -80 -160 0 -160 0 0 80 0 80 160 0 160 0 0 -80z"/>
<path d="M1040 1200 l0 -240 680 0 680 0 0 240 0 240 -680 0 -680 0 0 -240z
m800 0 l0 -80 -160 0 -160 0 0 80 0 80 160 0 160 0 0 -80z"/>
<path d="M2960 1400 l0 -360 560 0 560 0 0 360 0 360 -560 0 -560 0 0 -360z
m720 200 l0 -80 -160 0 -160 0 0 80 0 80 160 0 160 0 0 -80z"/>
</g>
</svg>
