<?xml version="1.0" standalone="no"?>
<!DOCTYPE svg PUBLIC "-//W3C//DTD SVG 20010904//EN"
 "http://www.w3.org/TR/2001/REC-SVG-20010904/DTD/svg10.dtd">
<svg version="1.0" xmlns="http://www.w3.org/2000/svg"
 width="512.000000pt" height="512.000000pt" viewBox="0 0 512.000000 512.000000"
 preserveAspectRatio="xMidYMid meet">

<g transform="translate(0.000000,512.000000) scale(0.100000,-0.100000)"
fill="#000000" stroke="none">
<path d="M2380 4704 c-410 -50 -693 -148 -990 -342 -519 -339 -856 -861 -957
-1483 -23 -144 -23 -494 0 -638 161 -988 940 -1725 1926 -1821 992 -97 1929
516 2240 1465 179 547 141 1103 -109 1620 -304 626 -907 1071 -1600 1180 -100
16 -435 28 -510 19z m992 -879 c416 -88 603 -581 353 -930 -59 -82 -657 -673
-723 -715 -91 -56 -175 -82 -287 -87 -122 -6 -208 12 -305 63 -69 36 -180 127
-180 147 0 6 39 51 87 99 102 102 118 107 187 54 57 -44 106 -59 181 -59 112
0 127 11 478 361 175 174 328 335 340 357 30 54 32 202 3 255 -26 49 -84 108
-131 133 -54 30 -202 31 -255 3 -19 -10 -103 -86 -186 -168 l-151 -150 -74 25
c-82 28 -180 47 -249 47 l-45 0 205 206 c113 113 234 227 269 254 137 103 313
142 483 105z m-788 -811 c33 -9 91 -31 127 -50 68 -36 179 -127 179 -147 0 -6
-39 -51 -87 -99 -102 -102 -118 -107 -187 -54 -57 43 -106 60 -176 60 -115 1
-124 -6 -478 -358 -178 -176 -333 -339 -345 -361 -31 -58 -31 -202 0 -260 25
-47 84 -105 133 -131 49 -27 200 -27 250 0 19 10 103 86 186 168 l151 150 78
-26 c85 -29 177 -46 245 -46 l45 0 -215 -216 c-270 -270 -351 -326 -515 -355
-286 -50 -575 124 -666 402 -20 62 -24 93 -23 189 0 97 4 126 26 187 45 127
96 187 445 533 301 299 334 329 403 363 41 20 100 43 130 51 74 20 218 20 294
0z"/>
</g>
</svg>
