<?xml version="1.0" standalone="no"?>
<!DOCTYPE svg PUBLIC "-//W3C//DTD SVG 20010904//EN"
 "http://www.w3.org/TR/2001/REC-SVG-20010904/DTD/svg10.dtd">
<svg version="1.0" xmlns="http://www.w3.org/2000/svg"
 width="512.000000pt" height="512.000000pt" viewBox="0 0 512.000000 512.000000"
 preserveAspectRatio="xMidYMid meet">

<g transform="translate(0.000000,512.000000) scale(0.100000,-0.100000)"
fill="#000000" stroke="none">
<path d="M2455 4759 c-781 -87 -1426 -161 -1432 -164 -10 -3 -13 -444 -13
-2155 0 -1903 2 -2154 15 -2180 33 -64 -73 -60 1550 -58 l1475 3 32 33 33 32
0 2130 0 2130 -31 31 c-23 23 -44 33 -78 36 l-46 6 0 146 c0 161 -4 172 -54
170 -17 -1 -670 -73 -1451 -160z m1425 -44 l0 -115 -1037 1 -1038 1 995 113
c547 62 1014 113 1038 114 l42 1 0 -115z m-2228 -652 c17 -15 18 -41 18 -422
0 -352 2 -410 16 -429 16 -24 44 -28 75 -12 18 10 19 26 19 413 0 443 1 450
57 455 63 6 63 5 63 -450 0 -392 1 -408 19 -418 28 -14 52 -12 73 7 17 15 18
42 18 424 0 443 0 439 55 439 55 0 55 4 55 -441 0 -396 1 -410 20 -429 24 -24
38 -25 68 -4 l22 15 0 415 c0 401 1 415 20 434 24 24 53 26 74 4 14 -14 16
-79 16 -563 l0 -547 -26 -51 c-41 -84 -111 -135 -216 -157 -35 -8 -35 80 -2
-948 l26 -826 -23 -44 c-27 -48 -92 -88 -144 -88 -46 1 -109 34 -136 71 -19
27 -25 49 -27 109 -2 41 8 444 22 894 15 451 24 821 22 824 -3 2 -26 8 -52 13
-60 11 -134 59 -169 108 -54 79 -55 90 -55 658 0 510 1 524 20 543 24 24 47
25 72 3z m1675 -18 c137 -67 263 -252 316 -465 73 -292 32 -560 -107 -701 -50
-51 -142 -104 -199 -114 -21 -4 -41 -13 -43 -19 -2 -6 9 -402 24 -881 19 -580
26 -882 19 -905 -5 -19 -26 -51 -46 -71 -63 -64 -153 -65 -221 -2 -23 20 -44
50 -49 71 -7 24 -3 275 14 796 13 419 25 814 27 880 l3 118 -55 17 c-220 69
-330 246 -330 530 0 367 171 690 405 768 65 21 173 11 242 -22z m307 -3388 c8
-12 8 -22 0 -35 -11 -16 -74 -17 -1069 -20 -773 -1 -1061 1 -1071 9 -17 14
-18 41 -2 57 9 9 256 12 1071 10 997 -3 1060 -4 1071 -21z"/>
</g>
</svg>
