<?xml version="1.0" standalone="no"?>
<!DOCTYPE svg PUBLIC "-//W3C//DTD SVG 20010904//EN"
 "http://www.w3.org/TR/2001/REC-SVG-20010904/DTD/svg10.dtd">
<svg version="1.0" xmlns="http://www.w3.org/2000/svg"
 width="512.000000pt" height="512.000000pt" viewBox="0 0 512.000000 512.000000"
 preserveAspectRatio="xMidYMid meet">

<g transform="translate(0.000000,512.000000) scale(0.100000,-0.100000)"
fill="#000000" stroke="none">
<path d="M4147 5020 c-281 -71 -480 -289 -542 -592 l-5 -28 -160 0 -160 0 0
-80 0 -80 160 0 c120 0 161 -3 164 -12 2 -7 10 -44 20 -83 61 -259 289 -478
550 -527 l66 -13 0 -922 0 -923 80 0 80 0 0 925 0 925 24 0 c38 0 155 39 226
76 137 70 239 174 310 319 141 285 88 601 -139 825 -140 138 -283 199 -481
206 -91 3 -131 0 -193 -16z m490 -462 l53 -53 -267 -267 -268 -268 -107 107
-108 108 57 57 57 58 53 -52 53 -53 208 208 c114 114 209 207 212 207 2 0 28
-24 57 -52z"/>
<path d="M1065 4855 c-25 -24 -25 -26 -25 -213 0 -172 2 -192 19 -213 l19 -24
592 -3 591 -2 30 29 29 29 0 177 c0 183 -8 224 -45 239 -9 3 -280 6 -601 6
l-585 0 -24 -25z"/>
<path d="M372 4694 c-56 -28 -92 -67 -117 -127 -13 -32 -15 -244 -15 -1849 0
-1737 1 -1815 19 -1853 25 -55 100 -120 156 -134 31 -8 343 -11 1054 -11
l1011 0 0 80 0 80 -989 2 c-986 3 -990 3 -1018 24 -15 11 -38 36 -51 54 l-22
33 0 1727 0 1727 23 34 c12 18 38 44 56 56 32 22 43 23 217 23 l184 0 0 80 0
80 -228 0 c-226 0 -229 0 -280 -26z"/>
<path d="M2480 4641 l0 -80 189 -3 c216 -3 227 -7 269 -88 l22 -44 0 -1173 0
-1173 80 0 80 0 -2 1233 -3 1232 -22 40 c-12 22 -36 54 -55 72 -58 56 -95 63
-339 63 l-219 0 0 -79z"/>
<path d="M560 2720 l0 -1680 960 0 960 0 0 520 0 520 160 0 160 0 0 1160 0
1160 -167 -1 -168 0 -30 -47 c-18 -27 -50 -59 -79 -77 l-49 -30 -626 0 -626 0
-41 22 c-44 23 -114 97 -114 120 0 10 -36 13 -170 13 l-170 0 0 -1680z m839
1331 l23 -18 -268 -357 -267 -357 -114 113 -113 113 57 57 57 58 49 -48 c42
-41 50 -45 60 -31 7 9 102 135 211 282 l200 266 40 -30 c23 -16 52 -38 65 -48z
m1241 -51 l0 -80 -520 0 -520 0 0 80 0 80 520 0 520 0 0 -80z m-320 -320 l0
-80 -360 0 -360 0 0 80 0 80 360 0 360 0 0 -80z m320 0 l0 -80 -80 0 -80 0 0
80 0 80 80 0 80 0 0 -80z m0 -320 l0 -80 -520 0 -520 0 0 80 0 80 520 0 520 0
0 -80z m-1241 -269 l23 -18 -268 -357 -267 -357 -114 113 -113 113 57 57 57
58 49 -48 c42 -41 50 -45 60 -31 7 9 102 135 211 282 l200 266 40 -30 c23 -16
52 -38 65 -48z m1241 -51 l0 -80 -520 0 -520 0 0 80 0 80 520 0 520 0 0 -80z
m-320 -320 l0 -80 -360 0 -360 0 0 80 0 80 360 0 360 0 0 -80z m320 0 l0 -80
-80 0 -80 0 0 80 0 80 80 0 80 0 0 -80z m0 -320 l0 -80 -520 0 -520 0 0 80 0
80 520 0 520 0 0 -80z m-320 -480 l0 -80 -240 0 -240 0 0 80 0 80 240 0 240 0
0 -80z m-720 -320 l0 -320 -400 0 -400 0 0 320 0 320 400 0 400 0 0 -320z
m720 0 l0 -80 -240 0 -240 0 0 80 0 80 240 0 240 0 0 -80z m0 -320 l0 -80
-240 0 -240 0 0 80 0 80 240 0 240 0 0 -80z"/>
<path d="M2640 1360 l0 -560 640 0 640 0 0 560 0 560 -160 0 -160 0 0 -160 0
-160 -320 0 -320 0 0 160 0 160 -160 0 -160 0 0 -560z"/>
<path d="M3120 1840 l0 -80 160 0 160 0 0 80 0 80 -160 0 -160 0 0 -80z"/>
<path d="M4080 1200 l0 -400 400 0 400 0 0 267 0 266 -100 134 -100 133 -300
0 -300 0 0 -400z"/>
<path d="M2640 586 c0 -79 20 -99 103 -104 l65 -4 11 35 c7 20 28 56 47 81
l35 46 -131 0 -130 0 0 -54z"/>
<path d="M3360 603 c18 -20 41 -56 52 -80 l19 -43 329 0 328 0 12 34 c6 19 27
55 46 80 l35 46 -427 0 -426 0 32 -37z"/>
<path d="M4640 603 c18 -20 41 -56 52 -80 l19 -43 55 0 c48 0 60 4 85 29 24
25 29 37 29 80 l0 51 -136 0 -136 0 32 -37z"/>
<path d="M3040 538 c-51 -35 -80 -83 -80 -135 0 -167 223 -222 298 -73 12 24
22 56 22 70 0 36 -40 110 -72 134 -16 11 -49 21 -80 24 -44 3 -59 0 -88 -20z"/>
<path d="M4320 538 c-51 -35 -80 -83 -80 -135 0 -167 223 -222 298 -73 12 24
22 56 22 70 0 36 -40 110 -72 134 -16 11 -49 21 -80 24 -44 3 -59 0 -88 -20z"/>
</g>
</svg>
