<?xml version="1.0" standalone="no"?>
<!DOCTYPE svg PUBLIC "-//W3C//DTD SVG 20010904//EN"
 "http://www.w3.org/TR/2001/REC-SVG-20010904/DTD/svg10.dtd">
<svg version="1.0" xmlns="http://www.w3.org/2000/svg"
 width="512.000000pt" height="512.000000pt" viewBox="0 0 512.000000 512.000000"
 preserveAspectRatio="xMidYMid meet">

<g transform="translate(0.000000,512.000000) scale(0.100000,-0.100000)"
fill="#000000" stroke="none">
<path d="M3226 4551 c-319 -137 -594 -260 -611 -274 -18 -14 -36 -42 -43 -65
-15 -49 -16 -774 -2 -937 44 -498 206 -854 537 -1176 149 -145 341 -290 558
-420 174 -105 176 -105 348 -2 588 354 910 735 1037 1230 57 226 70 385 69
878 -1 440 -2 451 -60 496 -50 39 -1180 519 -1221 519 -20 -1 -251 -94 -612
-249z m1160 -730 c60 -27 89 -73 89 -141 0 -42 -6 -63 -25 -90 -75 -106 -661
-828 -686 -844 -15 -11 -49 -21 -74 -23 -86 -7 -104 11 -304 309 -196 293
-207 317 -171 392 29 60 78 91 145 91 80 0 107 -24 229 -208 l103 -156 262
327 c145 180 273 332 287 339 58 28 90 29 145 4z"/>
<path d="M223 3821 c-72 -24 -127 -65 -163 -119 -57 -86 -60 -112 -60 -484 l0
-338 1154 0 1154 0 -14 63 c-33 161 -46 310 -51 600 l-5 297 -982 0 c-918 -1
-984 -2 -1033 -19z"/>
<path d="M2 1403 l3 -838 26 -56 c15 -31 43 -73 64 -94 21 -21 63 -49 94 -64
l56 -26 2315 0 2315 0 56 26 c71 33 125 87 158 158 l26 56 3 838 c1 460 -1
837 -5 837 -5 0 -24 -24 -43 -53 -96 -143 -300 -356 -469 -491 -188 -150 -512
-357 -614 -393 -71 -25 -223 -25 -294 0 -60 21 -235 124 -389 228 -260 176
-517 414 -659 611 l-70 97 -1288 1 -1287 0 2 -837z m1524 171 c44 -32 66 -68
71 -116 7 -58 -15 -108 -63 -144 l-37 -29 -351 -3 c-193 -2 -366 0 -384 3 -46
8 -108 71 -117 118 -10 52 1 101 32 138 50 58 53 59 455 56 353 -2 368 -3 394
-23z"/>
</g>
</svg>
