<?xml version="1.0" standalone="no"?>
<!DOCTYPE svg PUBLIC "-//W3C//DTD SVG 20010904//EN"
 "http://www.w3.org/TR/2001/REC-SVG-20010904/DTD/svg10.dtd">
<svg version="1.0" xmlns="http://www.w3.org/2000/svg"
 width="512.000000pt" height="512.000000pt" viewBox="0 0 512.000000 512.000000"
 preserveAspectRatio="xMidYMid meet">

<g transform="translate(0.000000,512.000000) scale(0.100000,-0.100000)"
fill="#000000" stroke="none">
<path d="M3873 4955 c-21 -9 -34 -24 -41 -47 -32 -98 -282 -1100 -282 -1127 0
-62 71 -93 120 -53 24 19 38 71 236 848 87 342 88 356 29 380 -24 10 -37 10
-62 -1z"/>
<path d="M898 4890 c-76 -80 -93 -85 -193 -50 -115 40 -140 23 -169 -109 -15
-72 -21 -84 -48 -101 -17 -10 -58 -23 -92 -29 -71 -13 -110 -37 -114 -73 -2
-14 6 -52 17 -84 12 -32 21 -76 21 -97 0 -36 -7 -46 -70 -106 -93 -89 -93
-101 0 -193 62 -61 70 -73 70 -107 0 -21 -9 -64 -20 -96 -11 -32 -20 -69 -20
-81 0 -31 34 -61 78 -69 141 -24 159 -39 182 -150 13 -64 26 -95 44 -107 20
-13 71 -8 131 12 94 33 106 29 183 -49 94 -97 108 -97 201 -1 76 80 89 83 186
50 77 -27 120 -26 139 2 9 12 23 55 32 96 22 99 40 118 134 137 131 27 144 51
99 182 -30 89 -27 99 50 173 71 69 88 98 73 126 -5 9 -39 47 -76 84 -44 45
-66 76 -66 91 0 13 11 59 25 101 18 58 22 84 15 102 -12 32 -28 40 -122 60
-94 21 -110 37 -132 139 -9 40 -23 83 -32 95 -19 28 -62 29 -139 2 -98 -34
-112 -30 -188 50 -56 59 -72 70 -100 70 -28 0 -43 -11 -99 -70z m-81 -431 c90
-56 102 -259 20 -347 -91 -97 -239 -53 -276 83 -53 193 105 356 256 264z m418
21 c4 -6 -78 -160 -182 -343 l-188 -332 -49 -3 c-27 -2 -52 0 -57 5 -7 7 337
627 371 668 14 17 95 21 105 5z m125 -266 c52 -31 73 -78 78 -170 4 -75 2 -89
-22 -136 -31 -64 -64 -89 -122 -96 -58 -6 -87 3 -129 39 -84 74 -83 265 2 341
53 48 133 57 193 22z"/>
<path d="M696 4358 c-25 -35 -22 -152 4 -178 40 -40 70 2 70 98 0 59 -19 102
-45 102 -8 0 -21 -10 -29 -22z"/>
<path d="M1246 4108 c-34 -53 -27 -166 12 -187 36 -19 62 24 62 101 0 89 -41
137 -74 86z"/>
<path d="M2476 4796 c-74 -28 -135 -111 -136 -185 0 -20 221 -642 552 -1552
l553 -1518 70 68 c69 67 188 151 233 166 17 5 22 12 19 26 -3 10 -240 666
-527 1456 -356 980 -531 1449 -549 1472 -50 65 -143 93 -215 67z"/>
<path d="M2265 4275 c-64 -170 -190 -426 -289 -583 -141 -223 -354 -478 -520
-621 -47 -41 -86 -77 -86 -79 0 -2 13 -21 29 -41 46 -58 64 -102 191 -451 109
-301 120 -337 120 -399 l0 -68 158 -6 c418 -17 876 -144 1271 -353 57 -30 105
-53 107 -52 3 4 -938 2595 -960 2643 -13 28 -15 28 -21 10z"/>
<path d="M4145 3790 c-181 -105 -336 -198 -342 -207 -23 -30 -16 -79 13 -102
15 -12 36 -21 48 -21 25 0 664 363 689 392 37 43 10 113 -48 123 -25 5 -81
-24 -360 -185z"/>
<path d="M3359 3383 c59 -164 158 -436 166 -456 7 -16 9 -17 25 -2 10 9 30 44
46 78 40 87 40 196 2 279 -48 103 -144 183 -245 203 l-33 7 39 -109z"/>
<path d="M4245 3388 c-263 -16 -314 -22 -335 -37 -44 -32 -36 -112 13 -130 13
-5 185 2 397 15 l375 23 22 26 c30 34 29 70 -2 100 -29 30 -32 30 -470 3z"/>
<path d="M3841 2974 c-27 -34 -27 -67 2 -98 67 -74 855 -788 876 -793 54 -13
106 49 85 102 -5 13 -202 202 -439 420 -403 370 -432 395 -467 395 -28 0 -42
-6 -57 -26z"/>
<path d="M1012 2925 c-23 -9 -164 -60 -313 -115 -295 -107 -327 -125 -369
-205 -45 -88 -39 -116 103 -505 l126 -345 50 -46 c55 -51 125 -76 186 -66 39
6 583 201 636 228 81 41 137 143 127 232 -9 72 -246 710 -280 751 -60 73 -176
103 -266 71z m183 -250 c31 -30 32 -69 3 -98 -27 -27 -597 -237 -642 -237 -62
0 -98 72 -59 119 20 23 600 240 646 241 17 0 38 -10 52 -25z m85 -227 c28 -31
27 -81 -4 -106 -30 -23 -602 -232 -636 -232 -58 0 -93 57 -66 109 13 25 47 39
318 139 167 61 317 111 335 112 21 0 40 -8 53 -22z m83 -227 c25 -24 25 -77 0
-102 -22 -23 -604 -239 -642 -239 -55 0 -92 78 -58 123 9 13 348 144 597 230
49 17 75 14 103 -12z"/>
<path d="M1660 1882 c0 -4 -23 -34 -51 -65 -36 -41 -70 -66 -121 -90 l-70 -33
-37 -95 c-41 -105 -99 -199 -140 -228 -39 -28 -106 -43 -157 -35 -60 9 -117
53 -154 117 l-30 54 -52 -10 c-29 -5 -59 -11 -65 -13 -18 -5 -17 -133 2 -212
15 -65 53 -147 105 -229 49 -77 73 -171 67 -261 -4 -67 -16 -104 -90 -287
l-85 -210 366 -3 c201 -1 367 0 370 2 2 3 16 67 31 143 34 167 59 219 175 363
151 186 223 343 233 508 11 192 -58 360 -216 525 -60 63 -81 78 -81 59z"/>
<path d="M4055 1714 c-79 -13 -158 -39 -240 -79 -158 -77 -272 -191 -350 -350
-56 -113 -75 -184 -82 -310 -18 -320 161 -613 459 -749 114 -53 208 -69 357
-64 216 9 358 72 516 232 148 149 213 299 222 511 4 100 2 135 -16 210 -83
346 -376 587 -731 600 -58 2 -118 1 -135 -1z m164 -230 c14 -18 21 -41 21 -69
0 -38 3 -44 32 -56 82 -34 148 -132 148 -221 0 -59 -24 -88 -74 -88 -42 0 -71
32 -80 89 -12 75 -104 117 -164 75 -90 -63 -50 -184 66 -199 158 -21 252 -119
252 -264 -1 -105 -54 -192 -143 -235 -35 -16 -37 -20 -37 -62 0 -70 -54 -111
-115 -88 -23 9 -45 57 -45 98 0 31 -5 38 -39 55 -113 58 -180 223 -116 286 13
14 36 25 50 25 31 0 75 -41 75 -71 0 -39 31 -87 67 -104 49 -24 106 -7 133 38
24 39 25 68 5 107 -19 37 -55 56 -122 63 -259 29 -321 383 -87 495 28 13 32
20 36 63 6 63 29 89 79 89 29 0 42 -6 58 -26z"/>
<path d="M1123 1591 c-40 -14 -73 -28 -73 -31 0 -3 9 -20 20 -37 23 -38 66
-45 92 -15 15 17 58 96 58 107 0 9 -22 3 -97 -24z"/>
<path d="M2443 1466 c-28 -24 -28 -26 -32 -156 -6 -235 6 -260 123 -260 l71 1
26 43 c17 27 46 55 75 72 l49 29 253 5 254 5 28 72 c25 65 56 126 98 191 l14
22 -465 0 -466 0 -28 -24z"/>
<path d="M2804 1043 c-48 -9 -59 -37 -62 -164 l-4 -119 252 0 252 0 -8 43 c-4
23 -7 88 -7 145 l1 102 -202 -1 c-110 -1 -211 -4 -222 -6z"/>
<path d="M1962 852 c-22 -37 -72 -105 -111 -152 -84 -101 -118 -155 -127 -198
l-6 -32 53 0 c188 1 350 242 269 400 -11 21 -24 41 -29 44 -5 3 -27 -25 -49
-62z"/>
<path d="M2443 576 c-28 -24 -28 -26 -32 -156 -4 -155 3 -214 30 -241 18 -18
40 -19 607 -19 l587 0 -35 27 c-118 92 -220 217 -279 341 l-35 72 -407 0 -408
0 -28 -24z"/>
</g>
</svg>
