<?xml version="1.0" standalone="no"?>
<!DOCTYPE svg PUBLIC "-//W3C//DTD SVG 20010904//EN"
 "http://www.w3.org/TR/2001/REC-SVG-20010904/DTD/svg10.dtd">
<svg version="1.0" xmlns="http://www.w3.org/2000/svg"
 width="512.000000pt" height="512.000000pt" viewBox="0 0 512.000000 512.000000"
 preserveAspectRatio="xMidYMid meet">

<g transform="translate(0.000000,512.000000) scale(0.100000,-0.100000)"
fill="#000000" stroke="none">
<path d="M2386 5109 c-223 -31 -434 -118 -618 -256 -265 -200 -442 -485 -504
-810 l-18 -93 -383 0 -382 0 -10 -37 c-6 -21 -80 -318 -166 -660 -147 -593
-155 -627 -155 -720 0 -169 43 -304 124 -400 l36 -41 0 -966 0 -966 -115 0
-115 0 0 -80 0 -80 2480 0 2480 0 0 80 0 80 -115 0 -115 0 0 419 0 418 -52 7
c-29 3 -65 6 -80 6 l-28 0 0 -115 0 -115 -695 0 -695 0 0 425 0 425 695 0 695
0 0 -235 0 -235 80 0 80 0 0 466 0 466 33 41 c88 110 117 197 124 367 l5 125
-156 625 c-87 344 -161 642 -167 663 l-10 37 -382 0 -383 0 -18 93 c-51 268
-184 516 -379 705 -41 39 -79 72 -83 71 -5 0 -30 -25 -55 -55 l-46 -56 87 -86
c181 -182 293 -408 331 -662 16 -111 6 -320 -20 -427 -73 -298 -265 -565 -513
-716 -61 -37 -63 -37 -70 -16 -5 12 -7 148 -6 302 l3 280 46 13 c102 30 184
112 230 232 31 79 38 274 15 388 -75 364 -373 519 -587 304 -104 -103 -158
-246 -166 -436 -12 -260 72 -423 248 -483 l54 -18 3 -340 2 -340 -72 -21
c-106 -31 -188 -42 -318 -42 -130 0 -212 11 -317 42 l-73 21 0 387 0 388 60
10 c112 20 182 71 226 166 23 50 24 55 24 369 l0 317 -75 0 -75 0 0 -115 0
-115 -80 0 -80 0 0 115 0 115 -75 0 -75 0 0 -115 0 -115 -80 0 -80 0 0 115 0
115 -75 0 -76 0 3 -327 c3 -303 5 -331 23 -368 43 -87 129 -146 233 -160 l52
-7 0 -349 c0 -254 -3 -349 -11 -349 -7 0 -48 24 -93 54 -263 175 -447 456
-501 763 -19 111 -19 295 0 405 64 371 309 688 659 854 139 66 264 95 432 101
87 4 174 1 225 -6 106 -16 272 -70 367 -122 41 -21 75 -39 77 -39 6 0 75 120
75 130 0 14 -172 98 -266 129 -49 16 -125 37 -169 46 -95 20 -332 28 -429 14z
m702 -863 c102 -53 182 -267 169 -446 -14 -180 -87 -263 -230 -262 -73 1 -112
13 -150 50 -120 113 -109 428 20 600 50 67 129 90 191 58z m-758 -393 c0 -77
-4 -105 -20 -139 -31 -63 -62 -74 -217 -74 -202 0 -233 28 -233 207 l0 103
235 0 235 0 0 -97z m-1106 -95 c-7 -48 -114 -1019 -114 -1035 0 -11 -70 -13
-391 -13 -367 0 -390 1 -385 18 3 9 60 235 126 502 67 267 125 502 131 523
l10 37 314 0 314 0 -5 -32z m3429 -508 l135 -540 -389 0 -388 0 -6 33 c-3 17
-28 241 -55 497 -28 256 -53 484 -56 508 l-6 42 315 0 315 0 135 -540z m-3181
-192 c116 -171 344 -370 507 -443 l44 -19 -6 -101 c-8 -154 -56 -256 -157
-330 -78 -57 -149 -78 -251 -73 -69 3 -97 10 -145 33 -73 36 -152 113 -183
180 -29 62 -46 158 -37 208 l7 37 189 0 190 0 0 80 0 80 -180 0 c-172 0 -180
1 -180 20 0 10 14 141 30 290 17 149 30 276 30 283 0 7 18 -25 40 -70 21 -45
67 -124 102 -175z m2348 -62 c17 -153 29 -280 27 -282 -2 -3 -124 -3 -272 -2
l-267 3 47 34 c154 111 316 310 402 497 15 33 28 52 30 44 1 -8 16 -140 33
-294z m-2742 -534 c-4 -72 -11 -101 -36 -154 -38 -79 -110 -149 -190 -186 -49
-22 -71 -26 -157 -26 -88 -1 -107 2 -157 26 -80 37 -152 107 -190 186 -27 54
-33 79 -36 153 l-4 89 387 0 388 0 -5 -88z m2796 35 c19 -146 -77 -306 -224
-376 -49 -23 -67 -26 -160 -26 -96 0 -110 3 -164 29 -141 70 -226 214 -226
382 l0 44 384 0 384 0 6 -53z m934 -32 c-12 -179 -116 -313 -282 -360 -222
-64 -452 89 -486 322 -5 37 -10 80 -10 96 l0 27 391 0 392 0 -5 -85z m-2438
30 c165 -26 368 -15 529 29 l54 15 -6 -74 c-20 -234 -190 -386 -416 -373 -195
12 -342 162 -358 366 l-6 81 54 -15 c30 -8 97 -21 149 -29z m-510 -1290 l0
-425 -700 0 -700 0 0 425 0 425 700 0 700 0 0 -425z m1240 -310 l0 -735 -540
0 -540 0 0 735 0 735 540 0 540 0 0 -735z"/>
<path d="M2330 935 l0 -155 75 0 75 0 0 155 0 155 -75 0 -75 0 0 -155z"/>
<path d="M2640 935 l0 -155 75 0 75 0 0 155 0 155 -75 0 -75 0 0 -155z"/>
</g>
</svg>
