<?xml version="1.0" standalone="no"?>
<!DOCTYPE svg PUBLIC "-//W3C//DTD SVG 20010904//EN"
 "http://www.w3.org/TR/2001/REC-SVG-20010904/DTD/svg10.dtd">
<svg version="1.0" xmlns="http://www.w3.org/2000/svg"
 width="512.000000pt" height="512.000000pt" viewBox="0 0 512.000000 512.000000"
 preserveAspectRatio="xMidYMid meet">

<g transform="translate(0.000000,512.000000) scale(0.100000,-0.100000)"
fill="#000000" stroke="none">
<path d="M3232 4918 c-357 -148 -413 -174 -418 -195 -12 -44 16 -64 192 -139
195 -83 181 -56 127 -234 -107 -358 -317 -764 -567 -1095 -156 -208 -411 -477
-606 -639 -136 -114 -340 -264 -471 -348 -191 -121 -632 -335 -821 -397 -85
-28 -139 -68 -175 -128 -24 -41 -28 -59 -28 -123 0 -85 14 -119 72 -175 69
-67 196 -83 319 -41 210 72 685 303 886 433 469 301 839 631 1171 1043 276
343 520 798 683 1275 l56 163 79 -34 c43 -19 115 -50 160 -69 44 -19 91 -35
103 -35 28 0 56 29 56 58 0 22 -324 818 -342 840 -6 6 -22 12 -37 12 -14 -1
-212 -78 -439 -172z"/>
<path d="M990 4985 c-8 -2 -49 -9 -90 -15 -94 -15 -239 -67 -325 -115 -272
-152 -461 -396 -542 -703 -22 -83 -26 -119 -27 -252 -1 -163 7 -219 51 -355
104 -326 371 -593 698 -698 131 -42 192 -51 345 -51 152 0 213 9 345 51 325
103 593 371 698 698 44 137 52 191 51 355 -1 133 -5 169 -27 252 -111 417
-429 725 -841 814 -65 14 -301 28 -336 19z m150 -375 c11 -11 20 -33 20 -50 0
-24 5 -31 28 -36 49 -12 122 -54 161 -93 105 -105 136 -311 46 -311 -33 0 -65
33 -65 68 0 78 -73 187 -141 211 l-29 10 0 -234 0 -235 28 -6 c94 -23 182 -96
228 -190 26 -53 29 -69 29 -154 0 -85 -3 -101 -29 -154 -46 -93 -135 -167
-228 -190 -21 -5 -27 -13 -30 -38 -2 -23 -11 -37 -30 -48 -25 -13 -31 -13 -55
0 -20 11 -29 25 -31 48 -3 25 -9 33 -30 38 -51 12 -142 67 -178 107 -47 52
-84 133 -91 201 -5 46 -2 57 16 75 43 43 101 13 101 -54 0 -73 79 -179 152
-204 l28 -10 0 234 0 235 -27 6 c-96 23 -192 103 -239 200 -25 51 -29 70 -29
144 0 71 4 94 26 141 15 31 43 74 63 96 36 40 127 95 179 107 22 5 27 12 27
36 0 34 31 70 60 70 11 0 29 -9 40 -20z"/>
<path d="M1005 4396 c-82 -36 -145 -130 -145 -216 0 -88 72 -191 152 -219 l28
-10 0 230 c0 126 -1 229 -2 229 -2 -1 -16 -7 -33 -14z"/>
<path d="M1160 3590 l0 -229 29 10 c72 25 141 133 141 219 0 86 -69 194 -141
219 l-29 10 0 -229z"/>
<path d="M4368 3978 c-9 -7 -159 -231 -334 -498 -332 -505 -342 -525 -298
-557 13 -9 58 -13 166 -13 l148 0 0 -1325 0 -1325 365 0 365 0 0 1325 0 1325
150 0 c139 0 152 2 171 21 14 14 20 30 17 47 -4 27 -655 975 -686 1000 -9 6
-23 12 -32 12 -9 0 -23 -6 -32 -12z"/>
<path d="M3076 2088 c-14 -20 -16 -124 -16 -925 l0 -903 365 0 365 0 0 905 c0
892 0 905 -20 925 -19 19 -33 20 -349 20 -330 0 -330 0 -345 -22z"/>
<path d="M2082 1504 l-22 -15 0 -615 0 -614 365 0 365 0 0 613 c0 582 -1 615
-18 630 -17 15 -55 17 -343 17 -278 0 -328 -2 -347 -16z"/>
<path d="M1086 1108 c-14 -19 -16 -78 -16 -435 l0 -413 365 0 365 0 0 415 c0
402 -1 416 -20 435 -19 19 -33 20 -349 20 -330 0 -330 0 -345 -22z"/>
<path d="M732 124 c-28 -19 -29 -57 -2 -84 20 -20 33 -20 2135 -20 2102 0
2115 0 2135 20 27 27 26 65 -2 84 -20 14 -239 16 -2133 16 -1894 0 -2113 -2
-2133 -16z"/>
</g>
</svg>
