<?xml version="1.0" standalone="no"?>
<!DOCTYPE svg PUBLIC "-//W3C//DTD SVG 20010904//EN"
 "http://www.w3.org/TR/2001/REC-SVG-20010904/DTD/svg10.dtd">
<svg version="1.0" xmlns="http://www.w3.org/2000/svg"
 width="512.000000pt" height="512.000000pt" viewBox="0 0 512.000000 512.000000"
 preserveAspectRatio="xMidYMid meet">

<g transform="translate(0.000000,512.000000) scale(0.100000,-0.100000)"
fill="#000000" stroke="none">
<path d="M2515 5111 c-39 -17 -64 -58 -151 -249 -48 -107 -92 -196 -98 -198
-6 -2 -96 -12 -201 -24 -228 -25 -256 -31 -289 -71 -28 -32 -35 -93 -16 -128
5 -10 83 -86 173 -169 l164 -151 -45 -226 c-44 -219 -45 -227 -29 -261 22 -46
72 -76 117 -71 20 3 116 50 223 111 104 58 193 106 198 106 5 0 94 -48 196
-106 109 -62 202 -108 223 -111 45 -5 95 25 117 71 16 34 15 42 -29 261 l-45
226 159 146 c87 80 165 155 173 166 35 50 10 138 -48 169 -12 6 -121 23 -242
37 l-220 26 -90 197 c-49 109 -102 209 -116 224 -28 28 -89 40 -124 25z"/>
<path d="M921 4543 c-19 -18 -55 -85 -99 -183 l-70 -155 -148 -18 c-216 -25
-214 -25 -251 -62 -28 -28 -33 -40 -33 -81 0 -52 8 -62 196 -234 l82 -75 -36
-180 c-34 -175 -35 -181 -19 -215 10 -20 30 -44 46 -53 53 -31 85 -23 247 68
84 47 157 85 162 85 5 0 77 -38 159 -85 102 -58 161 -85 182 -85 67 0 121 52
121 117 0 15 -14 99 -32 187 l-31 159 136 131 c150 144 162 166 132 230 -27
57 -51 66 -245 89 l-178 21 -72 158 c-83 181 -106 208 -176 208 -34 0 -50 -6
-73 -27z"/>
<path d="M4052 4545 c-20 -17 -53 -77 -103 -185 -48 -106 -78 -160 -89 -160
-8 0 -88 -9 -177 -19 -176 -21 -201 -31 -228 -87 -30 -64 -18 -86 132 -230
l136 -131 -31 -159 c-18 -87 -32 -172 -32 -187 0 -65 54 -117 121 -117 21 0
80 27 182 85 82 47 154 85 159 85 5 0 78 -38 162 -85 162 -91 194 -99 247 -68
16 9 36 33 46 53 16 34 15 40 -19 215 l-36 180 77 70 c42 38 104 97 139 130
58 58 62 64 62 108 0 54 -33 100 -83 116 -18 5 -102 17 -187 26 -85 9 -158 20
-161 23 -4 4 -37 75 -73 157 -78 175 -103 205 -170 205 -33 0 -52 -7 -74 -25z"/>
<path d="M2501 3503 c-42 -21 -85 -79 -99 -135 -6 -24 -20 -97 -32 -162 -55
-311 -223 -661 -426 -889 l-34 -37 0 -1125 0 -1124 53 -16 c47 -14 170 -15
1013 -13 l959 3 67 33 c77 38 130 92 167 171 35 75 37 201 4 273 l-21 46 35
34 c46 44 91 140 99 208 7 59 -14 166 -40 205 -12 18 -10 24 16 55 16 19 42
58 56 85 24 45 27 61 27 150 0 93 -2 104 -31 156 l-30 55 33 48 c123 179 53
428 -145 519 -46 22 -54 22 -655 25 -571 2 -608 4 -602 20 48 125 115 408 136
576 15 121 7 327 -17 416 -51 197 -168 344 -329 416 -67 29 -153 32 -204 7z"/>
<path d="M561 2147 c-48 -18 -108 -72 -134 -120 l-22 -42 0 -905 0 -905 22
-41 c29 -55 93 -109 146 -123 30 -9 174 -11 502 -9 l460 3 47 28 c26 15 56 40
67 56 21 29 21 35 21 991 0 956 0 962 -21 991 -11 16 -41 41 -67 56 l-47 28
-470 2 c-353 1 -478 -1 -504 -10z m403 -321 c46 -19 66 -52 66 -106 0 -84 -48
-120 -160 -120 -82 0 -123 17 -145 60 -32 61 -11 135 47 163 41 21 147 22 192
3z"/>
</g>
</svg>
