<?xml version="1.0" standalone="no"?>
<!DOCTYPE svg PUBLIC "-//W3C//DTD SVG 20010904//EN"
 "http://www.w3.org/TR/2001/REC-SVG-20010904/DTD/svg10.dtd">
<svg version="1.0" xmlns="http://www.w3.org/2000/svg"
 width="512.000000pt" height="512.000000pt" viewBox="0 0 512.000000 512.000000"
 preserveAspectRatio="xMidYMid meet">

<g transform="translate(0.000000,512.000000) scale(0.100000,-0.100000)"
fill="#000000" stroke="none">
<path d="M764 4950 c-12 -5 -29 -19 -38 -32 -15 -20 -16 -229 -16 -2360 l0
-2337 24 -28 24 -28 1802 0 1802 0 24 28 24 28 0 1990 0 1989 -287 0 c-178 0
-303 4 -328 11 -51 14 -116 81 -133 136 -8 28 -12 130 -12 327 l0 286 -1432
-1 c-788 0 -1443 -4 -1454 -9z m1176 -395 c155 -47 290 -150 378 -290 14 -21
39 -75 55 -120 29 -75 31 -89 31 -215 0 -121 -2 -143 -26 -208 -37 -103 -82
-175 -159 -251 -77 -77 -166 -133 -264 -164 -57 -18 -94 -22 -195 -22 -101 0
-138 4 -195 22 -98 31 -187 87 -264 164 -76 76 -122 148 -159 251 -24 65 -27
87 -27 203 0 109 4 141 23 200 74 223 256 388 487 441 76 17 240 12 315 -11z
m1126 -468 c23 -27 24 -35 24 -157 0 -139 -8 -171 -47 -189 -13 -6 -80 -11
-153 -11 -122 0 -130 1 -157 24 l-28 24 0 145 c0 198 0 198 203 194 133 -2
134 -2 158 -30z m965 4 c25 -31 25 -85 -1 -111 -19 -19 -33 -20 -379 -20 -327
0 -361 2 -379 18 -43 36 -33 103 18 129 19 10 107 13 373 11 l349 -3 19 -24z
m-4 -223 c30 -29 32 -87 2 -114 -20 -18 -43 -19 -371 -22 -383 -3 -387 -3
-409 55 -11 31 4 78 30 93 9 5 166 10 370 10 351 0 355 0 378 -22z m-960 -341
c15 -15 18 -40 21 -161 3 -140 3 -144 -21 -172 l-25 -29 -146 0 c-197 0 -191
-6 -191 191 l0 146 29 25 c28 24 32 24 172 21 121 -3 146 -6 161 -21z m957 2
c34 -27 36 -82 4 -116 l-21 -23 -356 0 c-264 1 -360 4 -372 13 -45 34 -46 92
-2 127 25 19 42 20 373 20 336 0 348 -1 374 -21z m6 -229 c21 -21 26 -69 10
-100 -19 -35 -63 -40 -392 -40 -256 0 -325 3 -353 15 -39 16 -59 52 -49 91 14
53 19 54 406 54 345 0 359 -1 378 -20z m-401 -380 c42 -22 43 -56 11 -213 -16
-81 -34 -156 -40 -168 -22 -40 -93 -47 -122 -12 -6 8 -14 33 -17 55 l-6 40
-249 -226 c-189 -173 -254 -226 -274 -226 -14 0 -177 65 -362 145 -185 79
-342 147 -350 150 -9 3 -150 -98 -370 -265 -369 -281 -387 -291 -432 -256 -26
19 -39 62 -28 90 13 35 767 606 800 606 14 0 182 -67 373 -149 l347 -149 235
214 236 214 -44 0 c-62 0 -97 29 -97 80 0 30 6 43 26 59 25 19 40 21 186 21
88 0 167 -4 177 -10z m180 -576 c21 -26 21 -33 21 -811 0 -787 -1 -813 -34
-835 -6 -4 -70 -8 -142 -8 -120 0 -132 2 -150 21 -18 20 -19 48 -19 819 0 771
1 799 19 819 18 19 30 21 152 21 131 0 133 0 153 -26z m-1463 -445 c18 -20 19
-47 22 -588 3 -692 23 -621 -173 -621 -132 0 -134 0 -154 26 -21 26 -21 35
-21 589 0 554 0 563 21 589 20 26 22 26 153 26 122 0 134 -2 152 -21z m725
-228 l24 -19 3 -454 c3 -561 21 -508 -173 -508 -194 0 -176 -53 -173 508 l3
454 24 19 c20 16 40 19 146 19 106 0 126 -3 146 -19z m-1455 -352 c18 -20 19
-40 19 -304 0 -353 15 -325 -169 -325 -72 0 -136 4 -142 8 -30 20 -34 55 -34
320 0 345 -13 322 174 322 122 0 134 -2 152 -21z"/>
<path d="M1705 4395 c-14 -13 -25 -35 -25 -49 0 -20 -9 -29 -42 -44 -106 -47
-162 -154 -138 -261 10 -46 21 -65 60 -102 49 -48 93 -68 200 -89 133 -26 172
-105 73 -147 -78 -32 -171 -3 -202 62 -23 49 -42 65 -78 65 -40 0 -83 -37 -83
-73 0 -37 49 -125 88 -157 20 -17 56 -37 79 -46 33 -13 43 -22 43 -39 0 -12 9
-34 21 -49 16 -20 29 -26 59 -26 30 0 43 6 59 26 12 15 21 36 21 48 0 17 11
25 53 40 68 24 131 86 147 146 25 93 -15 199 -96 250 -40 25 -73 36 -209 70
-48 11 -85 43 -85 71 0 29 42 67 84 74 65 13 82 3 166 -92 28 -33 82 -31 109
3 29 36 26 72 -8 126 -31 48 -69 80 -125 103 -28 12 -36 21 -36 41 0 35 -42
74 -80 74 -19 0 -40 -9 -55 -25z"/>
<path d="M3810 4672 c0 -258 1 -280 18 -296 17 -15 49 -16 298 -14 l279 3
-280 283 c-154 156 -288 288 -297 293 -17 9 -18 -7 -18 -269z"/>
</g>
</svg>
