<?xml version="1.0" standalone="no"?>
<!DOCTYPE svg PUBLIC "-//W3C//DTD SVG 20010904//EN"
 "http://www.w3.org/TR/2001/REC-SVG-20010904/DTD/svg10.dtd">
<svg version="1.0" xmlns="http://www.w3.org/2000/svg"
 width="512.000000pt" height="512.000000pt" viewBox="0 0 512.000000 512.000000"
 preserveAspectRatio="xMidYMid meet">

<g transform="translate(0.000000,512.000000) scale(0.100000,-0.100000)"
fill="#000000" stroke="none">
<path d="M1225 4946 c-416 -70 -750 -314 -934 -682 -90 -180 -126 -338 -126
-554 0 -268 63 -477 213 -705 59 -90 237 -268 327 -327 228 -150 437 -213 705
-213 352 0 631 116 880 365 185 185 292 382 347 640 25 118 25 362 0 480 -55
258 -162 456 -346 641 -185 185 -381 291 -636 344 -107 23 -327 28 -430 11z
m305 -190 c259 -18 546 -180 715 -404 245 -323 286 -746 110 -1107 -255 -521
-886 -736 -1410 -480 -393 192 -617 592 -583 1043 31 423 341 795 763 917 84
24 247 45 305 39 14 -2 59 -5 100 -8z"/>
<path d="M1325 4619 c-211 -17 -411 -111 -565 -268 -174 -176 -261 -390 -261
-641 0 -512 399 -911 911 -911 251 0 465 87 641 261 179 176 270 396 270 650
0 254 -91 474 -270 650 -195 193 -443 281 -726 259z m130 -104 c52 -51 22
-165 -44 -165 -43 0 -71 36 -71 92 0 85 64 125 115 73z m-512 -245 c20 -22 37
-49 37 -60 0 -27 -43 -70 -69 -70 -25 0 -90 55 -102 87 -17 45 29 98 76 86 11
-2 37 -22 58 -43z m1030 39 c32 -15 49 -52 38 -82 -12 -32 -77 -87 -102 -87
-26 0 -69 43 -69 69 0 32 62 96 107 110 1 1 13 -4 26 -10z m-518 -124 c25 -24
25 -27 25 -194 0 -165 1 -171 25 -207 14 -20 25 -43 25 -50 0 -7 45 -39 100
-71 100 -58 120 -80 111 -123 -5 -27 -34 -50 -62 -50 -15 0 -69 24 -121 53
-80 46 -99 53 -134 49 -109 -11 -171 100 -109 192 24 36 25 42 25 207 0 167 0
170 25 194 31 32 59 32 90 0z m-708 -427 c29 -27 29 -65 1 -95 -31 -33 -109
-33 -143 2 -14 13 -25 34 -25 45 0 12 11 32 25 45 33 34 108 35 142 3z m1468
-3 c14 -13 25 -33 25 -45 0 -11 -11 -32 -25 -45 -19 -20 -35 -25 -71 -25 -82
0 -122 64 -72 117 31 33 109 33 143 -2z m-1260 -500 c14 -13 25 -33 25 -44 0
-25 -55 -90 -87 -102 -49 -18 -102 35 -84 84 12 32 77 87 102 87 11 0 31 -11
44 -25z m1011 -7 c20 -17 40 -42 45 -55 18 -49 -35 -102 -84 -84 -32 12 -87
77 -87 102 0 26 43 69 69 69 11 0 37 -14 57 -32z m-509 -200 c33 -31 33 -109
-2 -143 -13 -14 -33 -25 -45 -25 -11 0 -32 11 -45 25 -20 19 -25 35 -25 71 0
82 64 122 117 72z"/>
<path d="M2941 4114 c-27 -34 -26 -47 3 -81 l24 -28 404 -5 403 -5 50 -27 c66
-35 118 -90 150 -159 l25 -56 -2 -277 -3 -276 -85 103 c-95 114 -122 128 -166
86 -43 -41 -34 -62 107 -234 72 -88 146 -175 164 -194 42 -42 77 -44 115 -5
64 65 291 351 297 372 13 52 -64 103 -104 70 -9 -7 -50 -53 -91 -103 -41 -49
-79 -91 -84 -93 -4 -2 -8 122 -8 275 0 226 -3 290 -16 334 -43 146 -159 265
-305 310 -55 17 -96 19 -459 19 l-399 0 -20 -26z"/>
<path d="M3525 2646 c-416 -70 -750 -314 -934 -682 -90 -180 -126 -338 -126
-554 0 -111 5 -179 18 -240 55 -259 162 -457 346 -640 186 -186 383 -292 641
-347 118 -25 362 -25 480 0 260 56 456 162 640 346 186 186 292 383 347 641
25 118 25 362 0 480 -55 258 -162 456 -346 641 -185 184 -382 291 -636 344
-107 23 -327 28 -430 11z m313 -537 c109 -54 164 -145 163 -269 0 -109 -67
-212 -170 -261 -65 -32 -177 -32 -243 0 -103 50 -169 151 -169 261 -1 124 54
215 163 269 50 25 73 31 128 31 55 0 78 -6 128 -31z m26 -649 c262 -67 455
-290 481 -557 9 -89 -4 -131 -55 -177 -51 -46 -100 -70 -202 -100 -264 -76
-684 -55 -879 45 -59 30 -116 86 -130 126 -13 42 -5 148 18 226 44 152 171
308 310 380 145 75 306 96 457 57z"/>
<path d="M1019 2186 c-30 -14 -318 -364 -326 -394 -13 -52 64 -103 104 -70 9
7 50 54 91 103 41 50 79 91 83 93 4 2 9 -133 11 -300 l3 -304 37 -75 c65 -132
188 -229 326 -258 33 -7 194 -11 428 -11 l375 0 24 25 c30 29 32 55 6 86 l-19
24 -399 5 -398 5 -68 33 c-48 24 -79 48 -107 83 -67 85 -71 109 -68 417 l3
272 85 -103 c95 -114 122 -128 166 -86 43 41 34 62 -107 234 -194 237 -203
245 -250 221z"/>
</g>
</svg>
