<?xml version="1.0" standalone="no"?>
<!DOCTYPE svg PUBLIC "-//W3C//DTD SVG 20010904//EN"
 "http://www.w3.org/TR/2001/REC-SVG-20010904/DTD/svg10.dtd">
<svg version="1.0" xmlns="http://www.w3.org/2000/svg"
 width="512.000000pt" height="512.000000pt" viewBox="0 0 512.000000 512.000000"
 preserveAspectRatio="xMidYMid meet">

<g transform="translate(0.000000,512.000000) scale(0.100000,-0.100000)"
fill="#000000" stroke="none">
<path d="M2443 4945 c-367 -99 -490 -548 -223 -815 60 -60 160 -116 225 -127
l35 -6 0 -168 0 -169 80 0 80 0 0 169 0 168 35 6 c63 10 167 70 226 128 234
233 171 625 -123 775 -103 52 -230 67 -335 39z m172 -110 c14 -13 25 -31 25
-39 0 -9 18 -25 40 -36 22 -11 54 -39 70 -62 51 -70 33 -141 -38 -154 -30 -6
-37 -2 -76 40 -39 43 -47 47 -81 44 -42 -3 -68 -29 -48 -49 6 -6 39 -18 73
-26 127 -29 190 -77 208 -161 16 -68 -2 -124 -53 -171 -24 -22 -54 -43 -67
-46 -13 -4 -30 -21 -38 -38 -29 -61 -111 -61 -140 -1 -9 18 -34 42 -62 57
-116 65 -135 227 -26 227 33 0 78 -33 78 -56 0 -36 95 -58 141 -34 30 16 7 47
-44 60 -98 23 -149 45 -181 76 -87 84 -67 227 40 290 24 14 44 32 44 40 0 27
47 64 80 64 19 0 40 -9 55 -25z"/>
<path d="M681 4848 c-141 -16 -294 -124 -359 -254 -42 -83 -54 -134 -53 -229
0 -266 209 -475 476 -478 90 0 176 21 244 60 l44 25 346 -346 346 -346 58 57
57 58 -346 346 -346 346 25 44 c63 109 78 267 37 389 -76 227 -285 357 -529
328z m103 -100 c15 -6 31 -26 38 -45 7 -18 18 -33 25 -33 18 0 92 -68 109
-101 33 -64 1 -129 -63 -129 -32 0 -42 7 -90 64 -26 31 -61 34 -94 7 -33 -26
-13 -47 58 -61 103 -22 168 -62 200 -123 21 -41 20 -124 -1 -165 -17 -33 -89
-92 -112 -92 -7 0 -20 -15 -29 -34 -33 -70 -121 -70 -147 -1 -7 21 -20 36 -34
39 -58 15 -126 103 -126 163 0 43 37 83 76 83 27 0 76 -35 76 -55 0 -7 12 -23
28 -35 21 -17 36 -21 65 -17 83 11 83 49 -2 73 -89 24 -138 44 -167 66 -33 26
-63 92 -64 136 0 67 51 148 111 172 16 7 29 19 29 27 0 19 54 73 74 73 8 0 26
-5 40 -12z"/>
<path d="M2379 3486 c-291 -61 -534 -248 -664 -511 -71 -145 -90 -231 -90
-415 0 -184 19 -270 90 -415 119 -240 346 -427 605 -497 123 -33 357 -33 480
0 320 86 586 351 670 667 28 103 37 287 20 392 -58 364 -331 668 -685 764
-102 27 -327 35 -426 15z m343 -161 c153 -32 270 -97 388 -215 158 -159 230
-329 230 -550 0 -193 -61 -360 -184 -506 l-39 -46 -30 56 c-68 127 -196 232
-344 283 -65 22 -95 26 -183 26 -115 0 -203 -23 -305 -79 -68 -37 -183 -156
-221 -228 l-31 -58 -39 46 c-123 146 -184 313 -184 506 0 221 72 391 230 550
117 116 235 183 384 215 81 18 245 18 328 0z"/>
<path d="M2502 3079 c-56 -11 -137 -56 -169 -94 -15 -16 -37 -54 -51 -84 -21
-46 -24 -63 -20 -135 6 -99 27 -145 98 -209 113 -102 282 -104 395 -5 73 64
98 116 103 214 4 71 1 89 -20 135 -36 77 -71 114 -141 148 -70 33 -132 43
-195 30z"/>
<path d="M4402 3039 c-171 -21 -326 -151 -387 -324 l-24 -70 -166 -3 -165 -2
0 -80 0 -80 169 0 168 0 6 -35 c11 -65 67 -165 127 -225 235 -235 626 -173
776 122 73 144 70 303 -7 449 -95 178 -287 274 -497 248z m103 -99 c14 -5 31
-23 38 -39 7 -16 35 -45 62 -63 33 -22 57 -49 73 -80 22 -42 23 -51 12 -78
-15 -36 -37 -50 -78 -50 -21 0 -39 11 -69 45 -45 50 -76 57 -113 27 -20 -17
-21 -20 -7 -34 9 -9 48 -23 86 -33 94 -23 152 -61 180 -117 47 -99 9 -202 -92
-248 -23 -11 -45 -30 -55 -51 -32 -63 -112 -59 -141 9 -8 17 -20 32 -26 32
-25 0 -95 63 -114 103 -28 57 -27 92 4 122 41 42 97 28 130 -32 12 -22 32 -40
48 -46 35 -11 96 -1 104 19 9 25 -16 42 -91 58 -137 31 -196 90 -196 198 0 69
24 115 82 153 25 17 52 43 59 60 8 16 25 35 39 42 30 15 32 15 65 3z"/>
<path d="M498 3021 c-161 -52 -296 -205 -328 -370 -41 -216 65 -429 261 -525
142 -69 285 -70 426 -1 122 59 206 154 249 283 l23 67 165 3 166 2 0 80 0 80
-169 0 -169 0 -6 35 c-22 115 -133 257 -245 315 -104 52 -264 66 -373 31z
m205 -99 c9 -8 17 -22 17 -32 0 -9 24 -31 52 -50 55 -36 98 -97 98 -138 0 -35
-43 -72 -84 -72 -28 0 -40 7 -66 40 -36 45 -63 56 -104 41 -20 -8 -27 -17 -24
-33 3 -19 15 -26 84 -43 102 -26 155 -60 183 -117 46 -96 10 -202 -84 -248
-26 -12 -50 -32 -55 -45 -11 -29 -47 -55 -76 -55 -28 0 -74 37 -74 60 0 12
-16 26 -46 40 -50 25 -99 83 -109 131 -9 42 11 85 46 100 40 16 71 1 104 -50
14 -23 36 -43 50 -47 36 -9 95 4 102 23 9 22 -17 38 -95 58 -91 22 -147 57
-172 105 -24 46 -27 129 -6 168 16 31 61 74 94 92 13 6 28 25 34 42 18 51 87
67 131 30z"/>
<path d="M3337 1783 l-57 -58 346 -346 346 -346 -25 -44 c-85 -146 -79 -355
14 -501 60 -94 176 -178 289 -208 71 -19 198 -14 270 10 277 93 410 405 286
667 -82 171 -242 274 -431 276 -90 0 -176 -21 -244 -60 l-44 -25 -346 346
-346 346 -58 -57z m1067 -655 c15 -6 31 -26 38 -45 7 -18 18 -33 25 -33 18 0
92 -68 109 -101 33 -65 0 -129 -67 -129 -28 0 -40 9 -86 64 -24 30 -68 35 -99
12 -33 -26 -6 -49 85 -72 132 -34 192 -96 192 -200 0 -71 -34 -126 -100 -161
-24 -13 -52 -36 -62 -52 -22 -37 -54 -54 -85 -47 -28 8 -64 44 -64 66 0 9 -15
21 -35 29 -68 24 -135 132 -115 186 11 28 47 55 76 55 29 0 70 -34 78 -64 11
-45 113 -60 145 -22 18 22 -9 41 -85 60 -75 19 -131 45 -156 73 -25 27 -48 87
-48 123 0 66 52 146 111 170 16 7 29 20 29 29 1 20 19 44 45 59 26 15 38 15
69 0z"/>
<path d="M2480 1291 l0 -168 -35 -6 c-65 -11 -165 -67 -225 -127 -269 -269
-143 -719 227 -815 231 -60 485 77 569 305 63 174 17 377 -116 510 -60 60
-160 116 -225 127 l-35 6 0 168 0 169 -80 0 -80 0 0 -169z m135 -286 c14 -13
25 -30 25 -37 0 -7 18 -23 40 -36 105 -60 133 -181 50 -211 -40 -14 -69 -2
-104 43 -23 30 -33 36 -65 36 -41 0 -67 -20 -58 -44 3 -8 40 -22 84 -32 137
-33 205 -100 205 -203 0 -26 -7 -61 -15 -78 -19 -36 -71 -82 -107 -95 -14 -5
-32 -23 -40 -41 -29 -62 -111 -62 -140 0 -8 18 -27 37 -41 43 -33 14 -86 65
-104 99 -36 71 -10 141 54 141 45 0 60 -9 81 -50 21 -42 36 -50 85 -50 46 0
65 9 65 31 0 23 -23 36 -92 50 -101 22 -178 81 -193 149 -18 81 28 180 99 214
20 9 36 24 36 32 0 26 47 64 80 64 19 0 40 -9 55 -25z"/>
</g>
</svg>
