<?xml version="1.0" standalone="no"?>
<!DOCTYPE svg PUBLIC "-//W3C//DTD SVG 20010904//EN"
 "http://www.w3.org/TR/2001/REC-SVG-20010904/DTD/svg10.dtd">
<svg version="1.0" xmlns="http://www.w3.org/2000/svg"
 width="512.000000pt" height="512.000000pt" viewBox="0 0 512.000000 512.000000"
 preserveAspectRatio="xMidYMid meet">

<g transform="translate(0.000000,512.000000) scale(0.100000,-0.100000)"
fill="#000000" stroke="none">
<path d="M1380 4954 c-500 -64 -915 -399 -1070 -862 -50 -152 -64 -242 -64
-412 0 -170 14 -260 64 -412 140 -421 507 -744 950 -839 148 -32 372 -32 519
0 620 132 1057 702 1017 1324 -21 328 -145 599 -380 833 -184 183 -374 288
-626 345 -83 19 -331 33 -410 23z m329 -361 c15 -13 33 -66 66 -186 50 -184
53 -217 28 -239 -24 -21 -438 -131 -463 -123 -28 9 -32 20 -85 218 -61 232
-68 215 107 263 13 4 20 -8 32 -53 22 -81 37 -105 69 -116 38 -12 82 7 97 44
10 24 10 40 -4 87 -24 85 -23 86 42 104 77 21 86 21 111 1z m-679 -309 c16
-16 58 -164 174 -608 l152 -588 34 -15 c19 -8 45 -23 56 -34 l22 -21 402 108
403 108 71 -24 c116 -40 156 -101 101 -155 -29 -30 -62 -32 -130 -6 l-50 18
-385 -103 c-212 -57 -387 -109 -389 -115 -2 -6 -17 -26 -33 -44 -76 -87 -221
-66 -269 39 -23 52 -23 90 0 141 l18 40 -145 563 -146 562 -130 0 c-119 0
-132 2 -153 22 -26 24 -31 74 -10 100 27 34 50 38 219 36 154 -3 169 -5 188
-24z m989 -327 c13 -17 131 -455 131 -490 0 -22 -22 -57 -36 -57 -3 0 -122
-31 -265 -70 -144 -38 -271 -70 -284 -70 -12 0 -29 8 -38 18 -15 17 -137 452
-137 490 0 31 30 48 130 76 52 14 95 24 97 22 1 -1 14 -40 27 -86 33 -113 75
-146 134 -104 39 27 42 53 20 143 -12 48 -17 86 -12 91 12 12 152 48 190 49
17 1 36 -5 43 -12z"/>
<path d="M2377 4836 c136 -100 290 -267 368 -402 l38 -64 501 0 c444 0 504 -2
524 -16 32 -22 44 -58 31 -91 -20 -54 -8 -52 -513 -53 -442 0 -468 -1 -461
-17 3 -10 16 -48 28 -85 l21 -68 707 0 708 0 20 -26 c35 -45 24 -96 -26 -122
-16 -9 -203 -12 -696 -12 l-675 0 2 -155 1 -155 410 0 c443 0 448 -1 473 -54
11 -22 11 -33 2 -57 -7 -16 -18 -33 -24 -37 -6 -4 -207 -9 -446 -12 l-434 -5
-23 -80 c-12 -44 -23 -81 -23 -82 0 -2 322 -3 715 -3 l716 0 24 -25 c33 -32
33 -78 0 -110 l-24 -25 -744 0 -745 0 -48 -87 c-27 -48 -72 -119 -100 -158
l-52 -70 587 -5 c322 -3 591 -8 597 -12 6 -4 17 -21 24 -37 9 -24 9 -35 -2
-57 -26 -55 -16 -54 -636 -51 l-574 2 -24 28 c-13 15 -24 38 -24 50 0 18 -8
14 -52 -30 -67 -64 -158 -137 -225 -180 -50 -31 -53 -36 -53 -74 0 -29 -7 -47
-25 -64 -23 -24 -30 -25 -142 -25 -93 0 -139 -5 -215 -24 -149 -38 -322 -52
-474 -37 -69 7 -132 15 -140 18 -12 4 -14 -131 -14 -1022 l0 -1027 29 -29 29
-29 1752 0 c1904 0 1792 -3 1818 55 9 20 12 484 12 1970 l0 1945 -282 0 c-167
0 -299 4 -321 11 -49 13 -105 63 -128 114 -17 36 -19 71 -19 333 l0 292 -906
0 -906 0 59 -44z m1974 -2425 c26 -32 24 -77 -6 -106 l-24 -25 -846 0 -846 0
-24 25 c-40 39 -31 95 20 124 14 7 263 10 863 8 l844 -2 19 -24z m-539 -465
c26 -19 39 -62 28 -90 -22 -58 -4 -56 -623 -56 -479 0 -572 2 -596 15 -48 24
-56 81 -16 120 l24 25 583 0 c462 -1 587 -3 600 -14z m-1587 -41 c24 -24 25
-28 25 -183 0 -146 -2 -162 -21 -186 l-20 -26 -164 0 c-90 0 -171 3 -180 6
-35 14 -45 58 -45 198 0 74 5 147 10 162 19 50 32 53 208 54 160 0 163 0 187
-25z m2119 -294 c32 -30 34 -69 5 -105 l-20 -26 -854 0 -854 0 -20 26 c-12 15
-21 36 -21 48 0 28 26 65 54 76 11 5 395 8 853 7 l831 -2 26 -24z m-528 -474
c35 -31 37 -77 4 -112 l-23 -25 -584 0 -584 0 -24 25 c-39 38 -29 106 18 125
12 5 279 9 594 9 l572 1 27 -23z m-1591 -32 c25 -24 25 -27 25 -188 0 -225 5
-221 -233 -215 -201 4 -192 -6 -192 214 l0 166 28 24 c27 23 33 24 188 24 156
0 160 -1 184 -25z m2124 -301 c41 -52 15 -117 -51 -129 -18 -3 -401 -5 -850
-3 l-816 3 -26 24 c-32 30 -34 69 -5 105 l20 26 854 0 854 0 20 -26z"/>
<path d="M4290 4596 c0 -236 2 -277 16 -290 13 -14 54 -16 290 -16 151 0 274
3 274 7 0 10 -541 552 -562 564 -17 9 -18 -6 -18 -265z"/>
</g>
</svg>
