<?xml version="1.0" standalone="no"?>
<!DOCTYPE svg PUBLIC "-//W3C//DTD SVG 20010904//EN"
 "http://www.w3.org/TR/2001/REC-SVG-20010904/DTD/svg10.dtd">
<svg version="1.0" xmlns="http://www.w3.org/2000/svg"
 width="512.000000pt" height="512.000000pt" viewBox="0 0 512.000000 512.000000"
 preserveAspectRatio="xMidYMid meet">

<g transform="translate(0.000000,512.000000) scale(0.100000,-0.100000)"
fill="#000000" stroke="none">
<path d="M3410 4490 l0 -461 -256 -422 c-141 -232 -260 -426 -264 -430 -4 -5
-50 6 -101 25 -89 31 -101 33 -229 33 -123 0 -142 -3 -210 -28 -41 -16 -84
-30 -96 -33 -17 -5 -54 50 -282 425 l-262 430 0 376 0 375 -85 0 -85 0 0 -127
c-1 -193 -17 -238 -100 -280 -38 -20 -60 -23 -160 -23 -100 0 -122 3 -160 23
-83 42 -99 87 -100 280 l0 127 -85 0 -85 0 0 -425 0 -425 362 -2 361 -3 262
-430 262 -429 -53 -63 c-65 -76 -119 -181 -144 -277 l-18 -71 -256 -3 -256 -2
0 32 c0 110 -36 138 -175 138 l-85 0 0 -175 0 -175 30 0 c39 0 87 -20 126 -53
22 -18 44 -27 68 -27 35 0 36 1 36 40 l0 40 256 -2 256 -3 18 -71 c29 -114 88
-219 176 -314 l32 -35 -254 -327 -255 -327 -55 30 c-62 32 -107 36 -159 14
-20 -8 -106 -65 -193 -127 l-157 -113 207 -3 c115 -1 301 -1 415 0 l208 3 -60
43 c-33 24 -60 47 -60 53 0 5 114 156 253 335 202 258 257 324 270 318 112
-49 158 -59 292 -59 126 0 141 2 222 31 l87 31 189 -266 189 -266 -5 -67 -4
-68 -55 0 c-47 0 -59 -4 -84 -29 -17 -18 -29 -40 -29 -56 0 -16 12 -38 29 -56
25 -25 37 -29 84 -29 l55 0 11 -50 c18 -82 60 -139 131 -175 98 -50 197 -38
279 32 47 39 91 120 91 166 0 26 1 27 59 27 48 0 65 4 85 23 38 34 39 85 1
122 -20 21 -34 25 -84 25 l-60 0 1 63 c2 97 -46 164 -132 187 l-40 11 0 100
c0 93 -2 102 -25 124 -31 32 -75 32 -112 1 -27 -23 -28 -30 -33 -128 -4 -81
-8 -103 -20 -105 -10 -2 -82 91 -198 254 l-182 257 33 35 c88 94 147 200 177
315 l18 71 431 3 431 2 0 -230 c0 -216 1 -231 20 -250 11 -11 30 -22 42 -25
13 -3 184 -5 381 -3 l359 3 24 28 24 28 0 539 0 539 -24 28 -24 28 -359 3
c-197 2 -368 0 -381 -3 -12 -3 -31 -14 -42 -25 -19 -19 -20 -34 -20 -250 l0
-230 -431 2 -431 3 -18 71 c-29 112 -87 217 -171 309 l-27 30 262 430 263 430
61 3 62 3 0 54 c0 72 30 110 86 108 56 -2 84 -37 84 -109 l0 -54 130 0 130 0
0 510 0 510 -345 0 -345 0 0 -460z m465 280 c30 -11 54 -60 47 -96 -9 -51 -44
-64 -166 -64 -121 0 -149 9 -167 56 -12 33 12 91 43 104 31 12 210 12 243 0z
m4 -345 c16 -8 31 -22 35 -30 13 -34 6 -79 -16 -102 -20 -22 -29 -23 -143 -23
-113 0 -123 2 -142 23 -11 12 -23 30 -26 39 -10 27 13 77 42 93 36 20 212 20
250 0z m875 -1556 c31 -36 33 -67 7 -101 -33 -41 -293 -208 -326 -208 -42 0
-165 124 -165 167 0 78 86 111 150 57 l31 -26 107 71 c125 83 155 89 196 40z
m-7 -414 c12 -8 24 -28 28 -43 12 -55 -7 -77 -160 -179 -186 -123 -191 -124
-281 -31 -53 55 -64 71 -64 99 1 38 14 60 47 77 35 19 60 14 97 -19 l35 -30
103 70 c110 74 152 86 195 56z"/>
<path d="M1194 4767 c-2 -7 -3 -65 -2 -128 l3 -114 85 0 85 0 0 125 0 125 -83
3 c-62 2 -84 -1 -88 -11z"/>
<path d="M2990 4355 l0 -425 125 0 125 0 0 85 c0 70 -3 85 -15 85 -9 0 -27 11
-40 25 -45 44 -26 116 38 138 14 5 17 19 17 92 0 70 -3 85 -15 85 -9 0 -27 11
-40 25 -45 44 -25 121 35 140 18 6 20 15 20 91 l0 84 -125 0 -125 0 0 -425z"/>
<path d="M4270 4695 c0 -47 4 -85 9 -85 5 0 23 -12 40 -26 24 -20 31 -34 31
-60 0 -37 -36 -84 -65 -84 -12 0 -15 -15 -15 -85 0 -81 1 -86 24 -95 32 -12
56 -48 56 -83 0 -30 -39 -77 -65 -77 -12 0 -15 -15 -15 -85 l0 -85 125 0 125
0 0 425 0 425 -125 0 -125 0 0 -85z"/>
<path d="M170 2690 l0 -300 31 0 c17 0 45 11 63 25 49 37 100 55 159 55 67 0
111 -14 159 -51 l37 -30 158 3 158 3 3 298 2 297 -385 0 -385 0 0 -300z"/>
<path d="M382 2293 c-22 -9 -44 -63 -37 -93 15 -66 97 -88 141 -36 31 36 31
80 -1 111 -23 24 -69 32 -103 18z"/>
<path d="M1053 2278 c-29 -32 -34 -53 -21 -88 15 -43 59 -65 104 -50 40 13 54
35 54 83 0 69 -91 105 -137 55z"/>
<path d="M850 595 l0 -425 600 0 600 0 0 425 0 425 -600 0 -600 0 0 -425z
m487 233 c23 -21 30 -67 17 -103 -13 -32 -59 -45 -159 -45 -111 0 -147 13
-163 60 -13 35 -8 56 21 88 19 20 29 22 141 22 109 0 122 -2 143 -22z m-5
-338 c14 -11 28 -31 30 -44 7 -36 -17 -85 -47 -96 -34 -13 -206 -13 -240 0
-34 13 -59 69 -46 104 18 47 46 56 167 56 96 0 115 -3 136 -20z m523 -12 c32
-38 29 -81 -11 -115 -23 -21 -35 -23 -130 -23 -109 0 -155 13 -168 45 -13 35
-6 76 19 100 23 24 30 25 144 25 l119 0 27 -32z"/>
<path d="M3394 666 c-97 -31 -190 -125 -219 -220 -10 -32 -15 -91 -15 -163 l0
-113 341 0 341 0 -4 127 c-3 106 -7 137 -26 177 -34 75 -84 129 -154 166 -54
29 -75 34 -143 37 -48 2 -96 -3 -121 -11z"/>
</g>
</svg>
