<?xml version="1.0" standalone="no"?>
<!DOCTYPE svg PUBLIC "-//W3C//DTD SVG 20010904//EN"
 "http://www.w3.org/TR/2001/REC-SVG-20010904/DTD/svg10.dtd">
<svg version="1.0" xmlns="http://www.w3.org/2000/svg"
 width="512.000000pt" height="512.000000pt" viewBox="0 0 512.000000 512.000000"
 preserveAspectRatio="xMidYMid meet">

<g transform="translate(0.000000,512.000000) scale(0.100000,-0.100000)"
fill="#000000" stroke="none">
<path d="M922 4953 c-21 -8 -43 -61 -36 -88 9 -38 41 -55 101 -55 l53 0 0 -88
0 -88 -32 -12 c-47 -17 -105 -68 -128 -111 -10 -21 -29 -90 -41 -154 l-23
-117 -217 0 c-119 0 -240 -5 -269 -10 -161 -31 -285 -151 -319 -308 -16 -75
-16 -2649 0 -2724 34 -157 158 -277 319 -308 29 -5 150 -10 269 -10 l217 0 23
-117 c12 -64 31 -133 41 -154 23 -43 81 -94 127 -111 l33 -12 0 -88 0 -88 -53
0 c-60 0 -92 -17 -101 -55 -7 -29 15 -79 39 -89 9 -3 277 -6 594 -6 570 0 579
0 605 21 19 15 26 30 26 54 0 49 -37 75 -106 75 l-54 0 0 85 0 85 35 14 c54
23 104 66 126 107 18 37 33 92 59 222 l11 57 339 0 339 0 11 -57 c26 -130 41
-185 59 -222 22 -41 72 -84 126 -107 l35 -14 0 -85 0 -85 -54 0 c-69 0 -106
-26 -106 -75 0 -24 7 -39 26 -54 26 -21 35 -21 605 -21 317 0 585 3 594 6 24
10 46 60 39 89 -9 38 -41 55 -101 55 l-53 0 0 88 0 88 33 12 c46 17 104 68
127 111 10 21 29 90 41 154 l23 117 217 0 c119 0 240 5 269 10 161 31 285 151
319 308 16 75 16 2649 0 2724 -34 157 -158 277 -319 308 -29 5 -150 10 -269
10 l-217 0 -23 117 c-12 64 -31 133 -41 154 -23 43 -81 94 -127 111 l-33 12 0
88 0 88 53 0 c60 0 92 17 101 55 7 29 -15 79 -39 89 -9 3 -277 6 -594 6 -570
0 -579 0 -605 -21 -19 -15 -26 -30 -26 -54 0 -49 37 -75 106 -75 l54 0 0 -85
0 -85 -35 -14 c-54 -23 -104 -66 -126 -107 -18 -37 -33 -92 -59 -221 l-11 -58
-339 0 -339 0 -11 58 c-26 129 -41 184 -59 221 -22 41 -72 84 -126 107 l-35
14 0 85 0 85 54 0 c69 0 106 26 106 75 0 24 -7 39 -26 54 -26 21 -34 21 -608
20 -319 0 -587 -3 -594 -6z m918 -228 l0 -85 -325 0 -325 0 0 85 0 85 325 0
325 0 0 -85z m2090 0 l0 -85 -325 0 -325 0 0 85 0 85 325 0 325 0 0 -85z
m-1929 -262 c20 -19 58 -154 59 -205 0 -17 -33 -18 -545 -18 l-545 0 5 23 c3
12 12 55 20 94 17 85 30 109 65 122 15 6 211 9 472 8 445 -2 448 -2 469 -24z
m2055 17 c39 -14 51 -36 69 -123 8 -39 17 -82 20 -94 5 -21 2 -23 -42 -23 -34
0 -53 -6 -70 -22 -30 -28 -31 -77 0 -106 21 -20 31 -21 387 -24 410 -3 406 -3
481 -80 73 -76 69 18 69 -1448 0 -1466 4 -1372 -69 -1448 -20 -21 -55 -47 -76
-57 -39 -20 -77 -20 -1772 -25 -1909 -6 -1755 0 -1769 -67 -5 -26 -1 -37 19
-57 l26 -26 366 0 c341 0 365 -1 365 -17 0 -10 -9 -55 -19 -101 -30 -138 14
-126 -499 -130 -280 -2 -450 0 -472 7 -44 13 -57 34 -75 124 -8 39 -17 82 -20
95 -5 20 -2 22 42 22 34 0 53 6 70 22 30 28 31 77 0 106 -21 20 -31 21 -387
24 -410 3 -406 3 -482 81 -72 74 -68 -8 -68 1447 0 1134 2 1313 15 1357 17 58
70 119 130 148 39 20 77 20 1772 25 1909 6 1755 0 1769 67 5 26 1 37 -19 57
l-26 26 -366 0 c-341 0 -365 1 -365 18 0 9 9 54 19 99 18 86 38 119 75 126 48
10 874 7 902 -3z m89 -3622 c-3 -13 -12 -56 -20 -95 -18 -90 -31 -111 -75
-124 -22 -7 -192 -9 -472 -7 -513 4 -469 -8 -499 130 -10 46 -19 91 -19 101 0
16 33 17 545 17 l545 0 -5 -22z m-2305 -463 l0 -85 -325 0 -325 0 0 85 0 85
325 0 325 0 0 -85z m2090 0 l0 -85 -325 0 -325 0 0 85 0 85 325 0 325 0 0 -85z"/>
<path d="M905 3831 c-97 -25 -168 -104 -181 -203 -19 -136 94 -258 236 -258
71 0 127 26 173 80 124 145 35 365 -155 385 -24 2 -56 0 -73 -4z m113 -177
c47 -53 10 -134 -60 -134 -86 1 -117 106 -45 151 39 24 73 18 105 -17z"/>
<path d="M4101 3829 c-166 -50 -226 -248 -114 -379 46 -54 102 -80 173 -80
210 0 314 239 171 393 -54 59 -157 88 -230 66z m106 -158 c72 -45 41 -150 -45
-151 -89 -1 -111 127 -28 160 31 13 38 12 73 -9z"/>
<path d="M1607 3670 c-205 -35 -353 -247 -317 -453 22 -126 111 -241 224 -294
55 -25 72 -28 166 -28 93 0 111 3 163 27 73 35 155 116 193 193 26 55 29 69
29 165 0 93 -3 112 -27 162 -55 117 -167 204 -293 227 -65 12 -69 12 -138 1z
m173 -167 c43 -17 75 -46 109 -98 22 -35 26 -51 26 -121 0 -72 -3 -85 -30
-129 -77 -125 -253 -154 -363 -59 -76 65 -104 156 -77 249 42 146 192 217 335
158z"/>
<path d="M3360 3666 c-122 -27 -225 -111 -278 -224 -24 -50 -27 -69 -27 -162
0 -96 3 -110 29 -165 38 -77 120 -158 193 -193 52 -24 70 -27 163 -27 94 0
111 3 166 28 72 33 151 110 187 182 88 173 33 390 -125 498 -94 64 -205 87
-308 63z m185 -165 c95 -42 157 -162 136 -262 -15 -69 -33 -101 -83 -143 -110
-95 -286 -66 -363 59 -27 44 -30 57 -30 129 0 70 4 86 27 122 44 68 87 97 173
117 30 8 95 -3 140 -22z"/>
<path d="M2797 3030 c-71 -12 -155 -57 -208 -111 l-45 -46 -40 28 c-63 45
-124 62 -214 57 -109 -4 -124 -19 -128 -128 -5 -90 12 -151 57 -214 l28 -40
-46 -45 c-88 -85 -133 -223 -111 -339 13 -70 31 -89 99 -102 115 -22 253 23
340 110 l48 48 49 -33 c65 -45 118 -58 208 -53 105 5 120 20 124 128 5 90 -12
151 -57 214 l-28 40 46 45 c88 85 133 223 111 339 -13 70 -31 89 -99 102 -60
11 -65 11 -134 0z m82 -199 c-9 -61 -28 -97 -71 -138 -40 -39 -95 -63 -143
-63 -33 0 -35 2 -35 35 0 70 55 156 124 192 28 14 114 33 127 27 3 -2 3 -26
-2 -53z m-496 -35 c36 -15 97 -79 97 -102 0 -29 -21 -54 -45 -54 -49 0 -125
91 -125 150 0 24 25 26 73 6z m107 -343 c-1 -105 -100 -205 -215 -215 l-40 -3
3 40 c10 115 110 214 215 215 36 0 37 -1 37 -37z m265 -16 c40 -40 68 -107 52
-124 -17 -16 -84 12 -124 52 -45 45 -53 73 -27 99 26 26 54 18 99 -27z"/>
<path d="M1559 2216 c-71 -27 -115 -55 -161 -103 -223 -232 -97 -612 221 -664
169 -27 344 69 419 229 24 50 27 69 27 162 0 96 -3 110 -29 165 -38 77 -120
159 -193 193 -48 21 -75 27 -153 29 -63 2 -107 -2 -131 -11z m247 -172 c30
-18 60 -48 79 -79 27 -44 30 -57 30 -129 0 -70 -4 -86 -26 -121 -54 -82 -118
-118 -209 -118 -151 -1 -271 141 -241 284 15 69 33 101 83 143 53 46 86 56
169 53 54 -2 76 -8 115 -33z"/>
<path d="M3313 2212 c-101 -36 -180 -108 -231 -212 -24 -49 -27 -66 -27 -160
0 -93 3 -112 27 -162 117 -251 444 -311 638 -118 192 193 133 523 -114 637
-80 36 -213 43 -293 15z m208 -142 c42 -12 114 -71 134 -111 31 -58 38 -124
20 -184 -75 -259 -451 -226 -473 40 -2 35 1 78 7 98 42 126 177 194 312 157z"/>
<path d="M853 1726 c-117 -55 -164 -197 -104 -314 41 -80 115 -125 206 -126
202 -1 309 230 178 384 -70 81 -178 103 -280 56z m162 -151 c44 -43 21 -124
-40 -139 -34 -9 -83 18 -96 52 -32 83 73 151 136 87z"/>
<path d="M4064 1731 c-49 -22 -111 -92 -124 -140 -44 -159 65 -306 225 -305
194 2 299 215 184 373 -59 82 -190 115 -285 72z m154 -151 c45 -42 36 -107
-17 -135 -83 -42 -162 65 -96 130 30 31 82 33 113 5z"/>
</g>
</svg>
