<?xml version="1.0" standalone="no"?>
<!DOCTYPE svg PUBLIC "-//W3C//DTD SVG 20010904//EN"
 "http://www.w3.org/TR/2001/REC-SVG-20010904/DTD/svg10.dtd">
<svg version="1.0" xmlns="http://www.w3.org/2000/svg"
 width="512.000000pt" height="512.000000pt" viewBox="0 0 512.000000 512.000000"
 preserveAspectRatio="xMidYMid meet">

<g transform="translate(0.000000,512.000000) scale(0.100000,-0.100000)"
fill="#000000" stroke="none">
<path d="M938 5104 c-63 -19 -148 -98 -179 -166 l-24 -53 -3 -847 -2 -848
1830 0 1830 0 0 330 0 330 -571 0 -571 0 -40 22 c-24 14 -48 38 -59 60 -18 35
-19 67 -19 613 l0 575 -1072 -1 c-904 0 -1080 -3 -1120 -15z m1372 -654 c45
-23 80 -80 80 -130 0 -50 -35 -107 -80 -130 -37 -19 -58 -20 -431 -20 -387 0
-392 0 -431 22 -101 57 -102 194 -2 254 l39 24 393 0 c374 0 395 -1 432 -20z
m0 -640 c45 -23 80 -80 80 -130 0 -50 -35 -107 -80 -130 -37 -19 -58 -20 -431
-20 -387 0 -392 0 -431 22 -101 57 -102 194 -2 254 l39 24 393 0 c374 0 395
-1 432 -20z"/>
<path d="M3430 4585 l0 -435 437 0 438 0 -435 435 c-239 239 -436 435 -437
435 -2 0 -3 -196 -3 -435z"/>
<path d="M78 2869 c-23 -12 -46 -35 -58 -59 -20 -38 -20 -57 -20 -890 0 -816
1 -852 19 -888 11 -22 35 -46 59 -60 l40 -22 2441 0 c2428 0 2442 0 2481 20
26 13 47 34 60 60 20 38 20 57 20 890 0 833 0 852 -20 890 -13 26 -34 47 -60
60 -39 20 -53 20 -2482 20 -2413 -1 -2443 -1 -2480 -21z m1672 -259 c45 -23
80 -80 80 -130 0 -50 -35 -107 -80 -130 -34 -17 -59 -20 -180 -20 l-140 0 0
-500 c0 -482 -1 -502 -20 -540 -23 -45 -80 -80 -130 -80 -50 0 -107 35 -130
80 -19 38 -20 58 -20 540 l0 500 -141 0 c-128 0 -145 2 -181 22 -45 25 -78 80
-78 128 0 48 35 107 78 129 35 19 59 20 470 21 414 0 434 -1 472 -20z m886 1
c22 -10 50 -30 61 -44 26 -34 453 -1173 453 -1210 0 -47 -36 -105 -80 -127
-49 -25 -90 -25 -139 -1 -46 24 -60 44 -96 144 l-28 77 -248 0 -247 0 -13 -37
c-6 -21 -24 -66 -39 -100 -23 -50 -36 -66 -69 -82 -51 -26 -91 -27 -141 -1
-44 22 -80 80 -80 128 0 34 418 1145 450 1196 24 40 91 76 140 76 19 0 53 -9
76 -19z m870 2 c28 -14 68 -62 181 -220 80 -112 148 -203 153 -203 4 0 73 91
153 203 151 212 178 237 248 237 76 0 149 -74 149 -152 0 -44 -20 -75 -204
-332 -86 -121 -154 -226 -151 -233 2 -8 76 -114 163 -236 88 -122 167 -236
176 -254 47 -92 -28 -213 -132 -213 -72 0 -95 22 -249 236 -80 112 -149 204
-153 204 -4 0 -73 -91 -153 -202 -152 -214 -177 -238 -250 -238 -82 0 -151 78
-144 162 4 42 21 71 178 290 95 133 173 250 173 258 0 8 -78 125 -173 258
-157 219 -174 248 -178 290 -10 116 107 195 213 145z"/>
<path d="M2495 1929 c-33 -88 -61 -165 -63 -170 -2 -5 51 -9 128 -9 101 0 131
3 128 13 -29 85 -124 327 -128 327 -3 0 -32 -73 -65 -161z"/>
<path d="M732 438 c3 -191 5 -218 24 -259 31 -66 78 -114 142 -146 l57 -28
1605 0 1605 0 46 21 c66 31 114 78 146 142 28 56 28 60 31 270 l3 212 -1831 0
-1831 0 3 -212z"/>
</g>
</svg>
