<svg width="512.000000pt" height="512.000000pt" viewBox="0 0 512.000000 512.000000" xmlns="http://www.w3.org/2000/svg">
  <g transform="translate(0.000000,512.000000) scale(0.100000,-0.100000)" fill="#fefefe" stroke="none">
    <path d="M0 3939 l0 -1180 10 6 c5 3 10 23 10 45 0 49 34 250 61 360 86 347
261 701 485 980 308 383 725 675 1182 829 65 21 155 48 202 60 110 27 311 61
361 61 21 0 39 5 39 10 l0 10 -1175 0 -1175 0 0 -1181z" />
    <path d="M2770 5110 c0 -5 18 -10 39 -10 50 0 251 -34 361 -61 215 -53 455
-149 647 -260 197 -113 348 -226 517 -389 343 -331 592 -762 705 -1220 27
-110 61 -311 61 -361 0 -21 5 -39 10 -39 l10 0 0 1175 0 1175 -1175 0 -1175 0
0 -10z" />
    <path d="M3453 3555 c-88 -26 -606 -233 -973 -388 -311 -132 -1368 -590 -1416
-615 -53 -27 -92 -65 -100 -98 l-7 -28 14 -25 c8 -14 29 -35 46 -47 33 -22
246 -94 413 -139 52 -14 132 -28 177 -32 l81 -6 49 12 c26 7 69 23 95 36 26
13 283 181 570 373 288 191 544 361 570 376 l47 27 20 -11 c12 -6 21 -18 21
-28 l0 -16 -172 -171 c-95 -94 -283 -274 -417 -400 l-244 -229 -28 -45 -29
-45 0 -39 0 -40 21 -33 c24 -40 95 -92 439 -322 140 -94 302 -202 359 -241 58
-39 130 -80 160 -92 l56 -21 64 4 63 4 38 40 37 40 22 59 c25 68 85 388 176
940 109 665 149 971 143 1090 l-3 75 -28 27 -27 28 -78 2 -77 3 -82 -25z" />
    <path d="M5107 2353 c-4 -3 -7 -23 -7 -44 0 -48 -35 -251 -61 -359 -113 -457
-360 -885 -701 -1215 -174 -170 -339 -293 -555 -414 -169 -95 -412 -190 -613
-240 -110 -27 -311 -61 -361 -61 -21 0 -39 -4 -39 -10 l0 -10 1175 0 1175 0 0
1180 c0 649 -1 1180 -3 1180 -2 0 -7 -3 -10 -7z" />
    <path d="M0 1175 l0 -1175 1175 0 1175 0 0 10 c0 6 -18 10 -39 10 -50 0 -251
34 -361 61 -290 71 -595 211 -845 385 -186 129 -387 316 -531 494 -74 91 -185
255 -249 370 -98 174 -194 418 -244 620 -27 110 -61 311 -61 361 0 21 -4 39
-10 39 l-10 0 0 -1175z" />
  </g>
  <g transform="translate(0.000000,512.000000) scale(0.100000,-0.100000)" fill="#29a9eb" stroke="none">
    <path d="M2270 5109 c-502 -61 -962 -257 -1346 -576 -116 -95 -272 -254 -368
-373 -126 -157 -258 -372 -336 -550 -45 -101 -100 -245 -100 -261 l0 -9 1404
0 1404 0 239 94 c131 52 274 105 317 116 l79 22 59 -4 59 -4 27 -27 27 -27 4
-85 3 -85 629 0 629 0 0 9 c0 17 -56 162 -103 268 -181 408 -502 791 -882
1055 -186 129 -419 246 -635 318 -140 46 -246 73 -405 101 l-120 22 -255 3
c-140 1 -289 -2 -330 -7z" />
    <path d="M2780 3294 c0 -9 5 -14 12 -12 18 6 21 28 4 28 -9 0 -16 -7 -16 -16z" />
    <path d="M2610 3224 c0 -9 5 -14 12 -12 18 6 21 28 4 28 -9 0 -16 -7 -16 -16z" />
    <path d="M67 3163 c-12 -11 -8 -23 8 -23 8 0 15 7 15 15 0 16 -12 20 -23 8z" />
    <path d="M2420 3144 c0 -17 22 -14 28 4 2 7 -3 12 -12 12 -9 0 -16 -7 -16 -16z" />
    <path d="M2350 3114 c0 -17 22 -14 28 4 2 7 -3 12 -12 12 -9 0 -16 -7 -16 -16z" />
  </g>
  <g transform="translate(0.000000,512.000000) scale(0.100000,-0.100000)" fill="#27a6e6" stroke="none">
    <path d="M116 3340 c-3 -8 -14 -48 -26 -88 -12 -41 -19 -80 -16 -88 3 -8 2
-13 -2 -10 -10 6 -47 -187 -62 -319 -19 -172 -11 -524 16 -672 l6 -33 1100 0
1099 0 247 232 c136 127 325 309 420 403 l172 171 0 26 0 27 -21 11 c-11 7
-31 9 -44 6 -13 -3 -274 -173 -581 -377 -306 -204 -577 -381 -603 -394 -25
-13 -68 -29 -94 -36 l-49 -12 -71 6 c-40 4 -115 18 -167 32 -151 41 -374 114
-408 135 -17 10 -38 31 -48 45 l-16 25 12 30 12 30 44 28 c37 25 309 145 1151
510 101 43 180 82 175 87 -4 5 -2 5 4 2 7 -4 26 -1 43 6 l31 13 -7 9 -8 8 12
-7 12 -7 91 39 90 38 -7 9 -8 8 12 -7 c6 -3 48 9 92 27 l81 33 -7 9 -8 8 12
-7 c12 -6 110 28 127 45 l10 9 -1407 2 -1407 3 -4 -15z" />
    <path d="M3740 3353 c0 -1 -9 -73 -20 -160 -26 -207 -72 -510 -121 -806 -21
-130 -39 -242 -39 -247 l0 -10 764 0 764 0 5 29 c4 16 11 80 18 141 l12 111
-6 222 -5 222 -22 125 c-21 122 -42 209 -74 320 l-16 55 -630 0 c-346 0 -630
-1 -630 -2z" />
    <path d="M2180 2094 c0 -9 5 -14 12 -12 18 6 21 28 4 28 -9 0 -16 -7 -16 -16z" />
    <path d="M3546 2065 l-5 -15 14 0 c8 0 15 7 15 15 0 8 -4 15 -9 15 -5 0 -11
-7 -15 -15z" />
    <path d="M46 2055 c8 -19 24 -19 24 0 0 8 -7 15 -15 15 l-14 0 5 -15z" />
    <path d="M2160 2054 c0 -17 22 -14 28 4 2 7 -3 12 -12 12 -9 0 -16 -7 -16 -16z" />
    <path d="M3536 2005 l-5 -15 14 0 c8 0 15 7 15 15 0 8 -4 15 -9 15 -5 0 -11
-7 -15 -15z" />
    <path d="M62 1968 c6 -18 28 -21 28 -4 0 9 -7 16 -16 16 -9 0 -14 -5 -12 -12z" />
    <path d="M5030 1964 c0 -9 5 -14 12 -12 18 6 21 28 4 28 -9 0 -16 -7 -16 -16z" />
    <path d="M5020 1924 c0 -9 5 -14 12 -12 18 6 21 28 4 28 -9 0 -16 -7 -16 -16z" />
    <path d="M112 1788 c6 -18 28 -21 28 -4 0 9 -7 16 -16 16 -9 0 -14 -5 -12 -12z" />
    <path d="M4980 1784 c0 -9 5 -14 12 -12 18 6 21 28 4 28 -9 0 -16 -7 -16 -16z" />
    <path d="M3486 1725 l-5 -15 14 0 c8 0 15 7 15 15 0 8 -4 15 -9 15 -5 0 -11
-7 -15 -15z" />
    <path d="M4960 1724 c0 -9 5 -14 12 -12 18 6 21 28 4 28 -9 0 -16 -7 -16 -16z" />
    <path d="M2500 1706 c0 -9 7 -16 16 -16 17 0 14 22 -4 28 -7 2 -12 -3 -12 -12z" />
  </g>
  <g transform="translate(0.000000,512.000000) scale(0.100000,-0.100000)" fill="#25a3e2" stroke="none">
    <path d="M36 2105 c3 -22 10 -42 15 -43 5 -2 7 -8 4 -12 -3 -5 -3 -27 1 -49
l6 -41 11 7 10 6 -7 -12 -8 -12 23 -84 c13 -46 26 -82 29 -80 3 2 6 -9 6 -23
3 -62 142 -370 234 -519 l51 -83 2149 0 2148 0 43 68 c61 96 138 250 188 374
l43 107 -8 12 -7 12 10 -6 11 -7 6 26 c4 13 4 30 0 36 l-7 11 10 -6 9 -6 17
65 c10 36 15 70 11 76 l-7 11 13 -8 13 -8 -5 26 c-3 15 -2 24 2 22 4 -2 12 25
19 60 6 36 14 77 17 92 l5 28 -765 0 -766 0 -6 -32 c-3 -17 -3 -36 1 -42 3 -6
1 -11 -6 -11 l-11 0 4 -30 c3 -16 2 -30 -2 -30 -9 0 -53 -258 -46 -269 4 -5 2
-11 -2 -13 -5 -1 -18 -56 -30 -121 -13 -65 -32 -143 -44 -174 l-21 -57 -37
-39 -37 -40 -54 -4 -54 -5 -56 21 c-30 12 -102 53 -160 92 -337 228 -465 312
-476 312 -7 0 -11 2 -8 5 2 3 -48 41 -113 85 -154 105 -177 123 -198 155 -18
27 -37 115 -23 107 10 -7 20 25 12 37 l-6 11 10 -6 11 -7 16 25 16 25 -1105 2
-1106 3 7 -40z" />
    <path d="M702 798 c6 -18 28 -21 28 -4 0 9 -7 16 -16 16 -9 0 -14 -5 -12 -12z" />
    <path d="M782 718 c6 -18 28 -21 28 -4 0 9 -7 16 -16 16 -9 0 -14 -5 -12 -12z" />
  </g>
  <g transform="translate(0.000000,512.000000) scale(0.100000,-0.100000)" fill="#23a0dd" stroke="none">
    <path d="M410 1164 c0 -8 86 -129 134 -189 22 -27 67 -80 99 -117 l59 -68 11
7 10 6 -6 -10 c-3 -5 11 -26 32 -47 l37 -36 9 7 8 8 -6 -11 -7 -12 68 -59 c37
-32 90 -77 117 -99 140 -113 349 -240 523 -318 l102 -46 960 0 959 0 93 41
c175 77 391 209 548 335 119 95 278 252 370 364 75 91 180 233 180 245 0 3
-967 5 -2150 5 -1182 0 -2150 -3 -2150 -6z" />
    <path d="M3353 148 l-33 -11 0 -14 0 -14 23 7 c50 15 67 24 67 34 0 12 -14 11
-57 -2z" />
    <path d="M1742 138 c6 -18 28 -21 28 -4 0 9 -7 16 -16 16 -9 0 -14 -5 -12 -12z" />
    <path d="M1912 88 c6 -18 28 -21 28 -4 0 9 -7 16 -16 16 -9 0 -14 -5 -12 -12z" />
    <path d="M3180 84 c0 -9 5 -14 12 -12 18 6 21 28 4 28 -9 0 -16 -7 -16 -16z" />
    <path d="M3140 74 c0 -9 5 -14 12 -12 18 6 21 28 4 28 -9 0 -16 -7 -16 -16z" />
    <path d="M2040 61 c0 -5 7 -11 15 -15 l15 -5 0 14 c0 8 -7 15 -15 15 -8 0 -15
-4 -15 -9z" />
    <path d="M3050 55 l0 -14 15 5 c8 4 15 10 15 15 0 5 -7 9 -15 9 -8 0 -15 -7
-15 -15z" />
  </g>
  <g transform="translate(0.000000,512.000000) scale(0.100000,-0.100000)" fill="#239eda" stroke="none">
    <path d="M1610 182 c0 -11 129 -54 142 -46 l11 7 -6 -10 -6 -10 80 -22 c44
-12 85 -19 91 -15 l11 7 -6 -10 -7 -10 60 -12 c33 -7 65 -9 70 -6 6 3 10 2 10
-3 0 -5 51 -18 113 -28 l112 -19 275 0 275 0 113 19 c61 10 112 23 112 28 0 5
4 7 9 3 13 -8 92 6 86 15 -2 4 7 5 22 2 l26 -5 -8 13 -8 13 11 -7 c13 -8 143
25 136 35 -2 4 6 5 18 1 l21 -5 -6 10 -7 11 22 -6 21 -5 -7 11 -7 12 14 -6
c13 -5 107 30 107 41 0 3 -427 5 -950 5 -522 0 -950 -3 -950 -8z" />
  </g>
  <g transform="translate(0.000000,512.000000) scale(0.100000,-0.100000)" fill="#eef7fc" stroke="none">
    <path d="M1753 4997 c-51 -19 -51 -28 0 -11 26 9 47 18 47 20 0 6 -12 4 -47
-9z" />
    <path d="M3321 5006 c9 -9 113 -45 117 -41 5 5 3 6 -67 30 -44 15 -58 18 -50
11z" />
    <path d="M1605 4940 c-3 -5 -2 -10 4 -10 5 0 13 5 16 10 3 6 2 10 -4 10 -5 0
-13 -4 -16 -10z" />
    <path d="M3495 4940 c3 -5 11 -10 16 -10 6 0 7 5 4 10 -3 6 -11 10 -16 10 -6
0 -7 -4 -4 -10z" />
    <path d="M1535 4910 c-3 -5 -2 -10 4 -10 5 0 13 5 16 10 3 6 2 10 -4 10 -5 0
-13 -4 -16 -10z" />
    <path d="M1407 4854 c-27 -14 -47 -28 -44 -30 5 -6 107 43 107 51 0 9 -15 4
-63 -21z" />
    <path d="M3650 4875 c0 -8 102 -57 107 -51 3 2 -18 16 -46 30 -51 26 -61 30
-61 21z" />
    <path d="M1275 4780 c-3 -5 -2 -10 4 -10 5 0 13 5 16 10 3 6 2 10 -4 10 -5 0
-13 -4 -16 -10z" />
    <path d="M3825 4780 c3 -5 11 -10 16 -10 6 0 7 5 4 10 -3 6 -11 10 -16 10 -6
0 -7 -4 -4 -10z" />
    <path d="M3920 4726 c0 -6 112 -77 116 -73 2 2 -20 20 -51 40 -52 35 -65 42
-65 33z" />
    <path d="M1130 4690 c-14 -11 -20 -20 -15 -20 6 0 21 9 35 20 14 11 21 20 15
20 -5 0 -21 -9 -35 -20z" />
    <path d="M1030 4620 c-14 -11 -20 -20 -15 -20 6 0 21 9 35 20 14 11 21 20 15
20 -5 0 -21 -9 -35 -20z" />
    <path d="M4085 4610 c3 -5 11 -10 16 -10 6 0 7 5 4 10 -3 6 -11 10 -16 10 -6
0 -7 -4 -4 -10z" />
    <path d="M965 4570 c-3 -5 -2 -10 4 -10 5 0 13 5 16 10 3 6 2 10 -4 10 -5 0
-13 -4 -16 -10z" />
    <path d="M4135 4570 c3 -5 11 -10 16 -10 6 0 7 5 4 10 -3 6 -11 10 -16 10 -6
0 -7 -4 -4 -10z" />
    <path d="M915 4530 c-3 -5 -2 -10 4 -10 5 0 13 5 16 10 3 6 2 10 -4 10 -5 0
-13 -4 -16 -10z" />
    <path d="M4185 4530 c3 -5 11 -10 16 -10 6 0 7 5 4 10 -3 6 -11 10 -16 10 -6
0 -7 -4 -4 -10z" />
    <path d="M845 4470 c-3 -5 -2 -10 4 -10 5 0 13 5 16 10 3 6 2 10 -4 10 -5 0
-13 -4 -16 -10z" />
    <path d="M4255 4470 c3 -5 11 -10 16 -10 6 0 7 5 4 10 -3 6 -11 10 -16 10 -6
0 -7 -4 -4 -10z" />
    <path d="M647 4273 c-4 -3 -7 -11 -7 -17 l0 -10 12 12 c6 6 9 14 7 17 -3 3 -9
2 -12 -2z" />
    <path d="M4460 4271 c0 -5 5 -13 10 -16 6 -3 10 -2 10 4 0 5 -4 13 -10 16 -5
3 -10 2 -10 -4z" />
    <path d="M587 4203 c-4 -3 -7 -11 -7 -17 l0 -10 12 12 c6 6 9 14 7 17 -3 3 -9
2 -12 -2z" />
    <path d="M4520 4201 c0 -5 5 -13 10 -16 6 -3 10 -2 10 4 0 5 -4 13 -10 16 -5
3 -10 2 -10 -4z" />
    <path d="M547 4153 c-4 -3 -7 -11 -7 -17 l0 -10 12 12 c6 6 9 14 7 17 -3 3 -9
2 -12 -2z" />
    <path d="M4560 4151 c0 -5 5 -13 10 -16 6 -3 10 -2 10 4 0 5 -4 13 -10 16 -5
3 -10 2 -10 -4z" />
    <path d="M496 4084 c-10 -14 -16 -28 -13 -30 2 -3 12 7 21 22 10 14 16 28 13
30 -2 3 -12 -7 -21 -22z" />
    <path d="M4600 4105 c0 -5 9 -21 20 -35 11 -14 20 -20 20 -15 0 6 -9 21 -20
35 -11 14 -20 21 -20 15z" />
    <path d="M436 3999 c-15 -22 -26 -43 -23 -45 2 -2 16 14 31 37 15 22 26 43 23
45 -2 2 -16 -14 -31 -37z" />
    <path d="M4650 4035 c0 -10 73 -115 77 -111 3 2 -12 29 -33 60 -34 52 -44 63
-44 51z" />
    <path d="M337 3843 c-4 -3 -7 -11 -7 -17 l0 -10 12 12 c6 6 9 14 7 17 -3 3 -9
2 -12 -2z" />
    <path d="M4770 3841 c0 -5 5 -13 10 -16 6 -3 10 -2 10 4 0 5 -4 13 -10 16 -5
3 -10 2 -10 -4z" />
    <path d="M265 3710 c-14 -29 -24 -54 -21 -57 2 -3 17 18 31 47 14 29 24 54 21
57 -2 3 -17 -18 -31 -47z" />
    <path d="M4820 3755 c0 -13 52 -107 56 -102 6 5 -43 107 -51 107 -3 0 -5 -2
-5 -5z" />
    <path d="M207 3583 c-4 -3 -7 -11 -7 -17 l0 -10 12 12 c6 6 9 14 7 17 -3 3 -9
2 -12 -2z" />
    <path d="M4900 3581 c0 -5 5 -13 10 -16 6 -3 10 -2 10 4 0 5 -4 13 -10 16 -5
3 -10 2 -10 -4z" />
    <path d="M177 3513 c-4 -3 -7 -11 -7 -17 l0 -10 12 12 c6 6 9 14 7 17 -3 3 -9
2 -12 -2z" />
    <path d="M4930 3511 c0 -5 5 -13 10 -16 6 -3 10 -2 10 4 0 5 -4 13 -10 16 -5
3 -10 2 -10 -4z" />
    <path d="M3205 3460 c-3 -5 -2 -10 4 -10 5 0 13 5 16 10 3 6 2 10 -4 10 -5 0
-13 -4 -16 -10z" />
    <path d="M3155 3440 c-3 -5 -2 -10 4 -10 5 0 13 5 16 10 3 6 2 10 -4 10 -5 0
-13 -4 -16 -10z" />
    <path d="M145 3429 c-25 -69 -34 -103 -30 -107 2 -3 7 4 11 14 3 10 12 37 20
58 7 22 12 42 9 44 -2 3 -7 -1 -10 -9z" />
    <path d="M4960 3437 c0 -4 6 -24 14 -44 8 -21 17 -47 20 -57 4 -10 9 -17 11
-14 6 6 -24 99 -36 113 -5 5 -9 6 -9 2z" />
    <path d="M3105 3420 c-3 -5 -2 -10 4 -10 5 0 13 5 16 10 3 6 2 10 -4 10 -5 0
-13 -4 -16 -10z" />
    <path d="M3055 3400 c-3 -5 -2 -10 4 -10 5 0 13 5 16 10 3 6 2 10 -4 10 -5 0
-13 -4 -16 -10z" />
    <path d="M2885 3330 c-3 -5 -2 -10 4 -10 5 0 13 5 16 10 3 6 2 10 -4 10 -5 0
-13 -4 -16 -10z" />
    <path d="M2835 3310 c-3 -5 -2 -10 4 -10 5 0 13 5 16 10 3 6 2 10 -4 10 -5 0
-13 -4 -16 -10z" />
    <path d="M2665 3240 c-3 -5 -2 -10 4 -10 5 0 13 5 16 10 3 6 2 10 -4 10 -5 0
-13 -4 -16 -10z" />
    <path d="M2545 3190 c-3 -5 -2 -10 4 -10 5 0 13 5 16 10 3 6 2 10 -4 10 -5 0
-13 -4 -16 -10z" />
    <path d="M2475 3160 c-3 -5 -2 -10 4 -10 5 0 13 5 16 10 3 6 2 10 -4 10 -5 0
-13 -4 -16 -10z" />
    <path d="M5040 3161 c0 -5 5 -13 10 -16 6 -3 10 -2 10 4 0 5 -4 13 -10 16 -5
3 -10 2 -10 -4z" />
    <path d="M3050 2991 c0 -5 5 -13 10 -16 6 -3 10 -2 10 4 0 5 -4 13 -10 16 -5
3 -10 2 -10 -4z" />
    <path d="M2055 2980 c-3 -5 -2 -10 4 -10 5 0 13 5 16 10 3 6 2 10 -4 10 -5 0
-13 -4 -16 -10z" />
    <path d="M2955 2980 c-3 -5 -2 -10 4 -10 5 0 13 5 16 10 3 6 2 10 -4 10 -5 0
-13 -4 -16 -10z" />
    <path d="M1985 2950 c-3 -5 -2 -10 4 -10 5 0 13 5 16 10 3 6 2 10 -4 10 -5 0
-13 -4 -16 -10z" />
    <path d="M3047 2933 c-4 -3 -7 -11 -7 -17 l0 -10 12 12 c6 6 9 14 7 17 -3 3
-9 2 -12 -2z" />
    <path d="M1915 2920 c-3 -5 -2 -10 4 -10 5 0 13 5 16 10 3 6 2 10 -4 10 -5 0
-13 -4 -16 -10z" />
    <path d="M2817 2893 c-20 -14 -35 -28 -33 -30 4 -4 86 46 86 53 0 9 -17 1 -53
-23z" />
    <path d="M1755 2850 c-3 -5 -2 -10 4 -10 5 0 13 5 16 10 3 6 2 10 -4 10 -5 0
-13 -4 -16 -10z" />
    <path d="M1685 2820 c-3 -5 -2 -10 4 -10 5 0 13 5 16 10 3 6 2 10 -4 10 -5 0
-13 -4 -16 -10z" />
    <path d="M1615 2790 c-3 -5 -2 -10 4 -10 5 0 13 5 16 10 3 6 2 10 -4 10 -5 0
-13 -4 -16 -10z" />
    <path d="M1455 2720 c-3 -5 -2 -10 4 -10 5 0 13 5 16 10 3 6 2 10 -4 10 -5 0
-13 -4 -16 -10z" />
    <path d="M1385 2690 c-3 -5 -2 -10 4 -10 5 0 13 5 16 10 3 6 2 10 -4 10 -5 0
-13 -4 -16 -10z" />
    <path d="M1315 2660 c-3 -5 -2 -10 4 -10 5 0 13 5 16 10 3 6 2 10 -4 10 -5 0
-13 -4 -16 -10z" />
    <path d="M2740 2625 c-13 -14 -19 -25 -13 -25 5 0 20 11 33 25 13 14 19 25 13
25 -5 0 -20 -11 -33 -25z" />
    <path d="M1225 2620 c-3 -5 -2 -10 4 -10 5 0 13 5 16 10 3 6 2 10 -4 10 -5 0
-13 -4 -16 -10z" />
    <path d="M1155 2590 c-3 -5 -2 -10 4 -10 5 0 13 5 16 10 3 6 2 10 -4 10 -5 0
-13 -4 -16 -10z" />
    <path d="M1005 2510 c-3 -5 -2 -10 4 -10 5 0 13 5 16 10 3 6 2 10 -4 10 -5 0
-13 -4 -16 -10z" />
    <path d="M973 2473 c-3 -10 -8 -22 -10 -28 -3 -5 3 -1 11 9 16 20 21 36 11 36
-3 0 -8 -8 -12 -17z" />
    <path d="M2575 2470 c-10 -11 -14 -20 -8 -20 5 0 18 9 28 20 10 11 14 20 8 20
-5 0 -18 -9 -28 -20z" />
    <path d="M2097 2413 c-53 -36 -95 -68 -93 -70 4 -4 177 107 201 128 l9 9 -9
-1 c-6 0 -54 -30 -108 -66z" />
    <path d="M974 2403 c9 -17 21 -35 27 -38 21 -14 16 1 -13 35 l-30 35 16 -32z" />
    <path d="M1075 2330 c3 -5 11 -10 16 -10 6 0 7 5 4 10 -3 6 -11 10 -16 10 -6
0 -7 -4 -4 -10z" />
    <path d="M2415 2320 c-10 -11 -14 -20 -8 -20 5 0 18 9 28 20 10 11 14 20 8 20
-5 0 -18 -9 -28 -20z" />
    <path d="M1194 2292 c3 -5 17 -12 32 -15 30 -5 20 8 -15 18 l-24 7 7 -10z" />
    <path d="M1862 2258 c-18 -11 -31 -23 -28 -25 5 -5 76 35 76 43 0 8 -15 2 -48
-18z" />
    <path d="M1795 2220 c-3 -5 -2 -10 4 -10 5 0 13 5 16 10 3 6 2 10 -4 10 -5 0
-13 -4 -16 -10z" />
    <path d="M2198 2098 c-16 -25 -29 -58 -24 -58 2 0 14 16 25 36 24 40 23 59 -1
22z" />
    <path d="M2190 1951 c0 -5 5 -13 10 -16 6 -3 10 -2 10 4 0 5 -4 13 -10 16 -5
3 -10 2 -10 -4z" />
    <path d="M2245 1890 c3 -5 11 -10 16 -10 6 0 7 5 4 10 -3 6 -11 10 -16 10 -6
0 -7 -4 -4 -10z" />
    <path d="M2300 1850 c14 -11 30 -20 35 -20 6 0 -1 9 -15 20 -14 11 -29 20 -35
20 -5 0 1 -9 15 -20z" />
    <path d="M110 1798 c0 -5 18 -60 35 -107 3 -8 8 -12 10 -9 2 2 -5 29 -16 59
-19 51 -29 70 -29 57z" />
    <path d="M4987 1758 c-8 -24 -18 -52 -22 -63 l-8 -20 10 10 c12 12 45 107 39
112 -2 2 -11 -15 -19 -39z" />
    <path d="M2590 1656 c0 -6 112 -77 116 -73 2 2 -20 20 -51 40 -52 35 -65 42
-65 33z" />
    <path d="M170 1621 c0 -5 5 -13 10 -16 6 -3 10 -2 10 4 0 5 -4 13 -10 16 -5 3
-10 2 -10 -4z" />
    <path d="M200 1551 c0 -5 5 -13 10 -16 6 -3 10 -2 10 4 0 5 -4 13 -10 16 -5 3
-10 2 -10 -4z" />
    <path d="M2740 1556 c0 -6 142 -97 146 -93 2 2 -27 25 -66 50 -66 44 -80 52
-80 43z" />
    <path d="M4907 1553 c-4 -3 -7 -11 -7 -17 l0 -10 12 12 c6 6 9 14 7 17 -3 3
-9 2 -12 -2z" />
    <path d="M3429 1454 c-5 -15 -8 -29 -5 -31 2 -2 8 10 14 26 13 38 5 41 -9 5z" />
    <path d="M240 1465 c0 -13 52 -107 56 -102 6 5 -43 107 -51 107 -3 0 -5 -2 -5
-5z" />
    <path d="M4845 1420 c-14 -29 -24 -54 -21 -57 2 -3 17 18 31 47 14 29 24 54
21 57 -2 3 -17 -18 -31 -47z" />
    <path d="M2980 1390 c14 -11 30 -20 35 -20 6 0 -1 9 -15 20 -14 11 -29 20 -35
20 -5 0 1 -9 15 -20z" />
    <path d="M3407 1393 c-4 -3 -7 -11 -7 -17 l0 -10 12 12 c6 6 9 14 7 17 -3 3
-9 2 -12 -2z" />
    <path d="M3055 1340 c3 -5 11 -10 16 -10 6 0 7 5 4 10 -3 6 -11 10 -16 10 -6
0 -7 -4 -4 -10z" />
    <path d="M3355 1320 c-10 -11 -13 -20 -8 -20 13 0 38 29 31 35 -3 3 -13 -4
-23 -15z" />
    <path d="M330 1291 c0 -5 5 -13 10 -16 6 -3 10 -2 10 4 0 5 -4 13 -10 16 -5 3
-10 2 -10 -4z" />
    <path d="M4777 1293 c-4 -3 -7 -11 -7 -17 l0 -10 12 12 c6 6 9 14 7 17 -3 3
-9 2 -12 -2z" />
    <path d="M4747 1243 c-4 -3 -7 -11 -7 -17 l0 -10 12 12 c6 6 9 14 7 17 -3 3
-9 2 -12 -2z" />
    <path d="M410 1165 c0 -5 9 -21 20 -35 11 -14 20 -20 20 -15 0 6 -9 21 -20 35
-11 14 -20 21 -20 15z" />
    <path d="M4686 1144 c-10 -14 -16 -28 -13 -30 2 -3 12 7 21 22 10 14 16 28 13
30 -2 3 -12 -7 -21 -22z" />
    <path d="M480 1065 c0 -5 9 -21 20 -35 11 -14 20 -20 20 -15 0 6 -9 21 -20 35
-11 14 -20 21 -20 15z" />
    <path d="M4607 1033 c-4 -3 -7 -11 -7 -17 l0 -10 12 12 c6 6 9 14 7 17 -3 3
-9 2 -12 -2z" />
    <path d="M540 981 c0 -5 5 -13 10 -16 6 -3 10 -2 10 4 0 5 -4 13 -10 16 -5 3
-10 2 -10 -4z" />
    <path d="M4567 983 c-4 -3 -7 -11 -7 -17 l0 -10 12 12 c6 6 9 14 7 17 -3 3 -9
2 -12 -2z" />
    <path d="M580 931 c0 -5 5 -13 10 -16 6 -3 10 -2 10 4 0 5 -4 13 -10 16 -5 3
-10 2 -10 -4z" />
    <path d="M4527 933 c-4 -3 -7 -11 -7 -17 l0 -10 12 12 c6 6 9 14 7 17 -3 3 -9
2 -12 -2z" />
    <path d="M640 861 c0 -5 5 -13 10 -16 6 -3 10 -2 10 4 0 5 -4 13 -10 16 -5 3
-10 2 -10 -4z" />
    <path d="M4467 863 c-4 -3 -7 -11 -7 -17 l0 -10 12 12 c6 6 9 14 7 17 -3 3 -9
2 -12 -2z" />
    <path d="M845 650 c3 -5 11 -10 16 -10 6 0 7 5 4 10 -3 6 -11 10 -16 10 -6 0
-7 -4 -4 -10z" />
    <path d="M4255 650 c-3 -5 -2 -10 4 -10 5 0 13 5 16 10 3 6 2 10 -4 10 -5 0
-13 -4 -16 -10z" />
    <path d="M915 590 c3 -5 11 -10 16 -10 6 0 7 5 4 10 -3 6 -11 10 -16 10 -6 0
-7 -4 -4 -10z" />
    <path d="M4185 590 c-3 -5 -2 -10 4 -10 5 0 13 5 16 10 3 6 2 10 -4 10 -5 0
-13 -4 -16 -10z" />
    <path d="M965 550 c3 -5 11 -10 16 -10 6 0 7 5 4 10 -3 6 -11 10 -16 10 -6 0
-7 -4 -4 -10z" />
    <path d="M4135 550 c-3 -5 -2 -10 4 -10 5 0 13 5 16 10 3 6 2 10 -4 10 -5 0
-13 -4 -16 -10z" />
    <path d="M1030 500 c14 -11 30 -20 35 -20 6 0 -1 9 -15 20 -14 11 -29 20 -35
20 -5 0 1 -9 15 -20z" />
    <path d="M4070 500 c-14 -11 -20 -20 -15 -20 6 0 21 9 35 20 14 11 21 20 15
20 -5 0 -21 -9 -35 -20z" />
    <path d="M3987 443 c-20 -14 -35 -28 -33 -30 4 -4 86 46 86 53 0 9 -17 1 -53
-23z" />
    <path d="M1110 446 c0 -7 82 -57 86 -53 2 2 -14 16 -36 31 -38 25 -50 30 -50
22z" />
    <path d="M1225 370 c3 -5 11 -10 16 -10 6 0 7 5 4 10 -3 6 -11 10 -16 10 -6 0
-7 -4 -4 -10z" />
    <path d="M1275 340 c3 -5 11 -10 16 -10 6 0 7 5 4 10 -3 6 -11 10 -16 10 -6 0
-7 -4 -4 -10z" />
    <path d="M3825 340 c-3 -5 -2 -10 4 -10 5 0 13 5 16 10 3 6 2 10 -4 10 -5 0
-13 -4 -16 -10z" />
    <path d="M1360 295 c0 -8 82 -47 87 -41 3 2 -13 14 -36 25 -41 22 -51 25 -51
16z" />
    <path d="M3697 274 c-27 -14 -47 -28 -44 -30 5 -6 107 43 107 51 0 9 -15 4
-63 -21z" />
    <path d="M1535 210 c3 -5 11 -10 16 -10 6 0 7 5 4 10 -3 6 -11 10 -16 10 -6 0
-7 -4 -4 -10z" />
    <path d="M3565 210 c-3 -5 -2 -10 4 -10 5 0 13 5 16 10 3 6 2 10 -4 10 -5 0
-13 -4 -16 -10z" />
    <path d="M1605 180 c3 -5 11 -10 16 -10 6 0 7 5 4 10 -3 6 -11 10 -16 10 -6 0
-7 -4 -4 -10z" />
    <path d="M3372 138 c-29 -12 -51 -22 -49 -24 5 -5 100 27 112 37 l9 9 -9 -1
c-6 -1 -34 -10 -63 -21z" />
    <path d="M1710 146 c0 -6 22 -16 69 -31 l24 -7 -7 10 c-3 5 -16 12 -28 15 -13
2 -31 8 -40 12 -10 4 -18 4 -18 1z" />
    <path d="M1955 70 c3 -5 11 -10 16 -10 6 0 7 5 4 10 -3 6 -11 10 -16 10 -6 0
-7 -4 -4 -10z" />
  </g>
  <g transform="translate(0.000000,512.000000) scale(0.100000,-0.100000)" fill="#bce2f6" stroke="none">
    <path d="M2358 5113 c6 -2 18 -2 25 0 6 3 1 5 -13 5 -14 0 -19 -2 -12 -5z" />
    <path d="M2738 5113 c6 -2 18 -2 25 0 6 3 1 5 -13 5 -14 0 -19 -2 -12 -5z" />
    <path d="M1683 4970 c-34 -14 -28 -21 7 -9 17 6 30 13 30 15 0 6 -12 4 -37 -6z" />
    <path d="M1120 4679 l-25 -20 20 10 c33 17 51 31 40 31 -5 0 -21 -10 -35 -21z" />
    <path d="M1000 4595 l-13 -15 17 6 c9 3 16 10 16 15 0 13 -6 11 -20 -6z" />
    <path d="M4100 4601 c0 -5 7 -12 16 -15 l17 -6 -13 15 c-14 17 -20 19 -20 6z" />
    <path d="M900 4515 l-13 -15 17 6 c9 3 16 10 16 15 0 13 -6 11 -20 -6z" />
    <path d="M4200 4521 c0 -5 7 -12 16 -15 l17 -6 -13 15 c-14 17 -20 19 -20 6z" />
    <path d="M810 4435 l-13 -15 17 6 c9 3 16 10 16 15 0 13 -6 11 -20 -6z" />
    <path d="M4290 4443 c0 -5 13 -17 28 -27 l27 -19 -24 26 c-26 28 -31 32 -31
20z" />
    <path d="M4417 4315 c10 -13 22 -25 27 -25 5 0 -1 11 -14 25 -30 32 -36 32
-13 0z" />
    <path d="M4506 4215 c4 -8 11 -15 16 -15 l10 0 -12 15 c-7 8 -14 15 -16 15 -2
0 -1 -7 2 -15z" />
    <path d="M520 4115 l-12 -15 10 0 c5 0 12 7 16 15 3 8 4 15 2 15 -2 0 -9 -7
-16 -15z" />
    <path d="M4586 4115 c4 -8 11 -15 16 -15 l10 0 -12 15 c-7 8 -14 15 -16 15 -2
0 -1 -7 2 -15z" />
    <path d="M435 3994 c-9 -14 -15 -27 -13 -30 2 -2 12 10 22 26 21 37 15 40 -9
4z" />
    <path d="M4675 3993 c34 -53 45 -67 45 -60 0 10 -51 87 -57 87 -3 0 3 -12 12
-27z" />
    <path d="M3680 3566 c0 -2 7 -9 15 -16 l15 -12 0 10 c0 5 -7 12 -15 16 -8 3
-15 4 -15 2z" />
    <path d="M3392 3533 c-24 -8 -41 -17 -39 -19 5 -5 69 16 82 27 11 11 10 11
-43 -8z" />
    <path d="M3030 2997 c14 -8 27 -12 30 -10 7 6 -23 23 -40 23 l-15 0 25 -13z" />
    <path d="M2820 2889 l-25 -20 20 10 c33 17 51 31 40 31 -5 0 -21 -10 -35 -21z" />
    <path d="M3015 2899 c-11 -17 1 -21 15 -4 l12 15 -10 0 c-6 0 -14 -5 -17 -11z" />
    <path d="M2 2745 l0 -30 5 18 c2 9 2 23 0 30 -3 6 -5 -1 -5 -18z" />
    <path d="M5112 2750 c0 -14 2 -19 5 -12 2 6 2 18 0 25 -3 6 -5 1 -5 -13z" />
    <path d="M2815 2700 c-27 -30 -12 -34 15 -5 13 14 19 25 13 25 -5 0 -18 -9
-28 -20z" />
    <path d="M2635 2529 c-11 -17 1 -21 15 -4 l12 15 -10 0 c-6 0 -14 -5 -17 -11z" />
    <path d="M2062 2386 c-67 -46 -97 -72 -47 -41 69 42 129 85 120 84 -6 0 -38
-20 -73 -43z" />
    <path d="M2484 2386 c-10 -8 -16 -17 -13 -20 3 -3 14 3 24 14 21 23 17 26 -11
6z" />
    <path d="M5112 2375 l0 -30 5 18 c2 9 2 23 0 30 -3 6 -5 -1 -5 -18z" />
    <path d="M2 2370 c0 -14 2 -19 5 -12 2 6 2 18 0 25 -3 6 -5 1 -5 -13z" />
    <path d="M4962 1691 c-6 -17 -9 -31 -6 -31 7 0 25 52 20 57 -2 2 -8 -10 -14
-26z" />
    <path d="M2645 1617 c48 -33 75 -49 75 -44 0 6 -77 57 -87 57 -4 0 1 -6 12
-13z" />
    <path d="M2795 1517 c48 -33 75 -49 75 -44 0 6 -77 57 -87 57 -4 0 1 -6 12
-13z" />
    <path d="M4701 1167 c-8 -12 -21 -32 -29 -44 -8 -13 -12 -23 -9 -23 7 0 59 81
55 85 -2 2 -10 -6 -17 -18z" />
    <path d="M420 1155 c0 -5 10 -21 21 -35 l20 -25 -10 20 c-17 33 -31 51 -31 40z" />
    <path d="M4616 1044 l-6 -17 15 13 c17 14 19 20 6 20 -5 0 -12 -7 -15 -16z" />
    <path d="M510 1016 c0 -2 7 -9 15 -16 l15 -13 -6 17 c-3 9 -10 16 -15 16 -5 0
-9 -2 -9 -4z" />
    <path d="M4586 1004 l-6 -17 15 13 c17 14 19 20 6 20 -5 0 -12 -7 -15 -16z" />
    <path d="M4505 909 c-11 -17 1 -21 15 -4 l12 15 -10 0 c-6 0 -14 -5 -17 -11z" />
    <path d="M689 806 c14 -14 27 -26 29 -26 10 0 -26 44 -39 48 l-14 5 24 -27z" />
    <path d="M4420 815 c-20 -24 -6 -28 15 -5 10 11 13 20 8 20 -6 0 -16 -7 -23
-15z" />
    <path d="M794 701 c21 -23 26 -26 26 -11 0 5 -10 15 -22 21 l-23 12 19 -22z" />
    <path d="M4309 701 c-13 -11 -21 -22 -18 -25 3 -3 16 5 29 19 28 30 22 33 -11
6z" />
    <path d="M900 605 c7 -9 15 -13 17 -11 7 7 -7 26 -19 26 l-10 0 12 -15z" />
    <path d="M990 536 c0 -2 7 -9 15 -16 l15 -12 0 10 c0 5 -7 12 -15 16 -8 3 -15
4 -15 2z" />
    <path d="M4110 530 c-8 -5 -12 -12 -9 -15 4 -3 12 1 19 10 14 17 11 19 -10 5z" />
    <path d="M1100 457 c0 -6 77 -57 87 -57 4 0 -1 6 -12 13 -48 33 -75 49 -75 44z" />
    <path d="M3985 440 c-16 -11 -25 -20 -20 -20 10 0 64 39 55 40 -3 0 -18 -9
-35 -20z" />
    <path d="M1660 164 c0 -7 52 -25 57 -20 2 2 -10 8 -26 14 -17 6 -31 9 -31 6z" />
    <path d="M2358 3 c6 -2 18 -2 25 0 6 3 1 5 -13 5 -14 0 -19 -2 -12 -5z" />
    <path d="M2738 3 c6 -2 18 -2 25 0 6 3 1 5 -13 5 -14 0 -19 -2 -12 -5z" />
  </g>
  <g transform="translate(0.000000,512.000000) scale(0.100000,-0.100000)" fill="#def1fa" stroke="none">
    <path d="M3805 4790 c3 -5 11 -10 16 -10 6 0 7 5 4 10 -3 6 -11 10 -16 10 -6
0 -7 -4 -4 -10z" />
    <path d="M1210 4739 l-25 -20 33 16 c17 8 32 18 32 20 0 10 -16 4 -40 -16z" />
    <path d="M3875 4750 c3 -5 11 -10 16 -10 6 0 7 5 4 10 -3 6 -11 10 -16 10 -6
0 -7 -4 -4 -10z" />
    <path d="M4055 4630 c3 -5 11 -10 16 -10 6 0 7 5 4 10 -3 6 -11 10 -16 10 -6
0 -7 -4 -4 -10z" />
    <path d="M835 4460 c-3 -5 -2 -10 4 -10 5 0 13 5 16 10 3 6 2 10 -4 10 -5 0
-13 -4 -16 -10z" />
    <path d="M4265 4460 c3 -5 11 -10 16 -10 6 0 7 5 4 10 -3 6 -11 10 -16 10 -6
0 -7 -4 -4 -10z" />
    <path d="M657 4283 c-4 -3 -7 -11 -7 -17 l0 -10 12 12 c6 6 9 14 7 17 -3 3 -9
2 -12 -2z" />
    <path d="M4450 4281 c0 -5 5 -13 10 -16 6 -3 10 -2 10 4 0 5 -4 13 -10 16 -5
3 -10 2 -10 -4z" />
    <path d="M597 4213 c-4 -3 -7 -11 -7 -17 l0 -10 12 12 c6 6 9 14 7 17 -3 3 -9
2 -12 -2z" />
    <path d="M367 3893 c-4 -3 -7 -11 -7 -17 l0 -10 12 12 c6 6 9 14 7 17 -3 3 -9
2 -12 -2z" />
    <path d="M4740 3891 c0 -5 5 -13 10 -16 6 -3 10 -2 10 4 0 5 -4 13 -10 16 -5
3 -10 2 -10 -4z" />
    <path d="M3598 3573 c6 -2 18 -2 25 0 6 3 1 5 -13 5 -14 0 -19 -2 -12 -5z" />
    <path d="M3700 3552 c0 -5 7 -15 15 -22 l15 -12 0 10 c0 5 -7 15 -15 22 l-15
12 0 -10z" />
    <path d="M3742 3425 l0 -30 5 18 c2 9 2 23 0 30 -3 6 -5 -1 -5 -18z" />
    <path d="M2975 2990 c-3 -5 -2 -10 4 -10 5 0 13 5 16 10 3 6 2 10 -4 10 -5 0
-13 -4 -16 -10z" />
    <path d="M2925 2960 c-3 -5 -2 -10 4 -10 5 0 13 5 16 10 3 6 2 10 -4 10 -5 0
-13 -4 -16 -10z" />
    <path d="M3037 2923 c-4 -3 -7 -11 -7 -17 l0 -10 12 12 c6 6 9 14 7 17 -3 3
-9 2 -12 -2z" />
    <path d="M2682 2803 c-45 -31 -80 -58 -78 -60 4 -4 147 87 171 108 l9 9 -9 -1
c-6 0 -47 -25 -93 -56z" />
    <path d="M2457 2653 c-37 -25 -65 -48 -63 -50 4 -4 146 87 146 93 0 10 -20 -1
-83 -43z" />
    <path d="M2770 2655 l-12 -15 10 0 c5 0 15 7 22 15 l12 15 -10 0 c-5 0 -15 -7
-22 -15z" />
    <path d="M1091 2564 c-19 -8 -32 -17 -28 -20 5 -6 67 23 67 31 0 6 0 7 -39
-11z" />
    <path d="M2277 2533 c-37 -25 -65 -48 -63 -50 4 -4 146 87 146 93 0 10 -20 -1
-83 -43z" />
    <path d="M1015 2520 c-3 -5 -2 -10 4 -10 5 0 13 5 16 10 3 6 2 10 -4 10 -5 0
-13 -4 -16 -10z" />
    <path d="M2600 2495 l-12 -15 10 0 c5 0 15 7 22 15 l12 15 -10 0 c-5 0 -15 -7
-22 -15z" />
    <path d="M970 2401 c0 -5 5 -13 10 -16 6 -3 10 -2 10 4 0 5 -4 13 -10 16 -5 3
-10 2 -10 -4z" />
    <path d="M2440 2345 l-12 -15 10 0 c5 0 15 7 22 15 l12 15 -10 0 c-5 0 -15 -7
-22 -15z" />
    <path d="M2255 1880 c3 -5 11 -10 16 -10 6 0 7 5 4 10 -3 6 -11 10 -16 10 -6
0 -7 -4 -4 -10z" />
    <path d="M2550 1680 c14 -11 30 -20 35 -20 6 0 -1 9 -15 20 -14 11 -29 20 -35
20 -5 0 1 -9 15 -20z" />
    <path d="M2935 1420 c3 -5 11 -10 16 -10 6 0 7 5 4 10 -3 6 -11 10 -16 10 -6
0 -7 -4 -4 -10z" />
    <path d="M3386 1354 c-10 -14 -16 -28 -13 -30 2 -3 12 7 21 22 10 14 16 28 13
30 -2 3 -12 -7 -21 -22z" />
    <path d="M320 1311 c0 -5 5 -13 10 -16 6 -3 10 -2 10 4 0 5 -4 13 -10 16 -5 3
-10 2 -10 -4z" />
    <path d="M4787 1313 c-4 -3 -7 -11 -7 -17 l0 -10 12 12 c6 6 9 14 7 17 -3 3
-9 2 -12 -2z" />
    <path d="M3335 1300 c-3 -5 -2 -10 4 -10 5 0 13 5 16 10 3 6 2 10 -4 10 -5 0
-13 -4 -16 -10z" />
    <path d="M360 1241 c0 -5 5 -13 10 -16 6 -3 10 -2 10 4 0 5 -4 13 -10 16 -5 3
-10 2 -10 -4z" />
    <path d="M590 921 c0 -5 5 -13 10 -16 6 -3 10 -2 10 4 0 5 -4 13 -10 16 -5 3
-10 2 -10 -4z" />
    <path d="M650 851 c0 -5 5 -13 10 -16 6 -3 10 -2 10 4 0 5 -4 13 -10 16 -5 3
-10 2 -10 -4z" />
    <path d="M4457 853 c-4 -3 -7 -11 -7 -17 l0 -10 12 12 c6 6 9 14 7 17 -3 3 -9
2 -12 -2z" />
    <path d="M835 660 c3 -5 11 -10 16 -10 6 0 7 5 4 10 -3 6 -11 10 -16 10 -6 0
-7 -4 -4 -10z" />
    <path d="M4265 660 c-3 -5 -2 -10 4 -10 5 0 13 5 16 10 3 6 2 10 -4 10 -5 0
-13 -4 -16 -10z" />
    <path d="M4195 600 c-3 -5 -2 -10 4 -10 5 0 13 5 16 10 3 6 2 10 -4 10 -5 0
-13 -4 -16 -10z" />
    <path d="M1075 470 c3 -5 11 -10 16 -10 6 0 7 5 4 10 -3 6 -11 10 -16 10 -6 0
-7 -4 -4 -10z" />
    <path d="M3875 370 c-3 -5 -2 -10 4 -10 5 0 13 5 16 10 3 6 2 10 -4 10 -5 0
-13 -4 -16 -10z" />
    <path d="M3805 330 c-3 -5 -2 -10 4 -10 5 0 13 5 16 10 3 6 2 10 -4 10 -5 0
-13 -4 -16 -10z" />
  </g>
  <g transform="translate(0.000000,512.000000) scale(0.100000,-0.100000)" fill="#5dbbeb" stroke="none">
    <path d="M2438 5113 c6 -2 18 -2 25 0 6 3 1 5 -13 5 -14 0 -19 -2 -12 -5z" />
    <path d="M2658 5113 c6 -2 18 -2 25 0 6 3 1 5 -13 5 -14 0 -19 -2 -12 -5z" />
    <path d="M2755 2844 l-30 -26 33 22 c17 12 32 23 32 26 0 7 -4 5 -35 -22z" />
    <path d="M5112 2675 l0 -30 5 18 c2 9 2 23 0 30 -3 6 -5 -1 -5 -18z" />
    <path d="M2 2665 l0 -30 5 18 c2 9 2 23 0 30 -3 6 -5 -1 -5 -18z" />
    <path d="M2714 2598 l-19 -23 23 19 c21 18 27 26 19 26 -2 0 -12 -10 -23 -22z" />
    <path d="M2256 2515 c-27 -18 -54 -39 -60 -46 -6 -6 17 7 52 30 34 23 62 44
62 46 0 7 -1 7 -54 -30z" />
    <path d="M989 2493 l-24 -28 28 24 c25 23 32 31 24 31 -2 0 -14 -12 -28 -27z" />
    <path d="M5112 2455 l0 -30 5 18 c2 9 2 23 0 30 -3 6 -5 -1 -5 -18z" />
    <path d="M2 2445 l0 -30 5 18 c2 9 2 23 0 30 -3 6 -5 -1 -5 -18z" />
    <path d="M2404 2308 l-19 -23 23 19 c21 18 27 26 19 26 -2 0 -12 -10 -23 -22z" />
    <path d="M2550 1686 c0 -3 20 -19 45 -36 25 -17 45 -29 45 -26 0 3 -20 19 -45
36 -25 17 -45 29 -45 26z" />
    <path d="M3090 1320 c8 -5 20 -10 25 -10 6 0 3 5 -5 10 -8 5 -19 10 -25 10 -5
0 -3 -5 5 -10z" />
    <path d="M2428 3 c6 -2 18 -2 25 0 6 3 1 5 -13 5 -14 0 -19 -2 -12 -5z" />
    <path d="M2668 3 c6 -2 18 -2 25 0 6 3 1 5 -13 5 -14 0 -19 -2 -12 -5z" />
  </g>
  <g transform="translate(0.000000,512.000000) scale(0.100000,-0.100000)" fill="#abdcf4" stroke="none">
    <path d="M1344 4814 l-19 -15 25 12 c31 14 36 19 24 19 -6 0 -19 -7 -30 -16z" />
    <path d="M950 4555 l-13 -15 17 6 c9 3 16 10 16 15 0 13 -6 11 -20 -6z" />
    <path d="M4150 4561 c0 -5 7 -12 16 -15 l17 -6 -13 15 c-14 17 -20 19 -20 6z" />
    <path d="M4967 3410 c3 -11 9 -22 13 -25 5 -3 6 4 3 15 -3 11 -9 22 -13 25 -5
3 -6 -4 -3 -15z" />
    <path d="M2851 2730 c-13 -11 -19 -20 -14 -20 6 0 18 9 28 20 23 25 17 25 -14
0z" />
    <path d="M2160 2449 l-25 -20 20 10 c33 17 51 31 40 31 -5 0 -21 -10 -35 -21z" />
    <path d="M1190 2290 c8 -5 22 -9 30 -9 l15 0 -20 9 c-27 12 -43 12 -25 0z" />
    <path d="M2279 2183 l-24 -28 28 24 c25 23 32 31 24 31 -2 0 -14 -12 -28 -27z" />
    <path d="M550 966 c0 -2 7 -9 15 -16 l15 -13 -6 17 c-3 9 -10 16 -15 16 -5 0
-9 -2 -9 -4z" />
    <path d="M4546 954 l-6 -17 15 13 c17 14 19 20 6 20 -5 0 -12 -7 -15 -16z" />
    <path d="M600 906 c0 -2 7 -9 15 -16 l15 -13 -6 17 c-3 9 -10 16 -15 16 -5 0
-9 -2 -9 -4z" />
    <path d="M4401 787 l-13 -22 18 17 c10 10 16 20 13 22 -3 3 -11 -5 -18 -17z" />
    <path d="M4220 620 c-8 -5 -12 -12 -9 -15 4 -3 12 1 19 10 14 17 11 19 -10 5z" />
    <path d="M940 576 c0 -2 7 -9 15 -16 l15 -12 0 10 c0 5 -7 12 -15 16 -8 3 -15
4 -15 2z" />
    <path d="M4160 570 c-8 -5 -12 -12 -9 -15 4 -3 12 1 19 10 14 17 11 19 -10 5z" />
  </g>
  <g transform="translate(0.000000,512.000000) scale(0.100000,-0.100000)" fill="#d1ebf9" stroke="none">
    <path d="M825 4449 c-11 -17 1 -21 15 -4 l12 15 -10 0 c-6 0 -14 -5 -17 -11z" />
    <path d="M4280 4445 c7 -9 15 -13 17 -11 7 7 -7 26 -19 26 l-10 0 12 -15z" />
    <path d="M667 4293 c-4 -3 -7 -11 -7 -17 l0 -10 12 12 c6 6 9 14 7 17 -3 3 -9
2 -12 -2z" />
    <path d="M4440 4285 c7 -9 15 -13 17 -11 7 7 -7 26 -19 26 l-10 0 12 -15z" />
    <path d="M395 3934 c-9 -14 -15 -27 -13 -30 2 -2 12 10 22 26 21 37 15 40 -9
4z" />
    <path d="M2880 2929 l-25 -20 20 10 c33 17 51 31 40 31 -5 0 -21 -10 -35 -21z" />
    <path d="M2560 2720 c-14 -11 -20 -20 -15 -20 6 0 21 9 35 20 14 11 21 20 15
20 -5 0 -21 -9 -35 -20z" />
    <path d="M2790 2675 l-12 -15 10 0 c12 0 26 19 19 26 -2 2 -10 -2 -17 -11z" />
    <path d="M2365 2590 c-3 -5 -2 -10 4 -10 5 0 13 5 16 10 3 6 2 10 -4 10 -5 0
-13 -4 -16 -10z" />
    <path d="M2620 2515 l-12 -15 10 0 c12 0 26 19 19 26 -2 2 -10 -2 -17 -11z" />
    <path d="M2460 2365 l-12 -15 10 0 c12 0 26 19 19 26 -2 2 -10 -2 -17 -11z" />
    <path d="M1030 2356 c0 -3 9 -10 20 -16 11 -6 20 -8 20 -6 0 3 -9 10 -20 16
-11 6 -20 8 -20 6z" />
    <path d="M1942 2306 c-44 -31 -55 -45 -17 -21 52 32 70 45 60 45 -6 -1 -25
-11 -43 -24z" />
    <path d="M2380 1797 c118 -79 158 -104 145 -90 -15 16 -223 153 -232 153 -4 0
35 -28 87 -63z" />
    <path d="M2730 1560 c8 -6 24 -15 35 -21 l20 -10 -25 20 c-14 11 -29 21 -35
21 -5 0 -3 -5 5 -10z" />
    <path d="M2880 1460 c8 -6 24 -15 35 -21 l20 -10 -25 20 c-14 11 -29 21 -35
21 -5 0 -3 -5 5 -10z" />
    <path d="M3010 1370 c8 -6 24 -15 35 -21 l20 -10 -25 20 c-14 11 -29 21 -35
21 -5 0 -3 -5 5 -10z" />
    <path d="M3110 1316 c0 -3 9 -10 20 -16 11 -6 20 -8 20 -6 0 3 -9 10 -20 16
-11 6 -20 8 -20 6z" />
    <path d="M380 1213 c0 -5 10 -19 21 -33 l20 -25 -16 33 c-15 30 -25 41 -25 25z" />
    <path d="M460 1091 c0 -5 5 -13 10 -16 6 -3 10 -2 10 4 0 5 -4 13 -10 16 -5 3
-10 2 -10 -4z" />
    <path d="M4647 1093 c-4 -3 -7 -11 -7 -17 l0 -10 12 12 c6 6 9 14 7 17 -3 3
-9 2 -12 -2z" />
    <path d="M660 842 c0 -12 19 -26 26 -19 2 2 -2 10 -11 17 l-15 12 0 -10z" />
    <path d="M4440 835 l-12 -15 10 0 c12 0 26 19 19 26 -2 2 -10 -2 -17 -11z" />
    <path d="M810 693 c0 -13 29 -38 35 -31 3 3 -4 13 -15 23 -11 10 -20 13 -20 8z" />
    <path d="M4280 675 l-12 -15 10 0 c12 0 26 19 19 26 -2 2 -10 -2 -17 -11z" />
    <path d="M3925 400 c-16 -11 -25 -20 -20 -20 10 0 64 39 55 40 -3 0 -18 -9
-35 -20z" />
  </g>
  <g transform="translate(0.000000,512.000000) scale(0.100000,-0.100000)" fill="#6fc3ed" stroke="none">
    <path d="M5112 2700 c0 -14 2 -19 5 -12 2 6 2 18 0 25 -3 6 -5 1 -5 -13z" />
    <path d="M2 2420 c0 -14 2 -19 5 -12 2 6 2 18 0 25 -3 6 -5 1 -5 -13z" />
  </g>
  <g transform="translate(0.000000,512.000000) scale(0.100000,-0.100000)" fill="#7ec9ef" stroke="none">
    <path d="M1080 2560 c-8 -5 -10 -10 -5 -10 6 0 17 5 25 10 8 5 11 10 5 10 -5
0 -17 -5 -25 -10z" />
  </g>
  <g transform="translate(0.000000,512.000000) scale(0.100000,-0.100000)" fill="#50b7eb" stroke="none">
    <path d="M2526 2695 c-109 -73 -203 -139 -210 -145 -6 -7 85 51 202 129 116
78 212 143 212 146 0 3 -1 5 -2 4 -2 0 -92 -60 -202 -134z" />
    <path d="M1024 2524 l-19 -15 23 11 c12 6 22 13 22 15 0 8 -5 6 -26 -11z" />
    <path d="M985 2380 c10 -11 20 -20 23 -20 3 0 -3 9 -13 20 -10 11 -20 20 -23
20 -3 0 3 -9 13 -20z" />
  </g>
  <g transform="translate(0.000000,512.000000) scale(0.100000,-0.100000)" fill="#36aeeb" stroke="none">
    <path d="M2493 5113 c9 -2 23 -2 30 0 6 3 -1 5 -18 5 l-30 0 18 -5z" />
    <path d="M2603 5113 c9 -2 23 -2 30 0 6 3 -1 5 -18 5 l-30 0 18 -5z" />
    <path d="M1420 4855 c-25 -13 -41 -24 -37 -25 11 0 87 39 87 45 0 7 0 7 -50
-20z" />
    <path d="M3650 4875 c0 -7 101 -57 106 -53 2 2 -21 16 -51 31 -30 15 -55 25
-55 22z" />
    <path d="M3820 4780 c8 -5 20 -10 25 -10 6 0 3 5 -5 10 -8 5 -19 10 -25 10 -5
0 -3 -5 5 -10z" />
    <path d="M267 3705 c-15 -30 -25 -55 -22 -55 7 0 57 101 53 106 -2 2 -16 -21
-31 -51z" />
    <path d="M4820 3756 c0 -11 50 -106 55 -106 3 0 -7 24 -21 53 -28 55 -34 65
-34 53z" />
    <path d="M3711 3543 c7 -12 15 -20 18 -17 3 2 -3 12 -13 22 l-18 17 13 -22z" />
    <path d="M2779 2663 l-24 -28 28 24 c25 23 32 31 24 31 -2 0 -14 -12 -28 -27z" />
    <path d="M5112 2630 c0 -14 2 -19 5 -12 2 6 2 18 0 25 -3 6 -5 1 -5 -13z" />
    <path d="M2 2620 c0 -14 2 -19 5 -12 2 6 2 18 0 25 -3 6 -5 1 -5 -13z" />
  </g>
  <g transform="translate(0.000000,512.000000) scale(0.100000,-0.100000)" fill="#42b1e9" stroke="none">
    <path d="M3630 4880 c8 -5 20 -10 25 -10 6 0 3 5 -5 10 -8 5 -19 10 -25 10 -5
0 -3 -5 5 -10z" />
    <path d="M3374 1329 c-3 -6 -20 -19 -38 -30 -17 -10 -25 -19 -19 -19 13 0 83
59 71 60 -4 0 -10 -5 -14 -11z" />
  </g>
  <g transform="translate(0.000000,512.000000) scale(0.100000,-0.100000)" fill="#8acef1" stroke="none">
    <path d="M2919 2793 l-24 -28 28 24 c25 23 32 31 24 31 -2 0 -14 -12 -28 -27z" />
    <path d="M3710 280 c-19 -11 -31 -19 -27 -20 11 0 67 29 67 35 0 7 -1 7 -40
-15z" />
  </g>
  <g transform="translate(0.000000,512.000000) scale(0.100000,-0.100000)" fill="#2da8e6" stroke="none">
    <path d="M2814 2698 l-19 -23 23 19 c12 11 22 21 22 23 0 8 -8 2 -26 -19z" />
    <path d="M5112 2595 l0 -30 5 18 c2 9 2 23 0 30 -3 6 -5 -1 -5 -18z" />
    <path d="M2 2590 c0 -14 2 -19 5 -12 2 6 2 18 0 25 -3 6 -5 1 -5 -13z" />
    <path d="M2 2525 l0 -30 5 18 c2 9 2 23 0 30 -3 6 -5 -1 -5 -18z" />
    <path d="M5112 2530 c0 -14 2 -19 5 -12 2 6 2 18 0 25 -3 6 -5 1 -5 -13z" />
  </g>
  <g transform="translate(0.000000,512.000000) scale(0.100000,-0.100000)" fill="#9ad5f2" stroke="none">
    <path d="M774 4398 l-19 -23 23 19 c21 18 27 26 19 26 -2 0 -12 -10 -23 -22z" />
    <path d="M2334 2238 l-19 -23 23 19 c21 18 27 26 19 26 -2 0 -12 -10 -23 -22z" />
    <path d="M1370 295 c0 -7 61 -37 66 -33 2 3 -12 12 -31 21 -19 9 -35 15 -35
12z" />
  </g>
  <g transform="translate(0.000000,512.000000) scale(0.100000,-0.100000)" fill="#36aae3" stroke="none">
    <path d="M4852 1435 c-12 -25 -20 -45 -17 -45 7 0 47 81 43 86 -3 2 -14 -17
-26 -41z" />
    <path d="M250 1454 c0 -6 7 -19 16 -30 l15 -19 -12 25 c-14 31 -19 36 -19 24z" />
    <path d="M595 920 c10 -11 20 -20 23 -20 3 0 -3 9 -13 20 -10 11 -20 20 -23
20 -3 0 3 -9 13 -20z" />
    <path d="M835 670 c10 -11 20 -20 23 -20 3 0 -3 9 -13 20 -10 11 -20 20 -23
20 -3 0 3 -9 13 -20z" />
    <path d="M3650 250 c-8 -5 -10 -10 -5 -10 6 0 17 5 25 10 8 5 11 10 5 10 -5 0
-17 -5 -25 -10z" />
  </g>
  <g transform="translate(0.000000,512.000000) scale(0.100000,-0.100000)" fill="#92d1f0" stroke="none">
    <path d="M744 4368 l-19 -23 23 19 c21 18 27 26 19 26 -2 0 -12 -10 -23 -22z" />
  </g>
  <g transform="translate(0.000000,512.000000) scale(0.100000,-0.100000)" fill="#a2d8f3" stroke="none" />
  <g transform="translate(0.000000,512.000000) scale(0.100000,-0.100000)" fill="#2ca3dd" stroke="none">
    <path d="M685 820 c10 -11 20 -20 23 -20 3 0 -3 9 -13 20 -10 11 -20 20 -23
20 -3 0 3 -9 13 -20z" />
    <path d="M4424 818 l-19 -23 23 19 c21 18 27 26 19 26 -2 0 -12 -10 -23 -22z" />
    <path d="M4294 688 l-19 -23 23 19 c21 18 27 26 19 26 -2 0 -12 -10 -23 -22z" />
    <path d="M2503 3 c9 -2 23 -2 30 0 6 3 -1 5 -18 5 l-30 0 18 -5z" />
    <path d="M2593 3 c9 -2 23 -2 30 0 6 3 -1 5 -18 5 l-30 0 18 -5z" />
  </g>
  <g transform="translate(0.000000,512.000000) scale(0.100000,-0.100000)" fill="#4db2e3" stroke="none" />
</svg>