<?xml version="1.0" standalone="no"?>
<!DOCTYPE svg PUBLIC "-//W3C//DTD SVG 20010904//EN"
 "http://www.w3.org/TR/2001/REC-SVG-20010904/DTD/svg10.dtd">
<svg version="1.0" xmlns="http://www.w3.org/2000/svg"
 width="512.000000pt" height="512.000000pt" viewBox="0 0 512.000000 512.000000"
 preserveAspectRatio="xMidYMid meet">
<metadata>
Created by potrace 1.16, written by Peter Selinger 2001-2019
</metadata>
<g transform="translate(0.000000,512.000000) scale(0.100000,-0.100000)"
fill="#000000" stroke="none">
<path d="M3340 4619 c-41 -16 -688 -669 -695 -701 -7 -29 -39 -58 -65 -58 -8
0 -296 -281 -640 -625 l-625 -625 1243 0 c1218 0 1242 0 1242 19 0 33 11 51
41 66 36 19 62 9 114 -44 36 -37 44 -41 90 -41 l50 0 302 303 c165 166 306
312 312 324 14 27 14 113 1 149 -13 32 -377 404 -397 404 -7 0 -33 -13 -59
-30 -150 -94 -339 -38 -416 125 -45 97 -35 210 27 291 14 18 25 37 25 41 0 19
-378 383 -413 398 -41 17 -99 19 -137 4z m-524 -830 c44 -42 54 -58 54 -85 0
-36 -37 -74 -72 -74 -29 0 -128 98 -128 127 0 46 33 80 78 82 7 1 38 -22 68
-50z m233 -233 c56 -60 61 -80 30 -120 -35 -45 -76 -36 -138 28 -28 30 -51 60
-51 66 0 18 29 68 42 73 40 16 66 6 117 -47z m222 -223 c56 -58 63 -76 44
-112 -30 -59 -75 -55 -142 11 -59 58 -66 87 -31 125 36 39 76 31 129 -24z
m225 -224 c40 -38 54 -59 54 -79 0 -35 -27 -67 -62 -76 -23 -5 -35 2 -83 46
-45 43 -55 59 -55 86 0 36 37 74 72 74 11 0 44 -23 74 -51z m233 -233 c28 -30
51 -63 51 -74 0 -35 -38 -72 -74 -72 -27 0 -43 10 -86 55 -44 48 -51 60 -46
83 9 35 41 62 76 62 20 0 41 -14 79 -54z"/>
<path d="M518 2450 c-43 -13 -84 -47 -102 -84 -14 -29 -16 -76 -16 -315 l0
-281 28 -6 c135 -30 214 -96 248 -210 18 -60 18 -98 -1 -161 -30 -103 -115
-180 -221 -204 l-54 -12 0 -287 c0 -281 0 -288 23 -321 12 -19 42 -44 67 -57
l44 -22 1363 0 1363 0 0 60 c0 51 4 65 25 85 31 32 69 32 100 0 21 -20 25 -34
25 -85 l0 -60 459 0 c301 0 469 4 488 11 15 5 41 22 57 37 53 50 56 67 56 365
l0 273 -58 12 c-137 28 -233 147 -233 287 0 142 95 255 241 286 l51 11 -3 287
-3 288 -28 36 c-56 74 -38 72 -559 75 l-468 3 0 -31 c0 -38 -39 -80 -75 -80
-36 0 -75 42 -75 80 l0 30 -1357 -1 c-747 0 -1370 -4 -1385 -9z m2867 -215
c22 -21 25 -33 25 -90 0 -57 -3 -69 -25 -90 -31 -32 -69 -32 -100 0 -22 21
-25 33 -25 90 0 57 3 69 25 90 13 14 36 25 50 25 14 0 37 -11 50 -25z m-1830
-150 c138 -66 192 -227 124 -364 -61 -122 -193 -178 -320 -136 -102 34 -189
151 -189 255 0 110 88 225 200 261 41 13 142 4 185 -16z m770 0 c27 -27 31
-49 12 -81 -12 -21 -1006 -1113 -1045 -1147 -46 -41 -133 7 -119 65 6 21 933
1050 1037 1151 46 44 80 48 115 12z m1060 -170 c22 -21 25 -33 25 -90 0 -57
-3 -69 -25 -90 -31 -32 -69 -32 -100 0 -22 21 -25 33 -25 90 0 57 3 69 25 90
13 14 36 25 50 25 14 0 37 -11 50 -25z m0 -320 c22 -21 25 -33 25 -90 0 -57
-3 -69 -25 -90 -31 -32 -69 -32 -100 0 -22 21 -25 33 -25 90 0 57 3 69 25 90
13 14 36 25 50 25 14 0 37 -11 50 -25z m-1185 -250 c52 -26 89 -65 123 -129
34 -64 30 -164 -8 -235 -49 -90 -134 -139 -240 -140 -141 -1 -252 104 -263
248 -6 85 21 153 84 211 89 82 199 98 304 45z m1185 -70 c22 -21 25 -33 25
-90 0 -57 -3 -69 -25 -90 -13 -14 -36 -25 -50 -25 -14 0 -37 11 -50 25 -22 21
-25 33 -25 90 0 57 3 69 25 90 13 14 36 25 50 25 14 0 37 -11 50 -25z m0 -320
c22 -21 25 -33 25 -90 0 -57 -3 -69 -25 -90 -13 -14 -36 -25 -50 -25 -14 0
-37 11 -50 25 -22 21 -25 33 -25 90 0 57 3 69 25 90 13 14 36 25 50 25 14 0
37 -11 50 -25z"/>
<path d="M1379 1945 c-29 -15 -59 -70 -59 -105 0 -88 100 -146 180 -105 55 28
79 123 44 173 -34 48 -112 66 -165 37z"/>
<path d="M2022 1213 c-41 -20 -62 -59 -62 -114 0 -33 6 -47 34 -75 29 -29 41
-34 83 -34 55 0 86 17 108 60 32 62 4 139 -60 166 -44 18 -62 17 -103 -3z"/>
</g>
</svg>
