<?xml version="1.0" standalone="no"?>
<!DOCTYPE svg PUBLIC "-//W3C//DTD SVG 20010904//EN"
 "http://www.w3.org/TR/2001/REC-SVG-20010904/DTD/svg10.dtd">
<svg version="1.0" xmlns="http://www.w3.org/2000/svg"
 width="512.000000pt" height="512.000000pt" viewBox="0 0 512.000000 512.000000"
 preserveAspectRatio="xMidYMid meet">
<metadata>
Created by potrace 1.16, written by Peter Selinger 2001-2019
</metadata>
<g transform="translate(0.000000,512.000000) scale(0.100000,-0.100000)"
fill="#000000" stroke="none">
<path d="M1345 4611 l-1100 -267 -3 -82 c-2 -47 1 -82 7 -82 5 0 503 119 1107
265 603 146 1110 265 1125 265 15 0 521 -119 1125 -265 603 -146 1101 -265
1106 -265 5 0 8 37 6 82 l-3 82 -1105 268 c-608 147 -1118 267 -1135 266 -16
0 -525 -121 -1130 -267z"/>
<path d="M1490 4326 c-525 -128 -967 -235 -983 -239 l-27 -7 0 -600 0 -600
240 0 240 0 0 274 c0 178 4 284 11 306 23 63 -65 60 1509 60 1574 0 1486 3
1509 -60 8 -24 11 -453 11 -1586 l0 -1554 240 0 240 0 0 1879 c0 1781 -1 1880
-17 1885 -79 24 -1973 476 -1993 475 -14 -1 -455 -106 -980 -233z m1235 -110
c89 -38 145 -121 145 -216 0 -69 -25 -124 -77 -171 -64 -58 -93 -64 -318 -64
-182 0 -204 2 -245 21 -212 99 -175 403 55 445 22 4 121 6 220 5 145 -2 188
-6 220 -20z"/>
<path d="M2260 4060 c-13 -13 -20 -33 -20 -60 0 -27 7 -47 20 -60 19 -19 33
-20 220 -20 187 0 201 1 220 20 13 13 20 33 20 60 0 27 -7 47 -20 60 -19 19
-33 20 -220 20 -187 0 -201 -1 -220 -20z"/>
<path d="M1120 3280 l0 -80 1360 0 1360 0 0 80 0 80 -1360 0 -1360 0 0 -80z"/>
<path d="M1120 2960 l0 -80 1360 0 1360 0 0 80 0 80 -1360 0 -1360 0 0 -80z"/>
<path d="M240 2160 l0 -560 640 0 640 0 0 560 0 560 -160 0 -160 0 0 -195 c0
-223 -7 -255 -60 -274 -50 -17 -481 -15 -524 3 -50 21 -56 51 -56 272 l0 194
-160 0 -160 0 0 -560z m1120 -320 l0 -80 -80 0 -80 0 0 80 0 80 80 0 80 0 0
-80z"/>
<path d="M720 2560 l0 -160 160 0 160 0 0 160 0 160 -160 0 -160 0 0 -160z"/>
<path d="M1680 2640 l0 -80 1080 0 1080 0 0 80 0 80 -1080 0 -1080 0 0 -80z"/>
<path d="M1680 2320 l0 -80 1080 0 1080 0 0 80 0 80 -1080 0 -1080 0 0 -80z"/>
<path d="M1680 1840 l0 -240 675 0 c746 0 732 1 754 -60 8 -23 11 -209 11
-626 l0 -594 360 0 360 0 0 880 0 880 -1080 0 -1080 0 0 -240z"/>
<path d="M240 880 l0 -560 640 0 640 0 0 560 0 560 -160 0 -160 0 0 -195 c0
-223 -7 -255 -60 -274 -50 -17 -481 -15 -524 3 -50 21 -56 51 -56 272 l0 194
-160 0 -160 0 0 -560z m1120 -320 l0 -80 -80 0 -80 0 0 80 0 80 80 0 80 0 0
-80z"/>
<path d="M720 1280 l0 -160 160 0 160 0 0 160 0 160 -160 0 -160 0 0 -160z"/>
<path d="M1680 880 l0 -560 640 0 640 0 0 560 0 560 -160 0 -160 0 0 -195 c0
-223 -7 -255 -60 -274 -50 -17 -481 -15 -524 3 -50 21 -56 51 -56 272 l0 194
-160 0 -160 0 0 -560z m1120 -320 l0 -80 -80 0 -80 0 0 80 0 80 80 0 80 0 0
-80z"/>
<path d="M2160 1280 l0 -160 160 0 160 0 0 160 0 160 -160 0 -160 0 0 -160z"/>
</g>
</svg>
